<svg id="svg" version="1.1" xmlns="http://www.w3.org/2000/svg" xmlns:xlink="http://www.w3.org/1999/xlink" width="400" height="266.6666666666667" viewBox="0, 0, 400,266.6666666666667"><g id="svgg"><path id="path0" d="M191.322 49.084 C 191.226 49.241,191.189 49.391,191.240 49.418 C 191.291 49.445,191.602 49.617,191.930 49.800 C 192.626 50.189,194.400 50.249,194.400 49.883 C 194.400 49.745,193.830 49.556,193.133 49.462 C 190.960 49.169,191.233 49.105,194.000 49.257 C 195.467 49.337,198.047 49.428,199.733 49.459 L 202.800 49.514 200.267 49.342 L 197.733 49.170 200.967 49.118 C 204.807 49.057,206.019 49.228,205.572 49.768 C 205.321 50.069,205.509 50.133,206.650 50.133 C 207.410 50.133,207.965 50.026,207.884 49.895 C 207.803 49.763,207.916 49.587,208.135 49.503 C 208.354 49.419,208.533 49.226,208.533 49.075 C 208.533 48.686,191.563 48.695,191.322 49.084 M189.200 49.559 C 189.751 49.906,190.104 49.980,190.333 49.798 C 190.895 49.354,190.714 49.203,189.533 49.128 L 188.400 49.056 189.200 49.559 M208.800 49.480 C 208.800 49.903,209.533 50.191,209.743 49.851 C 209.831 49.708,210.015 49.660,210.152 49.745 C 210.288 49.829,210.400 49.779,210.400 49.634 C 210.400 49.489,210.670 49.317,211.000 49.251 C 211.330 49.186,210.970 49.136,210.200 49.142 C 209.272 49.148,208.800 49.262,208.800 49.480 M186.033 49.990 C 186.249 50.552,187.219 50.799,187.496 50.362 C 187.890 49.741,187.763 49.600,186.808 49.600 C 186.106 49.600,185.919 49.694,186.033 49.990 M211.167 49.841 C 211.370 49.969,211.471 50.177,211.393 50.304 C 211.316 50.430,211.673 50.564,212.189 50.602 C 212.943 50.658,213.094 50.590,212.966 50.255 C 212.799 49.820,213.091 49.911,213.867 50.537 C 214.139 50.757,214.692 50.797,215.600 50.665 C 216.367 50.554,216.650 50.443,216.267 50.405 C 214.580 50.238,214.126 50.148,213.632 49.884 C 212.983 49.537,210.622 49.496,211.167 49.841 M183.733 50.400 C 182.870 50.582,182.906 50.599,184.216 50.632 C 185.100 50.653,185.570 50.566,185.467 50.400 C 185.286 50.108,185.119 50.108,183.733 50.400 M181.800 50.591 C 181.397 50.652,181.067 50.801,181.067 50.922 C 181.067 51.043,180.638 51.084,180.115 51.013 C 179.467 50.926,179.010 51.022,178.686 51.315 C 178.422 51.555,178.016 51.671,177.772 51.578 C 177.482 51.467,177.333 51.549,177.333 51.820 C 177.333 52.357,178.398 52.701,178.675 52.254 C 178.789 52.069,179.213 51.882,179.617 51.839 C 180.021 51.796,180.423 51.652,180.509 51.520 C 180.596 51.387,180.990 51.295,181.386 51.314 C 181.782 51.334,182.053 51.298,181.990 51.235 C 181.927 51.171,182.083 50.961,182.337 50.768 C 182.592 50.575,182.740 50.431,182.667 50.448 C 182.593 50.466,182.203 50.530,181.800 50.591 M218.000 50.933 C 218.091 51.080,218.338 51.200,218.549 51.200 C 218.760 51.200,218.933 51.080,218.933 50.933 C 218.933 50.787,218.686 50.667,218.384 50.667 C 218.082 50.667,217.909 50.787,218.000 50.933 M219.095 51.355 C 218.833 52.038,218.888 52.077,219.867 51.918 C 220.571 51.804,220.800 51.861,220.800 52.150 C 220.800 52.565,221.050 52.625,221.712 52.371 C 222.328 52.135,222.258 51.391,221.638 51.588 C 221.351 51.679,221.000 51.574,220.805 51.339 C 220.364 50.808,219.301 50.818,219.095 51.355 M175.129 52.467 C 175.200 52.650,175.461 52.800,175.711 52.800 C 175.961 52.800,176.370 52.650,176.621 52.467 C 177.014 52.179,176.934 52.133,176.039 52.133 C 175.318 52.133,175.040 52.235,175.129 52.467 M222.596 52.467 C 222.666 52.650,222.987 52.800,223.309 52.800 C 223.630 52.800,224.007 52.914,224.147 53.053 C 224.307 53.213,224.413 53.090,224.434 52.720 C 224.464 52.214,224.331 52.133,223.468 52.133 C 222.778 52.133,222.507 52.237,222.596 52.467 M173.867 52.634 C 173.867 52.689,174.047 52.884,174.267 53.067 C 174.594 53.339,174.667 53.320,174.667 52.966 C 174.667 52.728,174.487 52.533,174.267 52.533 C 174.047 52.533,173.867 52.579,173.867 52.634 M225.150 52.704 C 224.606 52.926,225.664 53.768,226.333 53.647 C 226.741 53.573,226.933 53.668,226.933 53.944 C 226.933 54.279,227.045 54.297,227.577 54.046 C 228.275 53.717,228.243 53.334,227.518 53.332 C 227.270 53.331,226.723 53.151,226.303 52.932 C 225.883 52.713,225.523 52.543,225.503 52.554 C 225.483 52.566,225.324 52.633,225.150 52.704 M172.025 53.299 C 171.412 53.471,171.404 53.500,171.855 53.950 C 172.297 54.393,172.346 54.394,172.658 53.967 C 172.850 53.704,173.168 53.582,173.415 53.676 C 173.711 53.790,173.795 53.723,173.691 53.453 C 173.535 53.045,173.082 53.004,172.025 53.299 M169.317 54.422 C 168.959 54.697,168.507 54.924,168.311 54.927 C 167.891 54.934,168.026 55.520,168.483 55.672 C 168.657 55.730,168.800 55.583,168.800 55.344 C 168.800 55.105,168.950 54.939,169.133 54.974 C 169.604 55.064,170.667 54.674,170.667 54.411 C 170.667 53.940,169.936 53.946,169.317 54.422 M228.729 54.374 C 228.633 54.742,228.703 54.852,228.967 54.750 C 229.172 54.671,229.524 54.759,229.748 54.946 C 230.022 55.173,230.244 55.196,230.425 55.015 C 230.606 54.834,230.461 54.593,229.981 54.279 C 229.520 53.976,229.344 53.939,229.485 54.172 C 229.663 54.469,229.627 54.473,229.284 54.194 C 228.933 53.911,228.843 53.940,228.729 54.374 M231.200 55.200 C 231.200 55.347,231.470 55.465,231.800 55.463 C 232.285 55.459,232.323 55.409,232.000 55.200 C 231.483 54.866,231.200 54.866,231.200 55.200 M165.600 56.000 C 165.600 56.147,165.420 56.267,165.200 56.267 C 164.746 56.267,164.664 56.684,165.069 56.934 C 165.216 57.026,165.410 56.910,165.500 56.677 C 165.634 56.327,165.735 56.313,166.075 56.593 C 166.438 56.893,166.449 56.862,166.168 56.333 C 165.828 55.695,165.600 55.562,165.600 56.000 M234.532 56.535 C 234.441 56.683,234.584 56.881,234.850 56.976 C 235.116 57.071,235.412 57.191,235.508 57.241 C 235.605 57.292,235.621 57.094,235.544 56.800 C 235.397 56.236,234.812 56.083,234.532 56.535 M163.467 57.175 C 163.467 57.419,163.653 57.501,164.000 57.411 C 164.293 57.334,164.533 57.165,164.533 57.036 C 164.533 56.906,164.293 56.800,164.000 56.800 C 163.707 56.800,163.467 56.969,163.467 57.175 M236.764 57.550 C 237.070 57.763,237.070 57.823,236.764 57.934 C 236.564 58.006,236.860 58.156,237.421 58.266 C 237.983 58.377,238.501 58.620,238.573 58.807 C 238.764 59.306,239.733 59.501,239.733 59.042 C 239.733 58.835,239.553 58.667,239.333 58.667 C 239.113 58.667,238.933 58.567,238.933 58.445 C 238.933 58.186,238.016 57.705,237.067 57.466 C 236.607 57.350,236.513 57.377,236.764 57.550 M159.733 58.933 C 159.733 59.080,159.973 59.200,160.267 59.200 C 160.560 59.200,160.800 59.080,160.800 58.933 C 160.800 58.787,160.560 58.667,160.267 58.667 C 159.973 58.667,159.733 58.787,159.733 58.933 M158.140 59.764 C 157.601 59.979,157.552 60.073,157.873 60.276 C 158.446 60.639,158.615 60.595,158.933 60.000 C 159.248 59.412,159.119 59.373,158.140 59.764 M241.075 59.970 C 241.099 60.423,241.860 61.067,242.372 61.067 C 242.857 61.067,242.908 60.984,242.684 60.566 C 242.438 60.107,241.056 59.595,241.075 59.970 M156.411 60.782 C 156.229 61.076,156.650 61.395,156.896 61.148 C 157.150 60.895,157.102 60.533,156.816 60.533 C 156.678 60.533,156.496 60.645,156.411 60.782 M191.067 61.499 C 172.601 63.991,158.065 71.993,147.490 85.487 C 147.367 85.645,147.183 86.065,147.082 86.420 C 146.953 86.874,146.975 86.956,147.156 86.694 C 147.327 86.446,147.578 86.396,147.906 86.543 C 148.631 86.867,162.466 86.943,162.850 86.625 C 163.042 86.465,163.355 86.456,163.650 86.602 C 163.916 86.733,165.633 86.849,167.467 86.859 C 169.300 86.868,170.530 86.821,170.200 86.753 C 169.870 86.685,169.600 86.530,169.600 86.408 C 169.600 86.287,169.090 86.119,168.467 86.035 C 165.741 85.670,165.054 85.529,164.916 85.305 C 164.835 85.174,164.542 85.067,164.266 85.067 C 162.974 85.067,162.586 83.230,163.667 82.227 C 167.193 78.954,173.678 79.415,181.694 83.509 C 184.034 84.705,185.154 85.346,185.621 85.760 C 185.853 85.966,186.173 86.133,186.332 86.133 C 186.492 86.133,186.672 86.283,186.733 86.467 C 186.873 86.885,218.814 87.024,220.933 86.615 C 221.667 86.474,222.807 86.296,223.467 86.220 C 224.127 86.144,224.781 85.973,224.920 85.841 C 225.059 85.708,225.341 85.600,225.546 85.600 C 225.752 85.600,226.298 85.434,226.760 85.231 C 227.222 85.028,228.020 84.716,228.533 84.537 C 229.047 84.358,230.821 83.546,232.476 82.733 C 236.775 80.619,238.014 81.380,236.194 85.018 L 235.303 86.800 236.651 86.800 C 237.393 86.800,238.160 86.696,238.357 86.570 C 238.570 86.432,238.832 86.459,239.010 86.637 C 239.388 87.015,240.411 87.018,241.113 86.642 C 241.507 86.431,241.738 86.431,241.949 86.642 C 242.372 87.065,249.126 87.034,249.553 86.607 C 249.811 86.349,249.991 86.350,250.408 86.610 C 251.839 87.504,253.882 86.053,252.577 85.069 C 252.478 84.995,251.866 84.213,251.216 83.333 C 239.891 67.983,213.637 58.453,191.067 61.499 M154.133 62.238 C 154.133 62.745,154.856 62.987,155.028 62.539 C 155.104 62.340,154.984 62.108,154.761 62.022 C 154.188 61.802,154.133 61.821,154.133 62.238 M244.533 62.125 C 243.869 62.301,243.870 62.302,244.667 62.461 C 245.536 62.633,245.842 62.519,245.449 62.169 C 245.312 62.047,244.900 62.027,244.533 62.125 M245.600 63.169 C 245.600 63.298,245.810 63.481,246.067 63.576 C 247.021 63.925,248.039 64.591,248.179 64.956 C 248.259 65.164,248.507 65.333,248.731 65.333 C 248.955 65.333,249.417 65.633,249.757 66.000 C 250.097 66.367,250.483 66.667,250.617 66.667 C 250.750 66.667,251.304 67.087,251.848 67.600 C 252.393 68.113,252.902 68.533,252.980 68.533 C 253.059 68.533,253.500 68.851,253.962 69.239 C 254.706 69.866,254.810 69.892,254.893 69.470 C 254.999 68.928,253.717 67.758,253.000 67.743 C 252.714 67.737,252.533 67.527,252.533 67.200 C 252.533 66.907,252.368 66.667,252.166 66.667 C 251.964 66.667,251.649 66.487,251.467 66.267 C 251.284 66.047,250.878 65.867,250.564 65.867 C 250.228 65.867,249.885 65.620,249.730 65.268 C 249.212 64.089,245.600 62.254,245.600 63.169 M151.066 64.269 C 150.770 64.746,151.757 64.891,152.211 64.436 C 152.615 64.032,152.595 64.000,151.940 64.000 C 151.550 64.000,151.157 64.121,151.066 64.269 M149.698 65.190 C 148.963 65.986,148.980 66.213,149.758 66.018 C 150.447 65.845,150.918 65.459,150.929 65.057 C 150.937 64.801,149.960 64.907,149.698 65.190 M147.922 66.526 C 147.344 66.948,147.319 67.580,147.888 67.362 C 148.120 67.273,148.408 67.200,148.527 67.200 C 148.646 67.200,148.808 67.030,148.888 66.822 C 149.086 66.305,148.479 66.118,147.922 66.526 M145.791 68.265 C 145.586 68.557,145.353 68.730,145.272 68.650 C 145.191 68.569,144.963 68.870,144.764 69.318 C 144.566 69.766,144.252 70.133,144.068 70.133 C 143.884 70.133,143.733 70.266,143.733 70.429 C 143.733 70.591,143.568 70.660,143.366 70.583 C 143.036 70.456,136.000 77.272,136.000 77.719 C 136.000 77.811,135.460 78.411,134.800 79.053 C 134.140 79.694,133.600 80.273,133.600 80.339 C 133.600 80.405,133.182 80.902,132.671 81.443 C 132.161 81.985,131.771 82.515,131.805 82.621 C 131.839 82.727,131.596 83.111,131.265 83.474 C 130.029 84.827,129.333 85.823,129.333 86.238 C 129.333 86.474,129.173 86.667,128.976 86.667 C 128.655 86.667,128.099 87.524,128.055 88.086 C 128.046 88.207,127.672 88.656,127.225 89.083 C 126.778 89.510,126.330 90.191,126.230 90.597 C 126.130 91.002,125.839 91.517,125.584 91.742 C 125.328 91.967,125.077 92.444,125.026 92.802 C 124.975 93.160,124.675 93.582,124.359 93.739 C 123.936 93.949,123.847 94.136,124.022 94.448 C 124.201 94.768,124.145 94.864,123.796 94.836 C 123.459 94.810,123.311 95.036,123.250 95.667 C 123.204 96.143,123.040 96.533,122.885 96.533 C 122.731 96.533,122.667 96.773,122.744 97.067 C 122.821 97.360,122.769 97.600,122.628 97.600 C 122.488 97.600,122.203 98.005,121.996 98.501 C 121.789 98.997,121.426 99.476,121.190 99.567 C 120.891 99.682,120.784 99.996,120.838 100.599 C 120.890 101.172,120.806 101.444,120.592 101.400 C 120.398 101.360,120.267 101.634,120.267 102.080 C 120.267 102.491,120.123 102.971,119.947 103.147 C 119.771 103.323,119.741 103.469,119.880 103.471 C 120.025 103.473,120.018 103.558,119.863 103.671 C 119.430 103.985,118.165 106.752,117.955 107.846 C 117.900 108.128,117.743 108.494,117.606 108.660 C 117.468 108.825,117.421 109.211,117.501 109.517 C 117.581 109.823,117.516 110.154,117.357 110.252 C 117.197 110.351,117.067 110.664,117.067 110.949 C 117.067 111.234,116.947 111.467,116.800 111.467 C 116.653 111.467,116.533 111.743,116.533 112.080 C 116.533 112.417,116.419 112.808,116.279 112.947 C 116.140 113.087,115.995 113.651,115.958 114.201 C 115.921 114.750,115.812 115.200,115.716 115.200 C 115.620 115.200,115.574 115.620,115.615 116.133 C 115.656 116.647,115.579 117.067,115.445 117.067 C 115.310 117.067,115.200 117.607,115.200 118.267 C 115.200 118.927,115.080 119.467,114.933 119.467 C 114.787 119.467,114.667 119.877,114.667 120.378 C 114.667 120.879,114.555 121.329,114.418 121.378 C 114.282 121.427,114.135 122.267,114.092 123.246 C 114.048 124.243,113.906 124.958,113.768 124.873 C 113.622 124.782,113.579 125.506,113.661 126.654 C 113.761 128.055,113.691 128.804,113.405 129.376 C 113.094 130.000,113.051 130.721,113.201 132.816 C 113.335 134.692,113.304 135.467,113.095 135.467 C 112.701 135.467,112.718 136.345,113.120 136.747 C 113.369 136.996,113.369 137.138,113.120 137.387 C 112.776 137.731,112.681 139.259,112.985 139.563 C 113.087 139.665,113.191 141.389,113.215 143.395 C 113.240 145.401,113.367 147.078,113.497 147.121 C 113.627 147.164,113.715 147.740,113.693 148.400 C 113.671 149.061,113.761 149.668,113.893 149.750 C 114.025 149.831,114.133 150.484,114.133 151.200 C 114.133 151.916,114.253 152.576,114.400 152.667 C 114.547 152.757,114.667 153.484,114.667 154.282 C 114.667 155.080,114.771 155.733,114.898 155.733 C 115.105 155.733,115.420 157.080,115.552 158.533 C 115.578 158.827,115.691 159.134,115.803 159.217 C 115.914 159.300,116.041 159.800,116.084 160.327 C 116.127 160.855,116.317 161.473,116.505 161.700 C 116.694 161.927,116.913 162.597,116.992 163.190 C 117.072 163.782,117.254 164.267,117.397 164.267 C 117.540 164.267,117.589 164.443,117.507 164.658 C 117.424 164.873,117.480 165.126,117.630 165.218 C 117.780 165.311,117.830 165.577,117.741 165.809 C 117.646 166.056,117.909 166.689,118.376 167.340 C 118.910 168.084,119.123 168.638,119.022 169.024 C 118.934 169.360,118.995 169.600,119.169 169.600 C 119.333 169.600,119.467 169.950,119.467 170.378 C 119.467 171.164,120.230 172.795,120.600 172.798 C 120.710 172.799,120.800 172.989,120.800 173.219 C 120.800 173.450,120.987 173.825,121.215 174.053 C 121.444 174.282,121.568 174.633,121.490 174.834 C 121.413 175.035,121.458 175.200,121.590 175.200 C 121.845 175.200,122.280 176.248,122.180 176.620 C 122.147 176.741,122.243 176.764,122.393 176.671 C 122.544 176.578,122.667 176.689,122.667 176.918 C 122.667 177.146,122.787 177.333,122.933 177.333 C 123.080 177.333,123.200 177.667,123.200 178.074 C 123.200 178.503,123.419 178.973,123.719 179.190 C 124.005 179.395,124.177 179.663,124.102 179.784 C 124.027 179.905,124.155 180.193,124.385 180.424 C 124.616 180.654,124.740 180.947,124.662 181.075 C 124.583 181.202,124.762 181.437,125.059 181.596 C 125.357 181.755,125.600 182.065,125.600 182.284 C 125.600 182.504,125.772 182.750,125.983 182.830 C 126.194 182.911,126.306 183.135,126.232 183.328 C 126.158 183.520,126.359 183.861,126.678 184.084 C 126.997 184.308,127.174 184.626,127.073 184.790 C 126.850 185.150,127.427 185.922,127.764 185.715 C 127.894 185.634,128.000 185.794,128.000 186.070 C 128.000 186.345,128.309 186.839,128.686 187.167 C 129.063 187.495,129.495 188.116,129.645 188.548 C 129.796 188.980,130.027 189.333,130.159 189.333 C 130.292 189.333,130.400 189.529,130.400 189.769 C 130.400 190.260,131.428 191.256,131.737 191.064 C 131.848 190.995,132.002 191.178,132.078 191.470 C 132.171 191.824,132.114 191.941,131.908 191.821 C 131.739 191.722,131.829 191.902,132.108 192.221 C 132.387 192.539,132.717 192.800,132.841 192.800 C 133.131 192.800,134.133 193.798,134.133 194.087 C 134.133 194.209,135.034 195.238,136.135 196.376 C 137.325 197.605,138.062 198.570,137.951 198.755 C 137.848 198.927,137.973 198.897,138.229 198.689 C 138.641 198.355,138.711 198.377,138.845 198.889 C 138.928 199.207,139.105 199.467,139.238 199.467 C 139.371 199.467,139.599 199.779,139.744 200.160 C 139.895 200.558,140.154 200.798,140.351 200.722 C 140.541 200.650,140.974 200.997,141.315 201.495 C 141.656 201.993,142.040 202.415,142.168 202.433 C 142.295 202.452,142.520 202.497,142.667 202.533 C 142.813 202.570,143.059 202.615,143.212 202.633 C 143.365 202.652,143.455 202.877,143.412 203.133 C 143.367 203.398,143.480 203.570,143.673 203.531 C 143.859 203.494,144.122 203.752,144.256 204.105 C 144.552 204.884,144.966 205.179,145.210 204.784 C 145.451 204.394,146.673 205.541,146.499 205.994 C 146.428 206.179,146.562 206.405,146.799 206.496 C 147.069 206.600,147.161 206.553,147.049 206.371 C 146.939 206.193,147.062 206.119,147.368 206.177 C 147.642 206.229,147.905 206.541,147.952 206.869 C 147.999 207.198,148.209 207.467,148.419 207.467 C 148.628 207.467,148.800 207.560,148.800 207.675 C 148.800 207.789,149.163 208.020,149.607 208.188 C 150.051 208.355,150.381 208.646,150.340 208.834 C 150.300 209.022,150.387 209.183,150.533 209.192 C 150.680 209.201,150.950 209.303,151.133 209.420 C 151.317 209.536,151.467 209.538,151.467 209.423 C 151.467 209.308,151.659 209.489,151.894 209.825 C 152.130 210.162,152.489 210.372,152.694 210.293 C 152.913 210.209,153.067 210.318,153.067 210.557 C 153.067 210.781,153.187 210.891,153.333 210.800 C 153.480 210.709,153.600 210.762,153.600 210.918 C 153.600 211.073,153.780 211.200,154.000 211.200 C 154.220 211.200,154.400 211.320,154.400 211.467 C 154.400 211.613,154.763 211.733,155.206 211.733 C 155.802 211.733,156.089 211.903,156.309 212.385 C 156.665 213.167,157.340 213.483,157.641 213.009 C 157.817 212.732,157.859 212.734,157.863 213.016 C 157.865 213.208,157.973 213.299,158.103 213.219 C 158.233 213.138,158.406 213.327,158.487 213.638 C 158.596 214.053,158.781 214.166,159.184 214.060 C 159.562 213.961,159.733 214.044,159.733 214.324 C 159.733 214.665,159.802 214.675,160.154 214.383 C 160.433 214.151,160.634 214.127,160.754 214.310 C 160.852 214.462,161.113 214.655,161.333 214.739 C 161.647 214.859,161.631 214.896,161.257 214.912 C 160.865 214.930,160.832 215.027,161.067 215.467 C 161.419 216.124,162.317 216.166,162.483 215.533 C 162.595 215.104,162.607 215.105,162.636 215.551 C 162.659 215.916,162.816 215.999,163.267 215.887 C 163.597 215.805,163.716 215.807,163.532 215.892 C 163.074 216.102,163.385 216.533,163.994 216.533 C 164.266 216.533,164.544 216.683,164.611 216.867 C 164.709 217.133,164.804 217.133,165.087 216.867 C 165.585 216.396,165.783 216.450,165.953 217.101 C 166.051 217.478,166.240 217.616,166.513 217.511 C 166.769 217.413,167.038 217.564,167.222 217.907 C 167.462 218.356,167.691 218.433,168.426 218.314 C 168.987 218.223,169.333 218.276,169.333 218.454 C 169.333 218.850,170.167 219.448,170.733 219.458 C 170.990 219.463,171.200 219.347,171.200 219.200 C 171.200 219.053,171.333 218.933,171.495 218.933 C 171.658 218.933,171.716 219.127,171.625 219.365 C 171.497 219.698,171.583 219.765,171.997 219.657 C 172.324 219.571,172.626 219.679,172.767 219.932 C 172.940 220.240,173.249 220.307,173.967 220.190 C 174.702 220.071,174.933 220.125,174.933 220.417 C 174.933 220.659,175.209 220.800,175.680 220.800 C 176.091 220.800,176.571 220.944,176.747 221.120 C 176.983 221.357,177.145 221.362,177.366 221.140 C 177.588 220.919,177.806 220.971,178.205 221.343 C 178.764 221.863,180.775 222.302,181.437 222.048 C 181.645 221.968,182.036 222.071,182.307 222.277 C 182.928 222.746,184.527 222.787,184.552 222.333 C 184.562 222.150,184.661 222.231,184.772 222.514 C 184.926 222.906,185.266 223.040,186.218 223.080 C 186.903 223.109,187.646 223.284,187.870 223.470 C 188.144 223.697,188.752 223.758,189.738 223.656 C 190.634 223.564,191.200 223.608,191.200 223.772 C 191.200 223.935,192.123 224.005,193.601 223.952 C 194.921 223.905,196.001 223.957,196.001 224.067 C 196.000 224.177,197.800 224.267,200.000 224.267 C 202.200 224.267,204.000 224.177,203.999 224.067 C 203.999 223.957,204.905 223.906,206.013 223.955 C 207.236 224.008,208.168 223.926,208.386 223.745 C 208.621 223.550,209.339 223.507,210.456 223.621 C 211.880 223.767,212.243 223.719,212.630 223.332 C 212.970 222.992,213.346 222.909,214.037 223.021 C 214.716 223.131,214.946 223.083,214.856 222.850 C 214.767 222.619,215.040 222.555,215.804 222.628 C 216.550 222.699,216.943 222.612,217.094 222.341 C 217.251 222.061,217.652 221.983,218.523 222.060 C 219.189 222.120,219.733 222.062,219.733 221.931 C 219.733 221.800,220.101 221.746,220.550 221.812 C 221.212 221.909,221.394 221.825,221.514 221.366 C 221.681 220.729,221.888 220.661,222.329 221.102 C 222.745 221.518,223.497 221.189,223.300 220.677 C 223.214 220.451,223.276 220.267,223.438 220.267 C 223.600 220.267,223.733 220.387,223.733 220.533 C 223.733 220.855,224.326 220.769,224.583 220.411 C 224.684 220.270,225.209 220.185,225.749 220.222 C 226.520 220.274,226.699 220.203,226.581 219.896 C 226.470 219.605,226.616 219.516,227.149 219.552 C 227.600 219.582,227.842 219.476,227.800 219.267 C 227.763 219.083,227.853 218.933,228.000 218.933 C 228.147 218.933,228.267 219.053,228.267 219.200 C 228.267 219.665,229.049 219.488,229.387 218.947 C 229.626 218.563,229.801 218.501,230.053 218.711 C 230.309 218.923,230.458 218.837,230.647 218.364 C 230.786 218.017,230.907 217.883,230.916 218.067 C 230.937 218.469,231.651 218.514,231.782 218.121 C 231.833 217.968,232.143 217.823,232.471 217.798 C 232.807 217.773,233.068 217.575,233.071 217.343 C 233.074 217.012,233.119 217.003,233.304 217.295 C 233.493 217.593,233.656 217.575,234.233 217.197 C 234.618 216.945,234.937 216.842,234.942 216.969 C 234.946 217.096,235.096 217.020,235.275 216.800 C 235.454 216.580,235.720 216.387,235.867 216.371 C 236.595 216.292,237.333 215.901,237.333 215.594 C 237.333 215.373,237.539 215.304,237.908 215.400 C 238.284 215.498,238.421 215.450,238.304 215.260 C 238.205 215.101,238.247 214.895,238.396 214.803 C 238.545 214.711,238.670 214.792,238.675 214.984 C 238.681 215.233,238.777 215.212,239.008 214.910 C 239.187 214.677,239.483 214.537,239.667 214.599 C 239.850 214.661,240.072 214.522,240.161 214.290 C 240.250 214.059,240.415 213.927,240.529 213.997 C 240.845 214.193,242.426 213.325,242.256 213.049 C 242.173 212.915,242.276 212.872,242.485 212.952 C 242.694 213.032,243.051 212.910,243.280 212.682 C 243.508 212.454,243.884 212.267,244.114 212.267 C 244.345 212.267,244.533 212.147,244.533 212.000 C 244.533 211.853,244.707 211.733,244.918 211.733 C 245.130 211.733,245.471 211.494,245.675 211.202 C 245.880 210.909,246.118 210.740,246.203 210.825 C 246.289 210.911,246.787 210.689,247.311 210.333 C 247.835 209.977,248.184 209.607,248.087 209.510 C 247.990 209.413,248.177 209.333,248.501 209.333 C 248.825 209.333,249.391 209.033,249.758 208.667 C 250.124 208.300,250.516 208.000,250.629 208.000 C 250.741 208.000,251.077 207.772,251.376 207.494 C 251.675 207.216,252.147 206.939,252.426 206.878 C 252.705 206.818,252.903 206.625,252.867 206.451 C 252.830 206.276,252.987 206.133,253.216 206.133 C 253.444 206.133,253.557 206.013,253.467 205.867 C 253.376 205.720,253.496 205.600,253.733 205.600 C 253.971 205.600,254.091 205.480,254.000 205.333 C 253.908 205.184,254.114 205.067,254.467 205.067 C 255.024 205.067,256.305 203.804,256.430 203.133 C 256.450 203.023,256.484 202.843,256.504 202.733 C 256.525 202.623,256.658 202.713,256.800 202.933 C 256.972 203.200,257.060 203.222,257.063 203.000 C 257.065 202.817,257.204 202.667,257.371 202.667 C 257.738 202.667,259.200 201.180,259.200 200.808 C 259.200 200.662,259.499 200.468,259.865 200.377 C 260.230 200.285,260.463 200.103,260.382 199.972 C 260.301 199.841,260.350 199.733,260.491 199.733 C 260.632 199.733,260.997 199.343,261.303 198.867 C 261.608 198.390,261.860 198.100,261.862 198.223 C 261.865 198.345,262.797 197.484,263.933 196.308 C 267.028 193.108,267.733 192.309,267.733 192.008 C 267.733 191.857,267.860 191.733,268.016 191.733 C 268.171 191.733,268.229 191.622,268.145 191.485 C 268.060 191.349,268.263 190.938,268.596 190.573 C 269.838 189.208,270.133 188.782,270.133 188.353 C 270.133 188.110,270.209 187.987,270.302 188.080 C 270.498 188.276,271.467 187.122,271.467 186.691 C 271.467 186.531,271.587 186.400,271.733 186.400 C 271.880 186.400,272.000 186.220,272.000 186.000 C 272.000 185.780,272.107 185.600,272.238 185.600 C 272.368 185.600,272.656 185.150,272.876 184.600 C 273.096 184.050,273.529 183.371,273.838 183.092 C 274.147 182.813,274.400 182.423,274.400 182.225 C 274.400 182.028,274.520 181.867,274.667 181.867 C 274.813 181.867,274.935 181.477,274.937 181.000 C 274.941 180.342,275.004 180.230,275.200 180.533 C 275.473 180.956,275.596 180.638,275.486 179.796 C 275.461 179.610,275.597 179.490,275.787 179.529 C 275.978 179.568,276.102 179.447,276.064 179.259 C 276.026 179.072,276.176 178.849,276.398 178.764 C 276.619 178.679,276.800 178.330,276.800 177.987 C 276.800 177.645,276.922 177.289,277.071 177.197 C 277.220 177.105,277.281 176.931,277.206 176.810 C 277.131 176.688,277.257 176.517,277.485 176.430 C 277.714 176.342,277.826 176.150,277.734 176.002 C 277.643 175.854,277.682 175.733,277.820 175.733 C 278.050 175.733,278.434 174.910,278.504 174.267 C 278.520 174.120,278.690 173.900,278.881 173.778 C 279.140 173.614,279.153 173.465,278.934 173.201 C 278.706 172.927,278.769 172.804,279.205 172.665 C 279.537 172.560,279.714 172.335,279.633 172.123 C 279.556 171.924,279.676 171.396,279.898 170.950 C 280.120 170.505,280.227 170.018,280.134 169.868 C 280.042 169.719,280.140 169.530,280.352 169.448 C 280.564 169.367,280.813 168.828,280.905 168.250 C 280.999 167.664,281.223 167.200,281.413 167.200 C 281.605 167.200,281.782 166.826,281.818 166.344 C 281.854 165.873,282.004 165.413,282.151 165.322 C 282.298 165.232,282.341 164.957,282.247 164.712 C 282.130 164.406,282.215 164.267,282.521 164.267 C 282.765 164.267,282.894 164.152,282.807 164.012 C 282.721 163.872,282.832 163.321,283.055 162.788 C 283.346 162.091,283.384 161.677,283.190 161.315 C 282.977 160.917,283.002 160.843,283.309 160.961 C 283.613 161.078,283.678 160.903,283.608 160.155 C 283.560 159.630,283.628 159.200,283.760 159.200 C 283.892 159.200,284.000 159.020,284.000 158.800 C 284.000 158.580,284.120 158.400,284.267 158.400 C 284.413 158.400,284.533 158.273,284.533 158.118 C 284.533 157.962,284.413 157.909,284.267 158.000 C 283.869 158.246,283.944 157.712,284.355 157.371 C 284.560 157.201,284.700 156.577,284.688 155.894 C 284.676 155.243,284.773 154.731,284.903 154.755 C 285.033 154.780,285.173 154.409,285.216 153.930 C 285.258 153.448,285.182 153.128,285.046 153.213 C 284.911 153.296,284.800 153.112,284.800 152.804 C 284.800 152.429,284.946 152.269,285.239 152.322 C 285.742 152.411,286.063 151.086,285.606 150.804 C 285.167 150.532,285.287 149.600,285.762 149.600 C 286.040 149.600,286.135 149.454,286.032 149.186 C 285.943 148.955,285.986 148.842,286.130 148.931 C 286.283 149.026,286.380 148.520,286.371 147.678 C 286.346 145.483,286.343 128.015,286.368 126.644 C 286.383 125.773,286.238 125.260,285.861 124.856 C 285.571 124.544,285.342 124.074,285.352 123.811 C 285.369 123.388,285.399 123.394,285.614 123.867 C 285.811 124.297,285.848 124.220,285.808 123.467 C 285.781 122.953,285.543 122.215,285.279 121.826 C 285.016 121.436,284.808 120.956,284.819 120.759 C 284.829 120.561,284.941 120.640,285.067 120.933 C 285.271 121.410,285.298 121.390,285.315 120.749 C 285.325 120.354,285.213 119.957,285.067 119.867 C 284.920 119.776,284.800 119.236,284.800 118.667 C 284.800 118.097,284.670 117.551,284.510 117.452 C 284.351 117.354,284.286 117.023,284.366 116.717 C 284.446 116.411,284.397 116.024,284.258 115.856 C 284.119 115.688,283.965 115.202,283.917 114.776 C 283.869 114.349,283.683 113.729,283.504 113.397 C 283.325 113.065,283.202 112.645,283.231 112.464 C 283.260 112.282,283.224 111.953,283.151 111.733 C 282.446 109.618,282.133 108.532,282.133 108.197 C 282.133 107.978,281.960 107.655,281.749 107.480 C 281.538 107.304,281.435 106.978,281.521 106.754 C 281.607 106.530,281.570 106.268,281.439 106.173 C 281.030 105.877,280.533 104.833,280.533 104.270 C 280.533 103.975,280.406 103.733,280.251 103.733 C 280.096 103.733,280.034 103.627,280.115 103.497 C 280.195 103.367,280.083 103.113,279.867 102.933 C 279.650 102.753,279.540 102.497,279.623 102.364 C 279.799 102.078,279.162 100.533,278.868 100.533 C 278.757 100.533,278.667 100.352,278.667 100.130 C 278.667 99.665,278.125 98.625,277.733 98.337 C 277.587 98.230,277.565 98.140,277.686 98.137 C 277.806 98.135,277.716 97.945,277.486 97.715 C 277.256 97.484,276.990 96.987,276.895 96.609 C 276.800 96.232,276.503 95.703,276.234 95.434 C 275.965 95.165,275.806 94.788,275.879 94.597 C 275.953 94.405,275.770 93.987,275.473 93.668 C 275.176 93.350,274.933 92.959,274.933 92.800 C 274.933 92.641,274.699 92.260,274.413 91.953 C 274.127 91.646,273.702 90.991,273.467 90.497 C 273.233 90.004,272.927 89.600,272.787 89.600 C 272.648 89.600,272.533 89.353,272.533 89.051 C 272.533 88.749,272.426 88.568,272.295 88.649 C 272.066 88.790,271.609 88.066,271.685 87.684 C 271.705 87.583,271.364 87.164,270.928 86.751 C 270.491 86.339,270.133 85.880,270.133 85.731 C 270.133 85.583,269.833 85.138,269.467 84.742 C 269.100 84.347,268.800 83.915,268.800 83.784 C 268.800 83.652,268.417 83.227,267.949 82.839 C 267.480 82.451,267.179 82.133,267.279 82.133 C 267.379 82.133,267.253 81.883,266.997 81.578 C 266.055 80.448,265.721 80.026,265.200 79.303 C 264.443 78.251,255.748 69.600,255.448 69.600 C 254.816 69.600,255.323 70.536,256.574 71.678 C 259.330 74.196,264.278 79.450,264.505 80.099 C 264.563 80.264,265.013 80.796,265.505 81.280 C 265.997 81.763,266.400 82.278,266.400 82.424 C 266.400 82.570,266.700 83.013,267.067 83.409 C 267.433 83.804,267.733 84.235,267.733 84.366 C 267.733 84.497,267.943 84.800,268.200 85.039 C 268.723 85.527,269.215 86.259,269.578 87.092 C 269.712 87.399,269.982 87.821,270.178 88.030 C 270.494 88.368,270.926 89.084,271.847 90.800 C 272.004 91.093,272.196 91.393,272.273 91.467 C 272.350 91.540,272.719 92.200,273.094 92.933 C 273.469 93.667,273.908 94.507,274.070 94.800 C 274.478 95.541,276.052 98.987,276.932 101.067 C 277.335 102.020,277.770 103.008,277.899 103.263 C 278.028 103.518,278.133 103.961,278.133 104.247 C 278.133 104.534,278.239 104.834,278.368 104.914 C 278.497 104.993,278.668 105.331,278.748 105.663 C 278.828 105.995,279.206 107.287,279.587 108.533 C 294.545 157.430,262.253 208.207,211.502 215.593 C 178.511 220.395,145.518 204.604,128.293 175.770 C 124.411 169.272,122.184 164.005,119.201 154.267 C 118.957 153.470,117.941 148.370,117.369 145.067 C 116.327 139.056,116.304 126.584,117.324 121.200 C 117.463 120.467,117.711 119.087,117.874 118.133 C 118.239 116.013,118.874 112.946,119.173 111.867 C 120.626 106.621,122.845 100.345,123.505 99.613 C 123.630 99.474,123.733 99.084,123.733 98.747 C 123.733 98.409,123.853 98.133,124.000 98.133 C 124.147 98.133,124.267 98.017,124.267 97.874 C 124.267 97.183,129.179 87.975,129.653 87.778 C 129.771 87.729,129.867 87.563,129.867 87.410 C 129.867 87.076,131.718 84.439,132.041 84.311 C 132.165 84.262,132.267 84.107,132.267 83.966 C 132.267 83.825,132.567 83.387,132.933 82.991 C 133.300 82.596,133.600 82.165,133.600 82.034 C 133.600 81.903,133.816 81.602,134.080 81.365 C 134.345 81.127,134.910 80.453,135.337 79.867 C 136.209 78.668,145.089 69.612,145.399 69.605 C 145.509 69.602,146.044 69.180,146.588 68.667 L 147.578 67.733 146.871 67.733 C 146.467 67.733,146.004 67.961,145.791 68.265 M163.226 91.726 C 149.058 95.774,143.661 112.566,152.920 123.792 C 164.879 138.290,188.231 129.790,188.262 110.928 C 188.283 98.097,175.431 88.239,163.226 91.726 M227.467 91.897 C 225.589 92.624,219.539 94.245,217.600 94.540 C 216.035 94.779,215.085 95.379,213.297 97.259 C 204.017 107.010,206.710 122.874,218.667 128.890 C 235.782 137.503,254.052 119.417,245.584 102.245 C 241.941 94.857,233.005 89.753,227.467 91.897 M170.861 104.408 C 177.821 107.316,175.882 118.128,168.400 118.128 C 162.664 118.128,159.561 111.451,163.059 106.635 C 164.741 104.320,168.252 103.318,170.861 104.408 M230.609 104.642 C 237.099 107.954,234.930 118.133,227.733 118.133 C 220.442 118.133,218.326 107.849,224.940 104.550 C 226.497 103.773,228.986 103.814,230.609 104.642 M189.800 223.384 C 189.543 223.451,189.123 223.451,188.867 223.384 C 188.610 223.317,188.820 223.262,189.333 223.262 C 189.847 223.262,190.057 223.317,189.800 223.384 " stroke="none" fill="#e0c5c0" fill-rule="evenodd"></path><path id="path1" d="M190.458 49.607 C 190.187 50.040,190.197 50.133,190.515 50.133 C 191.013 50.133,191.330 49.623,191.023 49.317 C 190.885 49.179,190.649 49.300,190.458 49.607 M208.433 49.280 C 208.168 49.709,208.460 50.134,209.016 50.129 C 209.297 50.127,209.356 50.051,209.173 49.929 C 209.012 49.821,208.824 49.559,208.755 49.346 C 208.663 49.060,208.579 49.043,208.433 49.280 M195.000 49.524 C 195.403 49.585,196.063 49.585,196.467 49.524 C 196.870 49.463,196.540 49.413,195.733 49.413 C 194.927 49.413,194.597 49.463,195.000 49.524 M203.403 49.522 C 203.735 49.586,204.215 49.583,204.470 49.517 C 204.725 49.450,204.453 49.398,203.867 49.401 C 203.280 49.404,203.071 49.458,203.403 49.522 M185.600 50.400 C 185.600 50.547,185.870 50.665,186.200 50.663 C 186.685 50.659,186.723 50.609,186.400 50.400 C 185.883 50.066,185.600 50.066,185.600 50.400 M173.536 52.686 C 173.445 52.778,173.431 53.010,173.505 53.203 C 173.579 53.396,173.480 53.606,173.286 53.671 C 173.092 53.736,173.233 53.737,173.599 53.673 C 174.492 53.517,174.574 53.393,174.102 52.921 C 173.882 52.701,173.627 52.595,173.536 52.686 M224.191 52.879 C 224.116 53.074,224.259 53.239,224.518 53.259 C 224.771 53.278,224.978 53.122,224.978 52.913 C 224.978 52.439,224.370 52.412,224.191 52.879 M168.433 54.613 C 168.360 54.731,168.533 54.972,168.817 55.149 C 169.129 55.344,169.333 55.365,169.333 55.202 C 169.333 55.054,169.206 54.933,169.051 54.933 C 168.896 54.933,168.843 54.813,168.933 54.667 C 169.024 54.520,168.978 54.400,168.831 54.400 C 168.685 54.400,168.505 54.496,168.433 54.613 M230.489 54.793 C 230.489 55.017,230.659 55.200,230.867 55.200 C 231.074 55.200,231.197 55.057,231.139 54.883 C 230.978 54.400,230.489 54.332,230.489 54.793 M167.385 55.104 C 167.138 55.351,167.435 55.733,167.874 55.733 C 168.099 55.733,168.188 55.572,168.096 55.333 C 167.934 54.909,167.666 54.823,167.385 55.104 M231.867 55.467 L 231.067 55.670 231.784 55.702 C 232.179 55.719,232.576 55.613,232.667 55.467 C 232.757 55.320,232.794 55.214,232.749 55.232 C 232.704 55.249,232.307 55.355,231.867 55.467 M166.133 56.095 C 166.133 56.312,165.983 56.549,165.800 56.623 C 165.591 56.708,165.578 56.766,165.767 56.779 C 166.230 56.811,166.750 56.083,166.413 55.875 C 166.259 55.780,166.133 55.879,166.133 56.095 M233.791 56.261 C 233.701 56.605,233.780 56.800,234.009 56.800 C 234.549 56.800,234.709 56.367,234.296 56.025 C 234.011 55.788,233.901 55.840,233.791 56.261 M164.177 56.467 C 164.028 56.713,164.688 57.357,164.887 57.158 C 165.082 56.962,164.796 56.267,164.521 56.267 C 164.398 56.267,164.244 56.357,164.177 56.467 M160.885 58.073 C 160.374 58.478,160.352 58.577,160.703 58.894 C 161.045 59.202,161.090 59.184,161.018 58.767 C 160.969 58.483,161.100 58.266,161.333 58.247 C 162.298 58.169,162.422 58.118,162.267 57.867 C 162.026 57.478,161.546 57.549,160.885 58.073 M240.531 59.603 C 240.263 59.926,240.279 60.000,240.618 60.000 C 241.116 60.000,241.442 59.565,241.101 59.355 C 240.969 59.273,240.712 59.385,240.531 59.603 M157.244 60.178 C 156.998 60.424,157.021 61.067,157.277 61.067 C 157.392 61.067,157.505 60.827,157.527 60.533 C 157.570 59.960,157.522 59.900,157.244 60.178 M154.667 61.838 C 154.667 62.259,155.417 62.380,155.570 61.983 C 155.667 61.730,155.538 61.600,155.192 61.600 C 154.903 61.600,154.667 61.707,154.667 61.838 M244.000 61.867 C 244.000 62.013,244.240 62.133,244.533 62.133 C 244.827 62.133,245.067 62.013,245.067 61.867 C 245.067 61.720,244.827 61.600,244.533 61.600 C 244.240 61.600,244.000 61.720,244.000 61.867 M153.252 62.571 C 153.039 62.784,153.279 63.200,153.616 63.200 C 153.754 63.200,153.867 63.020,153.867 62.800 C 153.867 62.388,153.552 62.270,153.252 62.571 M151.733 63.733 C 151.733 63.880,151.980 64.000,152.282 64.000 C 152.584 64.000,152.757 63.880,152.667 63.733 C 152.576 63.587,152.329 63.467,152.118 63.467 C 151.906 63.467,151.733 63.587,151.733 63.733 M143.506 70.028 C 143.308 70.252,143.235 70.517,143.343 70.618 C 143.451 70.718,143.593 70.650,143.659 70.467 C 143.724 70.283,143.948 70.133,144.156 70.133 C 144.363 70.133,144.533 70.013,144.533 69.867 C 144.533 69.467,143.916 69.564,143.506 70.028 M167.509 80.673 C 162.666 81.853,162.205 84.261,166.667 85.064 C 167.620 85.236,169.300 85.655,170.400 85.996 C 171.500 86.337,172.940 86.768,173.600 86.956 C 174.260 87.143,174.920 87.375,175.067 87.471 C 175.213 87.567,176.173 87.992,177.200 88.414 C 179.485 89.354,181.453 90.384,183.733 91.832 C 185.706 93.086,185.678 93.065,187.965 94.979 C 190.422 97.035,190.579 97.130,191.185 96.938 C 192.526 96.512,191.595 93.422,189.112 90.062 C 184.689 84.074,173.502 79.212,167.509 80.673 M234.462 82.133 C 230.349 84.641,224.190 86.922,219.333 87.736 C 216.764 88.167,210.418 88.788,208.520 88.794 C 205.206 88.805,205.479 90.974,209.011 92.683 C 209.848 93.088,210.742 93.520,210.996 93.643 C 211.251 93.766,211.701 93.867,211.996 93.867 C 212.810 93.867,212.631 94.420,211.435 95.600 C 204.070 102.866,203.244 116.207,209.653 124.382 C 224.938 143.877,255.281 129.012,249.180 105.018 C 247.399 98.015,240.097 90.637,233.779 89.457 C 232.307 89.182,232.305 88.717,233.772 87.187 C 236.354 84.495,237.196 82.707,236.207 82.015 C 235.468 81.497,235.510 81.494,234.462 82.133 M164.400 88.938 C 155.454 90.600,148.989 96.763,146.361 106.133 C 145.641 108.703,145.965 115.322,146.929 117.733 C 147.047 118.027,147.401 118.924,147.716 119.728 C 153.723 135.057,174.817 138.106,185.527 125.193 C 198.665 109.352,184.584 85.188,164.400 88.938 M172.821 91.581 C 185.111 94.186,191.894 108.423,186.287 119.845 C 178.970 134.749,157.723 134.775,150.421 119.889 C 143.028 104.815,156.275 88.074,172.821 91.581 M232.594 91.715 C 249.760 96.105,253.119 119.359,237.873 128.263 C 221.546 137.798,202.107 121.325,209.062 103.848 C 210.969 99.055,214.706 94.981,217.600 94.540 C 219.539 94.245,225.589 92.624,227.467 91.897 C 229.581 91.078,230.042 91.062,232.594 91.715 M124.422 93.238 C 124.168 93.900,124.448 93.991,124.788 93.356 C 124.952 93.050,124.974 92.800,124.838 92.800 C 124.702 92.800,124.515 92.997,124.422 93.238 M165.363 104.702 C 160.493 107.129,160.349 114.582,165.119 117.317 C 169.936 120.080,175.640 116.109,175.123 110.352 C 174.678 105.395,169.725 102.528,165.363 104.702 M224.940 104.550 C 218.326 107.849,220.442 118.133,227.733 118.133 C 234.930 118.133,237.099 107.954,230.609 104.642 C 228.986 103.814,226.497 103.773,224.940 104.550 M114.808 118.745 C 114.694 119.008,114.676 119.298,114.767 119.389 C 115.038 119.660,115.256 119.280,115.132 118.754 C 115.021 118.288,115.007 118.288,114.808 118.745 M113.387 127.928 C 113.398 128.187,113.321 128.760,113.214 129.200 L 113.020 130.000 113.444 129.236 C 113.924 128.369,113.981 127.835,113.616 127.610 C 113.478 127.525,113.375 127.668,113.387 127.928 M286.570 132.704 C 286.337 134.400,286.392 140.398,286.653 141.867 C 286.794 142.658,286.878 141.091,286.900 137.267 C 286.934 131.362,286.872 130.501,286.570 132.704 M113.147 134.133 C 113.147 134.940,113.197 135.270,113.258 134.867 C 113.319 134.463,113.319 133.803,113.258 133.400 C 113.197 132.997,113.147 133.327,113.147 134.133 M113.129 140.533 C 113.129 141.047,113.183 141.257,113.250 141.000 C 113.318 140.743,113.318 140.323,113.250 140.067 C 113.183 139.810,113.129 140.020,113.129 140.533 M240.246 158.954 C 239.941 159.259,239.744 159.649,239.808 159.821 C 241.036 163.123,240.601 163.567,236.746 162.941 C 233.366 162.392,231.047 163.143,229.600 165.255 C 226.634 169.583,224.012 169.567,220.698 165.200 C 215.069 157.785,209.262 158.998,206.023 168.267 C 204.576 172.407,201.173 172.740,196.496 169.198 C 188.540 163.174,183.076 165.295,181.719 174.933 C 180.902 180.740,178.847 181.477,174.423 177.549 C 171.566 175.012,168.027 175.228,166.221 178.050 C 165.143 179.734,164.308 179.680,163.772 177.892 C 163.260 176.183,161.671 175.405,161.052 176.560 C 160.708 177.204,160.805 178.644,161.411 181.867 C 161.902 184.482,162.400 188.325,162.400 189.506 C 162.400 190.515,163.209 191.318,163.981 191.073 C 164.492 190.911,164.534 190.693,164.537 188.182 C 164.543 184.162,165.897 181.245,168.460 179.733 C 170.206 178.703,171.289 178.980,173.938 181.134 C 178.741 185.040,182.036 184.887,184.016 180.667 C 184.664 179.285,185.331 176.678,185.343 175.477 C 185.411 168.734,189.167 167.306,194.364 172.046 C 200.969 178.072,206.309 176.795,209.607 168.400 C 211.979 162.365,214.551 161.980,217.602 167.204 C 220.974 172.977,226.065 172.897,232.511 166.970 C 234.401 165.233,235.361 164.989,238.388 165.479 C 242.301 166.112,242.786 166.432,244.222 169.333 C 246.184 173.298,249.436 172.999,248.105 168.976 C 247.657 167.623,244.774 161.901,243.542 159.923 C 242.594 158.399,241.208 157.992,240.246 158.954 M184.274 177.133 C 183.906 179.511,182.898 181.430,181.725 181.986 C 179.566 183.011,178.376 181.926,180.278 180.667 C 181.064 180.146,182.661 177.406,182.673 176.557 C 182.676 176.324,182.925 175.593,183.226 174.933 L 183.774 173.733 184.172 174.484 C 184.502 175.109,184.519 175.555,184.274 177.133 M164.429 180.954 C 164.616 181.698,164.151 182.818,163.563 183.044 C 162.997 183.261,162.995 180.833,163.561 180.471 C 164.075 180.141,164.249 180.238,164.429 180.954 M213.133 223.117 C 213.390 223.184,213.810 223.184,214.067 223.117 C 214.323 223.050,214.113 222.995,213.600 222.995 C 213.087 222.995,212.877 223.050,213.133 223.117 M188.867 223.384 C 189.123 223.451,189.543 223.451,189.800 223.384 C 190.057 223.317,189.847 223.262,189.333 223.262 C 188.820 223.262,188.610 223.317,188.867 223.384 M208.867 223.650 C 209.123 223.718,209.543 223.718,209.800 223.650 C 210.057 223.583,209.847 223.529,209.333 223.529 C 208.820 223.529,208.610 223.583,208.867 223.650 " stroke="none" fill="#58432c" fill-rule="evenodd"></path><path id="path2" d="M188.980 49.775 C 188.884 49.872,188.938 50.112,189.102 50.309 C 189.345 50.602,189.022 50.676,187.299 50.716 C 183.142 50.815,182.850 50.850,183.081 51.223 C 183.201 51.417,182.927 51.484,182.251 51.426 C 181.619 51.371,181.202 51.462,181.132 51.669 C 181.070 51.857,180.572 52.000,179.978 52.000 C 179.403 52.000,178.933 52.105,178.933 52.232 C 178.933 52.360,178.213 52.546,177.333 52.645 C 176.453 52.745,175.733 52.941,175.733 53.080 C 175.733 53.219,175.440 53.333,175.082 53.333 C 174.724 53.333,174.357 53.453,174.267 53.600 C 174.176 53.747,173.809 53.867,173.451 53.867 C 173.093 53.867,172.800 53.987,172.800 54.133 C 172.800 54.280,172.440 54.400,172.000 54.400 C 171.560 54.400,171.200 54.520,171.200 54.667 C 171.200 54.813,170.923 54.933,170.584 54.933 C 170.246 54.933,169.736 55.110,169.451 55.325 C 169.166 55.540,168.603 55.720,168.200 55.725 C 167.797 55.730,167.467 55.853,167.467 56.000 C 167.467 56.147,167.227 56.267,166.933 56.267 C 166.640 56.267,166.400 56.373,166.400 56.502 C 166.400 56.730,165.767 56.999,164.676 57.234 C 164.387 57.297,163.881 57.524,163.552 57.740 C 163.222 57.957,162.701 58.133,162.394 58.133 C 162.086 58.133,161.909 58.253,162.000 58.400 C 162.091 58.547,161.978 58.667,161.749 58.667 C 161.520 58.667,161.333 58.540,161.333 58.384 C 161.333 58.229,161.219 58.173,161.078 58.259 C 160.938 58.346,160.887 58.582,160.964 58.783 C 161.057 59.026,160.828 59.210,160.283 59.330 C 159.832 59.429,159.530 59.620,159.613 59.755 C 159.697 59.890,159.588 60.000,159.371 60.000 C 159.155 60.000,158.938 60.119,158.889 60.264 C 158.840 60.410,158.476 60.555,158.079 60.588 C 157.683 60.621,157.409 60.698,157.470 60.759 C 157.642 60.931,156.362 61.867,155.955 61.867 C 155.757 61.867,155.441 62.113,155.253 62.414 C 155.007 62.809,154.753 62.912,154.348 62.784 C 153.905 62.643,153.821 62.696,153.950 63.033 C 154.067 63.337,153.921 63.510,153.451 63.628 C 153.086 63.719,152.640 63.998,152.460 64.247 C 151.934 64.975,151.434 65.173,151.145 64.767 C 150.935 64.473,150.910 64.484,151.017 64.825 C 151.095 65.070,150.916 65.410,150.596 65.625 C 150.291 65.831,149.597 66.390,149.055 66.867 C 148.512 67.343,147.949 67.733,147.802 67.733 C 147.655 67.733,147.189 68.125,146.767 68.603 C 146.345 69.082,145.534 69.820,144.965 70.244 C 143.821 71.095,137.321 77.610,136.267 78.961 C 135.900 79.431,135.240 80.246,134.800 80.772 C 134.360 81.298,133.909 81.849,133.797 81.998 C 133.685 82.146,133.245 82.721,132.819 83.275 C 132.393 83.830,131.648 84.910,131.164 85.675 C 130.680 86.441,130.202 87.127,130.102 87.200 C 128.724 88.206,122.575 101.367,120.634 107.465 C 117.921 115.985,116.718 123.846,116.716 133.067 C 116.714 140.393,117.142 144.190,118.852 152.000 C 129.298 199.721,180.567 227.836,227.491 211.576 C 233.784 209.396,239.931 206.347,245.600 202.595 C 262.966 191.100,275.632 173.101,280.642 152.800 C 281.260 150.296,281.545 148.728,282.412 143.067 C 282.844 140.250,283.036 128.392,282.700 125.333 C 281.535 114.734,278.533 104.154,274.367 95.969 C 273.799 94.852,273.333 93.860,273.333 93.764 C 273.333 93.668,273.027 93.104,272.652 92.511 C 272.025 91.517,271.290 90.264,270.555 88.933 C 270.069 88.054,267.687 84.452,267.090 83.693 C 266.784 83.304,266.268 82.644,265.945 82.226 C 265.621 81.808,265.051 81.118,264.678 80.692 C 264.305 80.266,264.000 79.818,264.000 79.697 C 264.000 79.577,263.340 78.828,262.533 78.035 C 261.727 77.241,261.067 76.498,261.067 76.385 C 261.067 76.080,255.564 70.858,253.449 69.156 C 252.872 68.693,252.135 68.063,251.811 67.756 C 251.487 67.450,251.104 67.200,250.960 67.200 C 250.815 67.200,250.540 66.988,250.348 66.729 C 250.157 66.469,249.643 66.029,249.207 65.750 C 248.771 65.471,248.291 65.141,248.140 65.018 C 247.444 64.445,245.814 63.467,245.556 63.467 C 245.381 63.467,245.412 63.289,245.634 63.015 C 245.871 62.723,245.885 62.634,245.672 62.761 C 245.133 63.085,243.744 62.194,243.410 61.309 C 243.295 61.007,243.013 60.920,242.425 61.006 C 241.924 61.080,241.600 61.010,241.600 60.830 C 241.600 60.667,241.400 60.533,241.156 60.533 C 240.911 60.533,240.793 60.451,240.893 60.351 C 241.084 60.161,239.313 59.225,238.733 59.209 C 238.550 59.204,238.400 59.080,238.400 58.933 C 238.400 58.787,238.190 58.663,237.933 58.658 C 237.348 58.648,236.533 58.045,236.533 57.622 C 236.533 57.446,236.413 57.376,236.267 57.467 C 236.120 57.557,236.000 57.490,236.000 57.316 C 236.000 57.080,235.909 57.077,235.635 57.304 C 235.358 57.534,235.191 57.510,234.936 57.203 C 234.752 56.981,234.256 56.800,233.834 56.800 C 233.412 56.800,233.067 56.680,233.067 56.533 C 233.067 56.387,232.880 56.267,232.651 56.267 C 232.422 56.267,232.309 56.147,232.400 56.000 C 232.493 55.849,232.275 55.733,231.898 55.733 C 231.531 55.733,231.166 55.627,231.086 55.497 C 231.005 55.368,230.408 55.182,229.758 55.084 C 229.109 54.987,228.443 54.745,228.279 54.548 C 228.115 54.350,227.758 54.246,227.487 54.317 C 227.216 54.388,226.913 54.316,226.814 54.157 C 226.716 53.997,226.342 53.867,225.984 53.867 C 225.621 53.867,225.333 53.710,225.333 53.513 C 225.333 53.271,225.079 53.196,224.533 53.276 C 224.077 53.343,223.733 53.273,223.733 53.113 C 223.733 52.959,223.163 52.759,222.467 52.669 C 221.770 52.580,220.992 52.392,220.737 52.253 C 220.482 52.114,219.856 52.000,219.345 52.000 C 218.643 52.000,218.453 51.906,218.565 51.613 C 218.684 51.303,218.523 51.257,217.759 51.381 C 217.167 51.477,216.650 51.408,216.399 51.199 C 216.161 51.002,214.970 50.818,213.530 50.756 C 212.039 50.692,210.961 50.521,210.800 50.325 C 210.612 50.096,209.648 50.022,207.533 50.075 C 205.599 50.124,204.533 50.053,204.533 49.875 C 204.533 49.696,202.810 49.600,199.584 49.600 C 196.353 49.600,194.692 49.693,194.800 49.867 C 194.906 50.038,193.909 50.133,192.000 50.133 C 190.091 50.133,189.094 50.038,189.200 49.867 C 189.386 49.566,189.247 49.509,188.980 49.775 M204.989 60.794 C 207.367 60.927,210.067 61.170,210.989 61.334 C 215.926 62.212,217.446 62.535,220.000 63.245 C 231.717 66.506,241.194 71.994,249.147 80.124 C 251.794 82.830,257.600 90.374,257.600 91.108 C 257.600 91.186,257.840 91.554,258.133 91.927 C 258.427 92.300,258.667 92.829,258.667 93.103 C 258.667 93.376,258.758 93.600,258.870 93.600 C 259.073 93.600,259.553 94.385,259.884 95.258 C 259.979 95.510,260.302 95.793,260.601 95.888 C 260.899 95.983,261.494 96.419,261.922 96.857 C 262.436 97.382,262.876 97.607,263.217 97.518 C 263.501 97.444,263.733 97.511,263.733 97.666 C 263.733 98.157,265.076 99.733,265.493 99.733 C 265.935 99.733,267.178 101.027,267.192 101.501 C 267.196 101.666,267.393 101.961,267.628 102.156 C 267.863 102.352,268.163 102.756,268.294 103.056 C 268.561 103.665,269.123 104.597,269.347 104.800 C 269.979 105.373,274.196 114.617,273.982 114.962 C 273.901 115.093,273.940 115.200,274.069 115.200 C 274.688 115.200,276.477 122.700,277.314 128.800 C 278.084 134.414,277.534 146.263,276.300 150.667 C 276.156 151.180,275.834 152.440,275.584 153.467 C 273.385 162.514,266.202 177.493,262.421 180.914 C 262.116 181.190,261.865 181.547,261.863 181.708 C 261.849 182.714,251.521 193.053,248.069 195.517 C 243.890 198.499,241.993 199.777,240.148 200.854 C 237.599 202.343,232.197 205.038,230.133 205.851 C 229.327 206.169,228.427 206.533,228.133 206.660 C 215.642 212.070,198.615 213.314,182.667 209.983 C 179.852 209.395,178.976 209.173,175.867 208.259 C 170.390 206.649,161.800 202.483,156.161 198.703 C 152.195 196.044,152.003 195.904,150.133 194.296 C 149.180 193.476,147.620 192.160,146.667 191.371 C 144.307 189.420,136.917 181.241,136.559 180.185 C 136.499 180.010,136.049 179.374,135.559 178.773 C 135.068 178.171,134.667 177.593,134.667 177.488 C 134.667 177.383,134.368 176.906,134.002 176.426 C 128.872 169.701,124.233 156.932,122.366 144.400 C 121.766 140.376,122.003 129.606,122.784 125.333 C 123.797 119.794,125.033 115.283,125.784 114.379 C 125.976 114.147,126.133 113.806,126.133 113.619 C 126.133 113.264,126.406 112.611,127.922 109.333 C 128.431 108.233,128.985 107.033,129.152 106.667 C 129.320 106.300,129.833 105.520,130.293 104.933 C 130.752 104.347,131.175 103.734,131.231 103.572 C 131.552 102.646,133.307 100.243,133.933 99.872 C 134.337 99.632,134.667 99.283,134.667 99.094 C 134.667 98.906,134.970 98.614,135.341 98.445 C 135.712 98.276,136.084 97.957,136.169 97.736 C 136.254 97.514,136.555 97.333,136.837 97.333 C 137.119 97.333,137.419 97.153,137.504 96.933 C 137.716 96.380,138.177 96.430,138.119 97.000 C 138.038 97.796,138.120 97.918,138.488 97.550 C 138.684 97.354,138.933 96.837,139.043 96.400 C 139.153 95.963,139.383 95.519,139.554 95.412 C 139.726 95.306,139.872 95.125,139.878 95.010 C 139.901 94.583,140.763 93.183,141.306 92.691 C 141.614 92.412,141.867 92.028,141.867 91.837 C 141.867 91.647,142.151 91.206,142.499 90.858 C 142.847 90.510,143.256 89.995,143.408 89.713 C 144.024 88.570,146.571 85.311,148.842 82.760 C 158.440 71.984,172.176 64.325,186.307 61.871 C 187.958 61.584,189.608 61.275,189.972 61.183 C 190.634 61.017,196.423 60.641,199.200 60.583 C 200.007 60.566,202.612 60.661,204.989 60.794 M163.231 83.367 C 163.214 83.679,163.410 84.099,163.667 84.301 C 164.073 84.619,164.094 84.615,163.829 84.267 C 163.661 84.047,163.465 83.627,163.393 83.333 C 163.268 82.827,163.260 82.828,163.231 83.367 M234.119 86.867 L 233.200 87.867 234.200 86.948 C 235.131 86.092,235.323 85.867,235.119 85.867 C 235.074 85.867,234.624 86.317,234.119 86.867 M172.289 86.762 C 172.350 86.815,172.760 86.939,173.200 87.037 C 173.784 87.168,173.892 87.143,173.600 86.946 C 173.240 86.702,172.021 86.532,172.289 86.762 M187.456 88.067 C 188.109 88.763,188.679 89.333,188.722 89.333 C 188.922 89.333,188.711 89.094,187.533 87.989 L 186.267 86.800 187.456 88.067 M216.667 88.000 C 215.987 88.292,216.688 88.292,217.600 88.000 C 218.136 87.828,218.162 87.785,217.733 87.779 C 217.440 87.774,216.960 87.874,216.667 88.000 M213.003 88.455 C 213.335 88.519,213.815 88.517,214.070 88.450 C 214.325 88.383,214.053 88.331,213.467 88.334 C 212.880 88.337,212.671 88.391,213.003 88.455 M207.933 88.729 C 208.557 88.785,209.577 88.785,210.200 88.729 C 210.823 88.672,210.313 88.627,209.067 88.627 C 207.820 88.627,207.310 88.672,207.933 88.729 M206.187 89.120 C 205.669 89.637,205.813 90.227,206.695 91.210 L 207.524 92.133 206.829 91.151 C 206.060 90.066,205.974 89.599,206.453 89.120 C 206.629 88.944,206.713 88.800,206.640 88.800 C 206.567 88.800,206.363 88.944,206.187 89.120 M189.399 90.400 C 189.762 90.913,190.429 92.053,190.883 92.933 C 191.336 93.813,191.713 94.440,191.721 94.326 C 191.746 93.910,190.146 91.046,189.453 90.267 L 188.741 89.467 189.399 90.400 M180.933 90.327 C 181.080 90.465,181.800 90.906,182.533 91.306 C 183.267 91.706,183.627 91.837,183.333 91.596 C 182.737 91.106,180.515 89.932,180.933 90.327 M184.000 92.128 C 184.000 92.184,184.360 92.487,184.800 92.800 C 185.240 93.113,185.599 93.271,185.598 93.151 C 185.597 93.032,185.237 92.729,184.798 92.479 C 184.359 92.229,184.000 92.071,184.000 92.128 M207.993 92.391 C 208.359 92.832,210.935 93.954,211.131 93.758 C 211.211 93.678,211.049 93.545,210.772 93.462 C 210.494 93.379,209.690 93.026,208.985 92.677 C 208.279 92.327,207.833 92.199,207.993 92.391 M186.800 94.263 C 188.739 96.033,190.442 97.333,190.824 97.333 C 191.359 97.333,192.270 96.353,192.250 95.800 C 192.238 95.470,192.156 95.527,191.970 95.992 C 191.389 97.447,190.803 97.393,188.882 95.707 C 186.965 94.025,185.193 92.796,186.800 94.263 M211.967 94.108 C 212.182 94.243,212.248 94.481,212.126 94.678 C 211.990 94.898,212.025 94.949,212.225 94.825 C 212.700 94.532,212.590 93.866,212.067 93.871 C 211.698 93.874,211.677 93.924,211.967 94.108 M210.783 96.067 L 210.000 96.933 210.867 96.150 C 211.343 95.719,211.733 95.329,211.733 95.283 C 211.733 95.077,211.513 95.259,210.783 96.067 M261.067 97.858 C 261.067 98.219,261.194 98.334,261.473 98.227 C 261.787 98.107,261.810 97.987,261.574 97.702 C 261.163 97.207,261.067 97.237,261.067 97.858 M206.033 104.144 C 205.941 104.382,205.877 104.777,205.890 105.022 C 205.902 105.266,206.018 105.113,206.147 104.680 C 206.399 103.838,206.310 103.422,206.033 104.144 M249.112 104.533 C 249.126 105.226,249.545 106.364,249.555 105.733 C 249.559 105.440,249.459 104.960,249.333 104.667 C 249.193 104.340,249.107 104.288,249.112 104.533 M190.039 105.600 C 190.250 106.750,190.401 106.967,190.396 106.111 C 190.394 105.757,190.274 105.287,190.130 105.067 C 189.945 104.785,189.918 104.943,190.039 105.600 M249.779 107.867 C 249.864 108.747,249.978 109.517,250.033 109.578 C 250.227 109.794,250.077 107.591,249.853 106.933 C 249.706 106.501,249.680 106.830,249.779 107.867 M205.395 107.467 C 205.395 107.980,205.450 108.190,205.517 107.933 C 205.584 107.677,205.584 107.257,205.517 107.000 C 205.450 106.743,205.395 106.953,205.395 107.467 M190.609 109.622 C 191.359 125.942,175.958 137.396,160.533 131.988 C 154.981 130.042,149.825 125.110,147.716 119.728 C 147.401 118.924,147.047 118.027,146.929 117.733 C 146.242 116.015,146.000 114.226,146.000 110.867 C 146.000 106.559,146.014 106.614,145.619 109.313 C 144.635 116.040,148.558 124.565,154.791 129.251 C 168.045 139.215,187.286 131.703,190.645 115.254 C 190.967 113.676,190.990 108.499,190.680 107.467 C 190.569 107.100,190.538 108.070,190.609 109.622 M204.827 111.089 C 204.841 111.663,204.951 112.433,205.072 112.800 C 205.207 113.214,205.234 112.861,205.141 111.867 C 204.969 110.014,204.788 109.566,204.827 111.089 M250.195 111.200 C 250.195 111.713,250.250 111.923,250.317 111.667 C 250.384 111.410,250.384 110.990,250.317 110.733 C 250.250 110.477,250.195 110.687,250.195 111.200 M249.787 113.777 C 246.641 138.654,210.701 140.032,205.734 115.467 C 205.446 114.043,205.379 113.910,205.358 114.720 C 205.256 118.770,209.320 125.671,213.733 128.940 C 214.320 129.375,214.860 129.804,214.933 129.894 C 216.214 131.467,223.961 133.867,227.755 133.867 C 238.900 133.866,251.028 122.570,250.087 113.067 C 250.012 112.307,249.956 112.439,249.787 113.777 M240.560 158.204 C 239.483 158.757,239.331 159.254,239.727 160.909 C 240.201 162.884,239.517 163.180,236.276 162.402 C 233.876 161.826,230.604 162.930,229.415 164.717 C 226.613 168.927,224.269 169.024,221.200 165.057 C 217.722 160.561,215.307 159.255,212.186 160.182 C 209.862 160.872,206.831 164.220,206.002 167.011 C 204.571 171.828,201.016 172.450,196.533 168.666 C 189.473 162.706,182.474 165.266,181.280 174.245 C 180.475 180.299,178.973 180.929,174.560 177.067 C 171.539 174.424,168.124 174.711,165.867 177.800 C 165.040 178.931,164.703 178.893,164.200 177.612 C 163.196 175.056,160.267 175.056,160.267 177.613 C 160.267 178.073,160.498 179.608,160.781 181.025 C 161.064 182.441,161.425 185.081,161.585 186.892 C 161.956 191.106,162.491 192.091,164.080 191.487 C 164.952 191.155,165.067 190.750,165.067 187.988 C 165.067 185.076,165.678 183.259,167.264 181.458 C 169.399 179.032,170.537 179.048,173.733 181.549 C 180.459 186.810,184.668 184.624,185.981 175.188 C 186.886 168.679,188.872 167.844,193.600 171.983 C 201.103 178.551,206.712 177.445,210.017 168.744 C 212.203 162.989,214.334 162.521,217.065 167.197 C 220.687 173.399,225.905 173.521,232.534 167.560 C 234.699 165.614,235.448 165.414,238.533 165.959 C 242.018 166.574,242.392 166.813,243.536 169.157 C 245.068 172.298,246.856 173.435,248.180 172.111 C 249.346 170.945,248.979 169.255,246.513 164.418 C 243.434 158.379,242.373 157.271,240.560 158.204 M242.239 158.656 C 243.031 158.957,243.570 159.782,245.910 164.267 C 248.288 168.825,248.683 170.059,248.160 171.310 C 247.433 173.051,245.609 172.136,244.222 169.333 C 242.786 166.432,242.301 166.112,238.388 165.479 C 235.361 164.989,234.401 165.233,232.511 166.970 C 226.065 172.897,220.974 172.977,217.602 167.204 C 214.551 161.980,211.979 162.365,209.607 168.400 C 206.309 176.795,200.969 178.072,194.364 172.046 C 189.167 167.306,185.411 168.734,185.343 175.477 C 185.331 176.678,184.664 179.285,184.016 180.667 C 182.036 184.887,178.741 185.040,173.938 181.134 C 171.289 178.980,170.206 178.703,168.460 179.733 C 165.897 181.245,164.543 184.162,164.537 188.182 C 164.534 190.693,164.492 190.911,163.981 191.073 C 163.209 191.318,162.400 190.515,162.400 189.506 C 162.400 188.325,161.902 184.482,161.411 181.867 C 160.805 178.644,160.708 177.204,161.052 176.560 C 161.671 175.405,163.260 176.183,163.772 177.892 C 164.308 179.680,165.143 179.734,166.221 178.050 C 168.027 175.228,171.566 175.012,174.423 177.549 C 178.847 181.477,180.902 180.740,181.719 174.933 C 183.076 165.295,188.540 163.174,196.496 169.198 C 201.173 172.740,204.576 172.407,206.023 168.267 C 209.262 158.998,215.069 157.785,220.698 165.200 C 224.012 169.567,226.634 169.583,229.600 165.255 C 231.047 163.143,233.366 162.392,236.746 162.941 C 240.601 163.567,241.036 163.123,239.808 159.821 C 239.483 158.946,241.041 158.201,242.239 158.656 M183.226 174.933 C 182.925 175.593,182.676 176.324,182.673 176.557 C 182.661 177.406,181.064 180.146,180.278 180.667 C 178.376 181.926,179.566 183.011,181.725 181.986 C 183.506 181.141,185.103 176.245,184.172 174.484 L 183.774 173.733 183.226 174.933 M163.561 180.471 C 162.995 180.833,162.997 183.261,163.563 183.044 C 164.151 182.818,164.616 181.698,164.429 180.954 C 164.249 180.238,164.075 180.141,163.561 180.471 " stroke="none" fill="#961412" fill-rule="evenodd"></path><path id="path3" d="M188.082 49.238 C 187.634 49.420,187.965 50.134,188.495 50.129 C 188.848 50.126,188.862 50.080,188.566 49.892 C 188.364 49.764,188.281 49.526,188.382 49.363 C 188.578 49.045,188.567 49.041,188.082 49.238 M142.022 91.372 C 141.768 92.034,142.048 92.124,142.388 91.490 C 142.552 91.183,142.574 90.933,142.438 90.933 C 142.302 90.933,142.115 91.131,142.022 91.372 M258.021 92.267 C 258.576 93.426,258.667 93.530,258.667 93.007 C 258.667 92.779,258.421 92.309,258.120 91.963 L 257.574 91.333 258.021 92.267 M141.146 92.867 C 140.578 93.491,139.892 94.647,139.876 95.010 C 139.871 95.125,139.726 95.306,139.554 95.412 C 139.383 95.519,139.153 95.963,139.043 96.400 C 138.933 96.837,138.684 97.354,138.488 97.550 C 138.120 97.918,138.038 97.796,138.119 97.000 C 138.177 96.430,137.716 96.380,137.504 96.933 C 137.419 97.153,137.119 97.333,136.837 97.333 C 136.555 97.333,136.254 97.514,136.169 97.736 C 136.084 97.957,135.712 98.276,135.341 98.445 C 134.970 98.614,134.667 98.906,134.667 99.094 C 134.667 99.283,134.337 99.632,133.933 99.872 C 133.307 100.243,131.552 102.646,131.231 103.572 C 131.175 103.734,130.752 104.347,130.293 104.933 C 129.833 105.520,129.320 106.300,129.152 106.667 C 128.985 107.033,128.431 108.233,127.922 109.333 C 126.406 112.611,126.133 113.264,126.133 113.619 C 126.133 113.806,125.976 114.147,125.784 114.379 C 125.033 115.283,123.797 119.794,122.784 125.333 C 122.003 129.606,121.766 140.376,122.366 144.400 C 124.233 156.932,128.872 169.701,134.002 176.426 C 134.368 176.906,134.667 177.383,134.667 177.488 C 134.667 177.593,135.068 178.171,135.559 178.773 C 136.049 179.374,136.499 180.010,136.559 180.185 C 136.917 181.241,144.307 189.420,146.667 191.371 C 147.620 192.160,149.180 193.476,150.133 194.296 C 152.003 195.904,152.195 196.044,156.161 198.703 C 161.800 202.483,170.390 206.649,175.867 208.259 C 178.976 209.173,179.852 209.395,182.667 209.983 C 198.615 213.314,215.642 212.070,228.133 206.660 C 228.427 206.533,229.327 206.169,230.133 205.851 C 232.197 205.038,237.599 202.343,240.148 200.854 C 241.993 199.777,243.890 198.499,248.069 195.517 C 251.521 193.053,261.849 182.714,261.863 181.708 C 261.865 181.547,262.116 181.190,262.421 180.914 C 266.202 177.493,273.385 162.514,275.584 153.467 C 275.834 152.440,276.156 151.180,276.300 150.667 C 277.534 146.263,278.084 134.414,277.314 128.800 C 276.477 122.700,274.688 115.200,274.069 115.200 C 273.940 115.200,273.901 115.093,273.982 114.962 C 274.196 114.617,269.979 105.373,269.347 104.800 C 269.123 104.597,268.561 103.665,268.294 103.056 C 268.163 102.756,267.863 102.352,267.628 102.156 C 267.393 101.961,267.196 101.666,267.192 101.501 C 267.178 101.027,265.935 99.733,265.493 99.733 C 265.076 99.733,263.733 98.157,263.733 97.666 C 263.733 97.511,263.501 97.444,263.217 97.518 C 262.876 97.607,262.436 97.382,261.922 96.857 C 261.494 96.419,260.899 95.983,260.601 95.888 C 260.302 95.793,259.979 95.510,259.884 95.258 C 259.549 94.375,259.072 93.600,258.863 93.600 C 258.748 93.600,258.846 93.974,259.082 94.430 C 260.674 97.508,262.419 103.666,262.598 106.838 L 262.736 109.276 256.781 109.314 C 253.506 109.334,250.787 109.391,250.738 109.440 C 250.689 109.489,250.483 110.835,250.280 112.431 C 248.803 124.053,242.187 131.351,231.200 133.479 C 226.320 134.424,216.939 132.357,214.933 129.894 C 214.860 129.804,214.320 129.375,213.733 128.940 C 210.006 126.179,206.503 120.878,205.624 116.667 C 205.440 115.787,205.179 114.564,205.045 113.949 C 204.910 113.334,204.800 112.044,204.800 111.082 L 204.800 109.333 198.146 109.333 L 191.492 109.333 191.214 110.333 C 191.061 110.883,190.936 111.897,190.935 112.587 C 190.921 124.519,177.327 135.729,165.436 133.614 C 153.540 131.499,146.706 123.734,145.181 110.600 L 145.034 109.333 140.491 109.333 L 135.948 109.333 136.129 107.667 C 136.486 104.376,138.917 97.550,141.114 93.667 C 141.978 92.139,141.986 91.945,141.146 92.867 M261.574 97.702 C 261.810 97.987,261.787 98.107,261.473 98.227 C 261.194 98.334,261.067 98.219,261.067 97.858 C 261.067 97.237,261.163 97.207,261.574 97.702 M242.399 158.266 C 244.026 159.108,248.440 167.258,248.716 169.929 C 249.136 174.000,245.645 173.480,243.536 169.157 C 242.392 166.813,242.018 166.574,238.533 165.959 C 235.448 165.414,234.699 165.614,232.534 167.560 C 225.905 173.521,220.687 173.399,217.065 167.197 C 214.334 162.521,212.203 162.989,210.017 168.744 C 206.712 177.445,201.103 178.551,193.600 171.983 C 188.872 167.844,186.886 168.679,185.981 175.188 C 184.668 184.624,180.459 186.810,173.733 181.549 C 170.537 179.048,169.399 179.032,167.264 181.458 C 165.678 183.259,165.067 185.076,165.067 187.988 C 165.067 190.750,164.952 191.155,164.080 191.487 C 162.491 192.091,161.956 191.106,161.585 186.892 C 161.425 185.081,161.064 182.441,160.781 181.025 C 160.042 177.326,160.380 175.461,161.788 175.468 C 162.474 175.471,163.834 176.680,164.200 177.612 C 164.703 178.893,165.040 178.931,165.867 177.800 C 168.124 174.711,171.539 174.424,174.560 177.067 C 178.973 180.929,180.475 180.299,181.280 174.245 C 182.474 165.266,189.473 162.706,196.533 168.666 C 201.016 172.450,204.571 171.828,206.002 167.011 C 206.831 164.220,209.862 160.872,212.186 160.182 C 215.307 159.255,217.722 160.561,221.200 165.057 C 224.269 169.024,226.613 168.927,229.415 164.717 C 230.604 162.930,233.876 161.826,236.276 162.402 C 239.517 163.180,240.201 162.884,239.727 160.909 C 239.331 159.254,239.483 158.757,240.560 158.204 C 241.378 157.783,241.471 157.786,242.399 158.266 M284.169 158.804 C 283.785 159.805,283.976 160.453,284.409 159.621 C 284.649 159.162,284.718 158.744,284.577 158.603 C 284.436 158.462,284.268 158.545,284.169 158.804 M283.637 160.933 C 283.543 161.177,283.467 161.660,283.467 162.006 C 283.467 162.352,283.347 162.709,283.200 162.800 C 283.053 162.891,282.933 163.258,282.933 163.616 C 282.933 163.974,282.813 164.267,282.667 164.267 C 282.520 164.267,282.423 164.357,282.451 164.467 C 282.559 164.891,282.058 166.574,281.574 167.415 C 281.295 167.900,281.067 168.448,281.067 168.632 C 281.067 168.816,280.779 169.560,280.428 170.284 C 280.077 171.008,279.834 171.647,279.888 171.705 C 280.091 171.919,280.800 171.118,280.800 170.675 C 280.800 170.423,281.040 169.999,281.333 169.733 C 281.689 169.411,281.867 168.912,281.867 168.231 C 281.867 167.434,282.014 167.116,282.544 166.769 C 283.120 166.391,283.212 166.150,283.160 165.143 C 283.119 164.352,283.225 163.879,283.482 163.714 C 283.787 163.518,283.796 163.421,283.527 163.247 C 283.267 163.079,283.314 162.913,283.727 162.539 C 284.298 162.022,284.405 161.431,284.033 160.844 C 283.853 160.561,283.773 160.578,283.637 160.933 " stroke="none" fill="#f40505" fill-rule="evenodd"></path><path id="path4" d="M191.444 49.151 C 191.564 49.271,192.129 49.329,192.698 49.279 L 193.733 49.189 192.479 49.060 C 191.789 48.989,191.323 49.030,191.444 49.151 M199.533 49.264 C 200.523 49.316,202.143 49.316,203.133 49.264 C 204.123 49.213,203.313 49.171,201.333 49.171 C 199.353 49.171,198.543 49.213,199.533 49.264 M188.267 49.600 C 188.267 49.747,188.447 49.867,188.667 49.867 C 188.887 49.867,189.067 49.747,189.067 49.600 C 189.067 49.453,188.887 49.333,188.667 49.333 C 188.447 49.333,188.267 49.453,188.267 49.600 M210.400 49.600 C 210.400 49.913,210.605 49.913,211.333 49.600 C 211.806 49.397,211.783 49.369,211.133 49.352 C 210.730 49.342,210.400 49.453,210.400 49.600 M204.533 49.867 C 204.533 50.013,204.706 50.133,204.918 50.133 C 205.129 50.133,205.376 50.013,205.467 49.867 C 205.557 49.720,205.384 49.600,205.082 49.600 C 204.780 49.600,204.533 49.720,204.533 49.867 M182.667 50.533 C 182.667 50.753,182.877 50.931,183.133 50.929 C 183.516 50.926,183.531 50.882,183.218 50.683 C 182.936 50.505,183.076 50.412,183.751 50.330 L 184.667 50.219 183.667 50.176 C 182.937 50.145,182.667 50.241,182.667 50.533 M188.000 50.400 C 188.527 50.741,189.410 50.741,189.200 50.400 C 189.109 50.253,188.712 50.135,188.318 50.137 C 187.756 50.141,187.687 50.198,188.000 50.400 M216.133 50.400 C 216.573 50.512,216.716 50.618,216.451 50.635 C 216.186 50.652,216.046 50.792,216.141 50.946 C 216.260 51.138,216.432 51.128,216.687 50.916 C 217.207 50.485,216.905 50.127,216.051 50.165 L 215.333 50.196 216.133 50.400 M180.900 51.000 C 180.982 51.257,180.934 51.467,180.792 51.467 C 180.650 51.467,180.533 51.587,180.533 51.733 C 180.533 51.880,180.640 52.000,180.771 52.000 C 181.154 52.000,181.307 51.318,181.017 50.909 C 180.805 50.612,180.781 50.630,180.900 51.000 M218.716 51.332 C 218.548 51.699,218.521 52.000,218.654 52.000 C 218.917 52.000,219.323 50.967,219.134 50.779 C 219.071 50.716,218.883 50.965,218.716 51.332 M175.065 52.269 C 174.963 52.434,174.952 52.641,175.040 52.729 C 175.128 52.817,175.200 52.749,175.200 52.578 C 175.200 52.404,175.582 52.268,176.067 52.271 C 176.752 52.274,176.850 52.334,176.533 52.558 C 176.268 52.745,176.253 52.809,176.487 52.747 C 176.681 52.695,176.861 52.536,176.887 52.393 C 176.953 52.023,175.288 51.909,175.065 52.269 M222.568 52.211 C 222.496 52.327,222.849 52.374,223.352 52.315 C 223.855 52.256,224.267 52.161,224.267 52.104 C 224.267 51.903,222.697 52.002,222.568 52.211 M166.400 55.727 C 166.400 55.843,166.640 56.001,166.933 56.077 C 167.227 56.154,167.467 56.122,167.467 56.006 C 167.467 55.890,167.227 55.733,166.933 55.656 C 166.640 55.579,166.400 55.611,166.400 55.727 M162.133 57.702 C 162.133 57.939,163.212 58.063,163.349 57.842 C 163.431 57.709,163.191 57.600,162.816 57.600 C 162.440 57.600,162.133 57.646,162.133 57.702 M159.022 59.600 C 159.022 59.820,159.178 60.000,159.369 60.000 C 159.568 60.000,159.651 59.829,159.563 59.600 C 159.479 59.380,159.322 59.200,159.216 59.200 C 159.109 59.200,159.022 59.380,159.022 59.600 M194.184 60.815 C 192.232 60.926,190.337 61.092,189.972 61.183 C 189.608 61.275,187.958 61.584,186.307 61.871 C 165.763 65.438,147.061 79.652,139.205 97.669 C 137.610 101.326,136.385 105.308,136.129 107.667 L 135.948 109.333 140.507 109.333 C 144.889 109.333,145.067 109.354,145.067 109.867 C 145.067 111.152,145.510 110.222,145.812 108.304 C 147.406 98.176,154.675 90.642,164.632 88.800 C 167.704 88.231,173.370 88.755,175.867 89.838 C 176.160 89.965,176.939 90.294,177.598 90.568 C 184.758 93.549,190.805 102.284,190.957 109.867 C 190.981 111.063,190.982 111.064,191.232 110.200 L 191.482 109.333 198.121 109.333 C 204.226 109.333,204.770 109.371,204.869 109.800 C 204.929 110.057,205.061 109.667,205.162 108.933 C 205.913 103.513,207.678 99.528,210.911 95.950 C 212.357 94.350,212.421 93.889,211.200 93.868 C 209.667 93.843,205.867 90.996,205.867 89.873 C 205.867 88.854,206.829 88.605,211.467 88.421 C 213.887 88.325,216.287 88.140,216.800 88.010 C 217.313 87.881,218.933 87.569,220.400 87.317 C 222.898 86.888,226.022 85.980,228.800 84.876 C 230.297 84.281,234.964 81.808,234.834 81.678 C 234.781 81.626,233.612 82.162,232.236 82.869 C 230.859 83.577,229.193 84.327,228.533 84.536 C 227.873 84.745,227.033 85.069,226.667 85.256 C 226.300 85.444,225.814 85.597,225.587 85.598 C 225.359 85.599,225.059 85.708,224.920 85.841 C 224.781 85.973,224.127 86.144,223.467 86.220 C 222.807 86.296,221.667 86.474,220.933 86.615 C 218.814 87.024,186.873 86.885,186.733 86.467 C 186.672 86.283,186.492 86.133,186.332 86.133 C 186.173 86.133,185.853 85.966,185.621 85.760 C 184.958 85.173,181.449 83.296,178.881 82.156 C 176.438 81.071,177.246 81.624,180.400 83.195 C 187.258 86.611,193.490 93.750,192.017 96.502 C 191.317 97.810,190.532 97.552,187.707 95.081 C 182.417 90.455,173.913 86.537,166.021 85.091 C 162.177 84.386,162.521 82.039,166.651 80.786 C 167.100 80.650,167.170 80.571,166.856 80.556 C 165.685 80.500,162.933 82.491,162.933 83.395 C 162.933 84.116,163.691 85.067,164.266 85.067 C 164.542 85.067,164.835 85.174,164.916 85.305 C 165.054 85.529,165.741 85.670,168.467 86.035 C 169.090 86.119,169.600 86.287,169.600 86.408 C 169.600 86.530,169.870 86.685,170.200 86.753 C 170.530 86.821,169.300 86.868,167.467 86.859 C 165.633 86.849,163.916 86.733,163.650 86.602 C 163.355 86.456,163.042 86.465,162.850 86.625 C 162.466 86.943,148.631 86.867,147.906 86.543 C 147.578 86.396,147.327 86.446,147.156 86.694 C 146.975 86.956,146.953 86.874,147.082 86.420 C 147.183 86.065,147.367 85.645,147.490 85.487 C 162.726 66.045,188.330 57.273,214.800 62.427 C 229.585 65.305,244.036 73.602,251.216 83.333 C 251.866 84.213,252.478 84.995,252.577 85.069 C 253.882 86.053,251.839 87.504,250.408 86.610 C 249.991 86.350,249.811 86.349,249.553 86.607 C 249.126 87.034,242.372 87.065,241.949 86.642 C 241.738 86.431,241.507 86.431,241.113 86.642 C 240.411 87.018,239.388 87.015,239.010 86.637 C 238.832 86.459,238.570 86.432,238.357 86.570 C 238.160 86.696,237.392 86.800,236.650 86.800 L 235.300 86.800 236.178 85.067 C 236.661 84.113,237.059 83.160,237.062 82.948 C 237.064 82.736,236.756 83.185,236.377 83.946 C 235.997 84.708,234.959 86.134,234.069 87.116 C 232.645 88.688,232.512 88.924,232.959 89.088 C 233.238 89.191,234.367 89.606,235.467 90.010 C 243.498 92.964,250.105 101.581,250.129 109.133 C 250.131 109.830,250.253 110.400,250.400 110.400 C 250.547 110.400,250.667 110.160,250.667 109.867 C 250.667 109.298,250.480 109.309,261.035 109.294 L 262.737 109.292 262.599 106.846 C 261.483 87.118,239.645 66.594,214.933 62.049 C 213.687 61.820,211.912 61.498,210.989 61.334 C 207.339 60.685,200.303 60.468,194.184 60.815 M155.600 61.333 C 155.509 61.480,155.472 61.609,155.518 61.620 C 156.396 61.838,156.545 61.802,156.249 61.445 C 155.875 60.995,155.815 60.985,155.600 61.333 M147.600 67.467 C 147.086 67.688,147.088 67.697,147.651 67.715 C 147.972 67.725,148.309 67.613,148.400 67.467 C 148.595 67.151,148.334 67.151,147.600 67.467 M253.600 69.333 C 254.113 69.773,254.713 70.132,254.933 70.132 C 255.153 70.132,254.956 69.902,254.496 69.621 C 254.035 69.340,253.578 68.980,253.480 68.822 C 253.382 68.663,253.159 68.534,252.984 68.534 C 252.810 68.534,253.087 68.894,253.600 69.333 M262.001 77.602 C 262.268 77.896,262.541 78.082,262.608 78.014 C 262.752 77.870,261.992 77.067,261.711 77.067 C 261.605 77.067,261.735 77.307,262.001 77.602 M263.915 79.661 C 264.182 80.134,264.444 80.391,264.498 80.233 C 264.552 80.074,264.334 79.687,264.013 79.372 L 263.430 78.800 263.915 79.661 M168.556 80.097 C 168.617 80.150,169.627 80.255,170.800 80.329 C 171.973 80.403,172.633 80.372,172.267 80.259 C 171.603 80.054,168.344 79.912,168.556 80.097 M173.867 80.800 C 174.233 80.917,174.773 81.017,175.067 81.021 L 175.600 81.029 175.067 80.800 C 174.773 80.674,174.233 80.574,173.867 80.579 L 173.200 80.586 173.867 80.800 M264.808 80.754 C 264.823 81.058,266.152 82.470,266.292 82.330 C 266.365 82.258,266.059 81.833,265.612 81.386 C 265.165 80.940,264.804 80.655,264.808 80.754 M235.830 81.735 C 236.803 82.242,237.050 82.245,236.384 81.742 C 236.100 81.526,235.687 81.347,235.467 81.343 C 235.247 81.340,235.410 81.516,235.830 81.735 M130.667 86.000 C 130.213 86.660,129.937 87.196,130.054 87.192 C 130.267 87.183,131.810 84.800,131.603 84.800 C 131.542 84.800,131.121 85.340,130.667 86.000 M268.267 85.415 C 268.267 85.460,268.567 85.903,268.933 86.400 C 269.300 86.897,269.600 87.175,269.600 87.018 C 269.600 86.861,269.420 86.583,269.200 86.400 C 268.980 86.217,268.800 85.903,268.800 85.701 C 268.800 85.499,268.680 85.333,268.533 85.333 C 268.387 85.333,268.267 85.370,268.267 85.415 M270.408 88.533 C 270.410 88.753,270.660 89.233,270.962 89.600 C 271.265 89.967,271.435 90.116,271.340 89.933 C 270.546 88.396,270.404 88.183,270.408 88.533 M127.333 91.467 C 127.106 91.907,126.980 92.267,127.053 92.267 C 127.126 92.267,127.372 91.907,127.600 91.467 C 127.828 91.027,127.954 90.667,127.880 90.667 C 127.807 90.667,127.561 91.027,127.333 91.467 M273.643 94.533 C 274.051 95.538,274.402 95.968,274.394 95.453 C 274.391 95.241,274.148 94.767,273.853 94.400 L 273.319 93.733 273.643 94.533 M274.987 97.194 C 275.306 97.851,275.613 98.343,275.669 98.287 C 275.790 98.166,274.712 96.000,274.531 96.000 C 274.463 96.000,274.668 96.537,274.987 97.194 M276.295 100.133 C 276.302 100.592,277.555 103.089,277.566 102.667 C 277.571 102.447,277.287 101.727,276.933 101.067 C 276.580 100.407,276.293 99.987,276.295 100.133 M277.619 103.384 C 277.679 104.076,278.096 104.664,278.115 104.082 C 278.125 103.761,278.013 103.424,277.867 103.333 C 277.720 103.243,277.608 103.266,277.619 103.384 M278.381 105.485 C 278.512 105.915,278.744 106.627,278.896 107.067 C 279.049 107.507,279.308 108.389,279.471 109.027 C 279.635 109.665,279.833 110.122,279.913 110.043 C 280.081 109.874,278.697 105.320,278.366 104.951 C 278.243 104.815,278.250 105.055,278.381 105.485 M280.045 110.667 C 280.059 111.360,280.479 112.498,280.488 111.867 C 280.492 111.573,280.393 111.093,280.267 110.800 C 280.126 110.473,280.041 110.422,280.045 110.667 M119.100 111.877 C 119.008 112.115,118.944 112.510,118.956 112.755 C 118.969 113.000,119.085 112.846,119.214 112.413 C 119.465 111.572,119.377 111.155,119.100 111.877 M204.853 112.667 C 204.853 112.960,204.949 113.500,205.067 113.867 C 205.236 114.395,205.280 114.422,205.280 114.000 C 205.280 113.707,205.184 113.167,205.067 112.800 C 204.898 112.272,204.853 112.244,204.853 112.667 M280.853 114.000 C 280.853 114.293,280.949 114.833,281.067 115.200 C 281.236 115.728,281.280 115.756,281.280 115.333 C 281.280 115.040,281.184 114.500,281.067 114.133 C 280.898 113.605,280.853 113.578,280.853 114.000 M281.391 116.400 C 281.394 116.693,281.488 117.293,281.600 117.733 C 281.783 118.452,281.804 118.465,281.809 117.867 C 281.811 117.500,281.717 116.900,281.600 116.533 C 281.433 116.011,281.388 115.982,281.391 116.400 M281.924 119.467 C 281.922 119.980,282.016 120.700,282.133 121.067 C 282.433 122.003,282.443 121.025,282.149 119.600 L 281.928 118.533 281.924 119.467 M282.467 123.067 C 282.470 123.653,282.525 123.862,282.589 123.530 C 282.652 123.199,282.650 122.719,282.583 122.464 C 282.516 122.209,282.464 122.480,282.467 123.067 M116.862 125.067 C 116.862 125.580,116.917 125.790,116.984 125.533 C 117.051 125.277,117.051 124.857,116.984 124.600 C 116.917 124.343,116.862 124.553,116.862 125.067 M282.739 125.333 C 282.739 125.993,282.791 126.263,282.855 125.933 C 282.918 125.603,282.918 125.063,282.855 124.733 C 282.791 124.403,282.739 124.673,282.739 125.333 M283.045 132.800 C 283.045 135.660,283.084 136.830,283.132 135.400 C 283.180 133.970,283.180 131.630,283.132 130.200 C 283.084 128.770,283.045 129.940,283.045 132.800 M116.595 129.067 C 116.595 129.580,116.650 129.790,116.717 129.533 C 116.784 129.277,116.784 128.857,116.717 128.600 C 116.650 128.343,116.595 128.553,116.595 129.067 M116.601 137.200 C 116.604 137.787,116.658 137.995,116.722 137.664 C 116.786 137.332,116.783 136.852,116.717 136.597 C 116.650 136.342,116.598 136.613,116.601 137.200 M282.747 139.733 C 282.747 140.540,282.797 140.870,282.858 140.467 C 282.919 140.063,282.919 139.403,282.858 139.000 C 282.797 138.597,282.747 138.927,282.747 139.733 M116.862 140.800 C 116.862 141.313,116.917 141.523,116.984 141.267 C 117.051 141.010,117.051 140.590,116.984 140.333 C 116.917 140.077,116.862 140.287,116.862 140.800 M117.129 143.467 C 117.129 143.980,117.183 144.190,117.250 143.933 C 117.318 143.677,117.318 143.257,117.250 143.000 C 117.183 142.743,117.129 142.953,117.129 143.467 M282.035 145.091 C 281.942 145.554,281.881 146.248,281.898 146.633 C 281.915 147.018,282.037 146.685,282.168 145.893 C 282.425 144.348,282.315 143.689,282.035 145.091 M281.812 166.119 C 281.748 166.552,281.780 166.853,281.883 166.790 C 282.150 166.625,282.366 165.333,282.127 165.333 C 282.017 165.333,281.875 165.687,281.812 166.119 M280.949 167.900 C 280.718 168.818,280.863 168.922,281.244 168.114 C 281.412 167.758,281.454 167.408,281.337 167.335 C 281.219 167.263,281.045 167.517,280.949 167.900 M280.559 169.312 C 280.353 169.443,280.149 169.874,280.107 170.271 C 280.065 170.667,280.065 170.949,280.107 170.896 C 280.229 170.745,281.031 169.066,280.980 169.071 C 280.954 169.073,280.765 169.182,280.559 169.312 M139.067 190.133 C 139.640 190.720,140.168 191.200,140.242 191.200 C 140.315 191.200,139.906 190.720,139.333 190.133 C 138.760 189.547,138.232 189.067,138.158 189.067 C 138.085 189.067,138.494 189.547,139.067 190.133 M258.659 191.933 L 256.933 193.733 258.733 192.008 C 260.405 190.405,260.655 190.133,260.459 190.133 C 260.418 190.133,259.608 190.943,258.659 191.933 M143.067 194.133 C 143.640 194.720,144.168 195.200,144.242 195.200 C 144.315 195.200,143.906 194.720,143.333 194.133 C 142.760 193.547,142.232 193.067,142.158 193.067 C 142.085 193.067,142.494 193.547,143.067 194.133 M160.135 214.397 C 160.063 214.514,160.317 214.688,160.700 214.785 C 161.618 215.015,161.722 214.870,160.914 214.489 C 160.558 214.321,160.208 214.280,160.135 214.397 M193.000 216.188 C 193.330 216.252,193.870 216.252,194.200 216.188 C 194.530 216.125,194.260 216.073,193.600 216.073 C 192.940 216.073,192.670 216.125,193.000 216.188 M205.267 216.188 C 205.597 216.252,206.137 216.252,206.467 216.188 C 206.797 216.125,206.527 216.073,205.867 216.073 C 205.207 216.073,204.937 216.125,205.267 216.188 M198.467 216.464 C 199.310 216.517,200.690 216.517,201.533 216.464 C 202.377 216.411,201.687 216.368,200.000 216.368 C 198.313 216.368,197.623 216.411,198.467 216.464 " stroke="none" fill="#f1615a" fill-rule="evenodd"></path></g></svg>