<svg id="svg" version="1.1" xmlns="http://www.w3.org/2000/svg" xmlns:xlink="http://www.w3.org/1999/xlink" width="400" height="266.6666666666667" viewBox="0, 0, 400,266.6666666666667"><g id="svgg"><path id="path0" d="M195.200 49.874 C 195.200 50.028,193.896 50.133,192.000 50.133 C 190.240 50.133,188.800 50.238,188.800 50.365 C 188.800 50.561,186.833 50.827,183.959 51.019 C 183.569 51.045,183.307 51.157,183.375 51.267 C 183.443 51.377,182.951 51.467,182.282 51.467 C 181.614 51.467,181.067 51.587,181.067 51.733 C 181.067 51.880,180.587 52.000,180.000 52.000 C 179.413 52.000,178.933 52.120,178.933 52.267 C 178.933 52.413,178.566 52.533,178.118 52.533 C 177.669 52.533,177.367 52.638,177.446 52.766 C 177.525 52.894,176.872 53.080,175.995 53.179 C 175.118 53.279,174.400 53.474,174.400 53.613 C 174.400 53.753,174.040 53.867,173.600 53.867 C 173.160 53.867,172.800 53.987,172.800 54.133 C 172.800 54.280,172.447 54.400,172.016 54.400 C 171.584 54.400,171.157 54.520,171.067 54.667 C 170.976 54.813,170.616 54.933,170.267 54.933 C 169.917 54.933,169.556 55.055,169.464 55.204 C 169.372 55.353,169.185 55.406,169.048 55.322 C 168.912 55.238,168.800 55.296,168.800 55.451 C 168.800 55.606,168.624 55.733,168.408 55.733 C 168.049 55.733,166.367 56.571,165.733 57.065 C 165.587 57.179,164.957 57.357,164.333 57.460 C 163.710 57.563,163.200 57.742,163.200 57.859 C 163.200 57.976,162.990 58.140,162.733 58.224 C 162.293 58.368,160.584 59.324,159.276 60.157 C 158.951 60.364,158.501 60.533,158.276 60.533 C 158.051 60.533,157.867 60.639,157.867 60.769 C 157.867 60.898,157.657 61.077,157.400 61.166 C 157.143 61.255,156.616 61.539,156.229 61.797 C 155.841 62.055,154.865 62.657,154.060 63.135 C 153.255 63.613,152.447 64.183,152.265 64.402 C 152.083 64.621,151.769 64.800,151.567 64.800 C 151.365 64.800,151.200 64.909,151.200 65.043 C 151.200 65.177,150.390 65.863,149.400 66.567 C 148.410 67.271,147.360 68.074,147.067 68.351 C 146.773 68.628,146.118 69.172,145.610 69.561 C 144.153 70.676,137.084 77.971,135.467 80.030 C 134.660 81.056,133.670 82.295,133.267 82.783 C 132.863 83.271,132.533 83.768,132.533 83.887 C 132.533 84.007,132.254 84.411,131.913 84.785 C 130.043 86.840,124.837 96.190,123.691 99.554 C 123.382 100.459,122.793 101.929,122.382 102.819 C 121.970 103.710,121.556 104.790,121.461 105.219 C 121.366 105.649,120.987 106.882,120.618 107.959 C 120.249 109.036,119.911 110.176,119.866 110.492 C 119.821 110.808,119.489 112.267,119.127 113.733 C 116.703 123.554,116.145 136.307,117.744 145.333 C 118.594 150.134,118.911 151.694,119.477 153.867 C 133.942 209.444,198.880 233.983,246.400 201.827 C 262.074 191.221,275.628 172.535,279.544 156.133 C 279.614 155.840,279.923 154.683,280.230 153.562 C 280.536 152.441,280.965 150.521,281.182 149.295 C 281.399 148.070,281.690 146.467,281.829 145.733 C 283.849 135.072,282.156 115.669,278.384 106.267 C 278.267 105.973,278.031 105.253,277.860 104.667 C 277.117 102.113,271.842 91.180,270.257 88.911 C 269.958 88.483,269.553 87.813,269.356 87.421 C 269.160 87.029,268.564 86.169,268.033 85.511 C 267.501 84.853,266.467 83.449,265.733 82.391 C 265.000 81.333,264.094 80.153,263.721 79.767 C 263.347 79.382,261.847 77.747,260.387 76.133 C 258.928 74.520,257.613 73.155,257.467 73.099 C 257.320 73.044,256.660 72.433,256.000 71.742 C 255.016 70.712,252.952 68.899,250.987 67.341 C 250.797 67.190,250.437 66.875,250.187 66.642 C 249.938 66.408,249.350 65.996,248.881 65.726 C 248.412 65.456,248.090 65.137,248.164 65.018 C 248.238 64.898,248.092 64.800,247.841 64.800 C 247.589 64.800,246.990 64.500,246.510 64.133 C 246.029 63.767,245.500 63.467,245.335 63.467 C 245.170 63.467,245.109 63.347,245.200 63.200 C 245.291 63.053,245.185 62.933,244.964 62.933 C 244.744 62.933,244.407 62.709,244.215 62.436 C 244.023 62.162,243.500 61.858,243.052 61.759 C 242.604 61.661,242.067 61.345,241.860 61.057 C 241.652 60.769,241.209 60.533,240.874 60.533 C 240.540 60.533,240.267 60.432,240.267 60.307 C 240.267 60.183,239.757 59.854,239.133 59.577 C 238.510 59.300,237.767 58.862,237.483 58.603 C 237.199 58.345,236.822 58.133,236.647 58.133 C 236.471 58.133,235.984 57.954,235.564 57.735 C 235.144 57.516,234.590 57.336,234.333 57.335 C 234.077 57.334,233.867 57.213,233.867 57.067 C 233.867 56.920,233.627 56.800,233.333 56.800 C 233.040 56.800,232.799 56.710,232.798 56.600 C 232.795 56.345,231.492 55.734,230.947 55.732 C 230.719 55.731,230.190 55.551,229.770 55.332 C 229.349 55.113,228.839 54.933,228.636 54.933 C 228.433 54.933,228.267 54.843,228.267 54.732 C 228.267 54.510,226.384 53.867,225.738 53.867 C 225.515 53.867,225.333 53.747,225.333 53.600 C 225.333 53.453,224.936 53.333,224.451 53.333 C 223.966 53.333,223.336 53.157,223.051 52.942 C 222.766 52.726,221.970 52.546,221.282 52.542 C 220.594 52.537,219.957 52.413,219.867 52.267 C 219.776 52.120,219.282 52.000,218.769 52.000 C 218.214 52.000,217.902 51.892,218.000 51.733 C 218.099 51.573,217.751 51.467,217.127 51.467 C 216.556 51.467,216.005 51.383,215.903 51.281 C 215.651 51.029,215.143 50.944,212.733 50.754 C 211.597 50.664,210.667 50.506,210.667 50.403 C 210.667 50.300,209.380 50.192,207.808 50.163 C 206.236 50.134,204.886 50.016,204.808 49.902 C 204.596 49.591,195.200 49.563,195.200 49.874 M207.238 61.070 C 235.360 63.817,258.261 82.078,262.246 104.933 C 262.923 108.814,263.544 108.396,257.061 108.428 C 253.978 108.443,251.385 108.526,251.299 108.612 C 251.213 108.698,251.033 110.235,250.899 112.027 C 249.977 124.409,241.639 133.182,230.208 133.796 C 217.037 134.504,206.666 124.147,206.667 110.286 L 206.667 108.400 199.548 108.466 C 195.632 108.502,192.330 108.630,192.210 108.750 C 192.089 108.871,191.927 110.221,191.848 111.751 C 191.343 121.597,186.293 129.093,178.004 132.298 C 163.335 137.970,147.885 127.197,147.677 111.152 C 147.641 108.374,148.047 108.563,141.945 108.476 C 138.993 108.434,136.486 108.308,136.374 108.196 C 135.793 107.615,137.831 100.946,139.979 96.400 C 151.218 72.606,178.521 58.264,207.238 61.070 M174.204 172.381 C 191.757 176.548,207.995 176.592,225.686 172.520 C 230.494 171.414,231.942 171.675,233.106 173.863 C 234.610 176.689,233.084 178.748,228.667 179.851 C 210.376 184.420,190.037 184.416,171.762 179.839 C 167.313 178.724,165.694 176.321,167.543 173.573 C 168.820 171.674,170.192 171.429,174.204 172.381 " stroke="none" fill="#fbc82c" fill-rule="evenodd"></path><path id="path1" d="M189.120 49.387 C 188.646 49.860,188.730 50.133,189.349 50.133 C 189.651 50.133,189.824 50.013,189.733 49.867 C 189.643 49.720,189.763 49.600,190.000 49.600 C 190.237 49.600,190.357 49.720,190.267 49.867 C 190.018 50.269,190.824 50.187,191.165 49.775 C 191.746 49.075,189.801 48.705,189.120 49.387 M208.125 49.297 C 208.059 49.363,208.138 49.579,208.302 49.775 C 208.643 50.187,209.448 50.269,209.200 49.867 C 209.109 49.720,209.229 49.600,209.467 49.600 C 209.704 49.600,209.824 49.720,209.733 49.867 C 209.640 50.018,209.864 50.133,210.251 50.133 C 211.032 50.133,211.093 49.989,210.543 49.439 C 210.191 49.086,208.439 48.984,208.125 49.297 M193.424 49.513 C 193.612 49.701,196.849 49.640,197.044 49.445 C 197.105 49.384,196.276 49.333,195.200 49.333 C 194.124 49.333,193.325 49.414,193.424 49.513 M203.667 49.526 C 204.143 49.585,204.923 49.585,205.400 49.526 C 205.877 49.467,205.487 49.419,204.533 49.419 C 203.580 49.419,203.190 49.467,203.667 49.526 M185.567 49.733 C 185.548 49.807,185.503 49.987,185.467 50.133 C 185.430 50.280,185.383 50.490,185.363 50.600 C 185.342 50.710,185.209 50.620,185.067 50.400 C 184.915 50.165,184.806 50.130,184.804 50.315 C 184.802 50.488,184.530 50.687,184.200 50.756 C 183.870 50.826,184.500 50.820,185.600 50.743 C 187.617 50.602,188.752 50.222,187.157 50.222 C 186.684 50.222,186.250 50.082,186.193 49.911 C 186.090 49.604,185.631 49.474,185.567 49.733 M214.579 50.511 C 214.450 50.846,214.595 50.927,215.275 50.902 C 215.849 50.882,215.957 50.827,215.600 50.738 C 215.307 50.665,214.993 50.489,214.904 50.347 C 214.814 50.205,214.668 50.279,214.579 50.511 M217.333 51.067 C 217.333 51.333,217.579 51.456,218.067 51.436 C 218.518 51.417,218.620 51.358,218.333 51.283 C 218.077 51.216,217.867 51.050,217.867 50.914 C 217.867 50.778,217.747 50.667,217.600 50.667 C 217.453 50.667,217.333 50.847,217.333 51.067 M179.089 51.431 C 179.010 51.558,178.613 51.620,178.206 51.569 C 177.473 51.477,177.472 51.479,178.133 51.712 C 179.062 52.039,179.528 52.048,179.333 51.733 C 179.243 51.587,179.363 51.467,179.600 51.467 C 179.837 51.467,179.957 51.587,179.867 51.733 C 179.776 51.880,179.889 52.000,180.118 52.000 C 180.658 52.000,180.654 51.570,180.112 51.362 C 179.534 51.140,179.257 51.159,179.089 51.431 M220.400 51.733 C 219.720 52.025,220.422 52.025,221.333 51.733 C 221.869 51.562,221.895 51.518,221.467 51.512 C 221.173 51.508,220.693 51.607,220.400 51.733 M176.800 52.268 C 176.800 52.414,176.600 52.533,176.356 52.533 C 176.111 52.533,175.986 52.608,176.076 52.699 C 176.167 52.790,176.680 52.782,177.215 52.681 C 178.212 52.494,178.262 52.227,177.326 52.084 C 177.037 52.040,176.800 52.123,176.800 52.268 M173.404 52.949 C 173.236 53.129,173.182 53.360,173.283 53.463 C 173.384 53.566,173.050 53.608,172.541 53.558 C 171.828 53.488,171.594 53.574,171.522 53.933 C 171.464 54.220,171.589 54.400,171.847 54.400 C 172.078 54.400,172.267 54.280,172.267 54.133 C 172.267 53.987,172.627 53.867,173.067 53.867 C 173.507 53.867,173.867 53.755,173.867 53.619 C 173.867 53.482,174.127 53.332,174.446 53.285 C 174.764 53.238,175.068 53.070,175.120 52.911 C 175.251 52.512,173.782 52.545,173.404 52.949 M224.133 52.802 C 223.649 52.987,223.668 53.023,224.346 53.201 C 225.197 53.425,225.506 53.271,225.006 52.871 C 224.819 52.721,224.427 52.690,224.133 52.802 M225.932 53.400 C 225.992 53.583,226.332 53.775,226.688 53.827 C 227.043 53.878,227.417 54.055,227.519 54.219 C 227.777 54.635,228.100 54.246,227.910 53.749 C 227.794 53.448,227.533 53.387,226.902 53.513 C 226.292 53.635,226.105 53.596,226.241 53.375 C 226.346 53.205,226.294 53.067,226.127 53.067 C 225.959 53.067,225.872 53.217,225.932 53.400 M167.928 54.845 C 167.522 55.059,167.259 55.346,167.344 55.484 C 167.550 55.817,168.267 55.804,168.267 55.467 C 168.267 55.320,168.563 55.200,168.925 55.200 C 169.401 55.200,169.541 55.089,169.430 54.800 C 169.245 54.319,168.908 54.329,167.928 54.845 M230.133 54.824 C 230.133 55.031,230.383 55.200,230.689 55.200 C 230.994 55.200,231.198 55.060,231.141 54.890 C 230.990 54.437,230.133 54.381,230.133 54.824 M231.370 55.333 C 231.279 55.570,231.367 55.733,231.587 55.733 C 231.790 55.733,232.176 55.814,232.445 55.912 C 232.906 56.081,232.905 56.058,232.425 55.512 C 231.827 54.830,231.579 54.788,231.370 55.333 M164.583 56.281 C 164.243 56.417,164.041 56.650,164.132 56.798 C 164.339 57.132,165.067 57.153,165.067 56.825 C 165.067 56.692,165.285 56.640,165.552 56.710 C 165.819 56.780,166.194 56.649,166.385 56.419 C 166.794 55.925,165.682 55.841,164.583 56.281 M233.760 56.374 C 233.839 56.579,234.128 56.806,234.403 56.878 C 234.833 56.990,234.858 56.939,234.587 56.504 C 234.223 55.923,233.546 55.816,233.760 56.374 M235.634 57.208 C 235.517 57.513,235.599 57.614,235.915 57.553 C 236.389 57.461,236.480 57.004,236.053 56.862 C 235.913 56.816,235.725 56.971,235.634 57.208 M161.333 58.133 C 161.333 58.280,161.506 58.400,161.718 58.400 C 161.929 58.400,162.176 58.280,162.267 58.133 C 162.357 57.987,162.184 57.867,161.882 57.867 C 161.580 57.867,161.333 57.987,161.333 58.133 M160.419 58.370 C 160.338 58.500,160.451 58.755,160.670 58.936 C 161.000 59.210,161.067 59.170,161.067 58.699 C 161.067 58.127,160.688 57.934,160.419 58.370 M237.486 58.370 C 237.405 58.499,237.667 58.668,238.068 58.745 C 238.885 58.901,239.285 58.754,239.055 58.382 C 238.860 58.066,237.679 58.057,237.486 58.370 M240.533 59.584 C 240.533 59.796,240.641 60.035,240.772 60.116 C 241.047 60.286,241.378 59.600,241.137 59.359 C 240.851 59.073,240.533 59.192,240.533 59.584 M156.970 60.667 C 156.866 60.939,156.985 61.067,157.342 61.067 C 157.631 61.067,157.867 60.887,157.867 60.667 C 157.867 60.447,157.700 60.267,157.495 60.267 C 157.291 60.267,157.055 60.447,156.970 60.667 M242.756 60.914 C 242.756 61.132,242.924 61.375,243.130 61.454 C 243.376 61.548,243.476 61.444,243.419 61.154 C 243.310 60.589,242.756 60.388,242.756 60.914 M154.578 61.778 C 154.246 62.110,154.398 62.400,154.905 62.400 C 155.182 62.400,155.479 62.220,155.563 62.000 C 155.720 61.592,154.940 61.416,154.578 61.778 M243.904 62.000 C 243.988 62.220,244.284 62.400,244.562 62.400 C 244.840 62.400,245.067 62.520,245.067 62.667 C 245.067 62.813,245.247 62.933,245.467 62.933 C 245.687 62.933,245.867 62.813,245.867 62.667 C 245.867 62.520,245.700 62.400,245.495 62.400 C 245.291 62.400,245.055 62.220,244.970 62.000 C 244.886 61.780,244.577 61.600,244.283 61.600 C 243.919 61.600,243.799 61.727,243.904 62.000 M153.313 62.467 C 153.140 63.032,153.167 63.467,153.376 63.467 C 153.753 63.467,154.405 62.761,154.210 62.565 C 154.051 62.406,153.355 62.330,153.313 62.467 M246.667 63.333 C 246.667 63.553,246.787 63.733,246.933 63.733 C 247.080 63.733,247.200 63.553,247.200 63.333 C 247.200 63.113,247.080 62.933,246.933 62.933 C 246.787 62.933,246.667 63.113,246.667 63.333 M151.733 63.886 C 151.733 64.135,151.915 64.271,152.178 64.220 C 152.847 64.090,152.939 63.467,152.289 63.467 C 151.961 63.467,151.733 63.639,151.733 63.886 M150.533 64.533 C 150.339 64.848,150.591 65.333,150.949 65.333 C 151.087 65.333,151.200 65.093,151.200 64.800 C 151.200 64.238,150.812 64.082,150.533 64.533 M249.658 65.641 C 249.724 65.839,249.991 66.041,250.253 66.092 C 250.557 66.151,250.685 66.055,250.609 65.825 C 250.543 65.628,250.275 65.425,250.014 65.375 C 249.710 65.316,249.582 65.412,249.658 65.641 M148.389 66.151 C 148.292 66.307,148.277 66.500,148.356 66.578 C 148.547 66.769,149.067 66.432,149.067 66.118 C 149.067 65.777,148.606 65.800,148.389 66.151 M146.933 67.622 C 146.933 68.093,147.507 68.011,147.672 67.517 C 147.730 67.343,147.588 67.200,147.356 67.200 C 147.123 67.200,146.933 67.390,146.933 67.622 M144.411 69.416 C 143.630 69.891,143.200 70.328,143.200 70.648 C 143.200 71.136,143.671 70.963,144.212 70.276 C 144.496 69.914,144.805 69.694,144.898 69.787 C 144.991 69.880,145.067 69.756,145.067 69.511 C 145.067 68.998,145.092 69.001,144.411 69.416 M254.727 69.759 C 255.008 70.375,255.061 70.397,255.221 69.959 C 255.438 69.362,255.295 69.067,254.790 69.067 C 254.479 69.067,254.468 69.191,254.727 69.759 M256.951 71.721 C 256.601 71.848,256.536 71.970,256.749 72.102 C 256.921 72.208,257.259 72.186,257.499 72.051 C 258.061 71.737,257.627 71.475,256.951 71.721 M258.552 73.036 C 258.472 73.166,258.578 73.416,258.788 73.590 C 259.100 73.849,259.162 73.805,259.128 73.353 C 259.085 72.779,258.806 72.626,258.552 73.036 M262.632 77.785 C 262.954 78.404,263.425 78.797,263.617 78.606 C 263.680 78.543,263.415 78.201,263.029 77.845 C 262.360 77.230,262.342 77.227,262.632 77.785 M135.533 77.999 C 135.104 78.487,135.113 78.576,135.614 78.768 C 135.851 78.859,135.958 78.815,135.865 78.664 C 135.775 78.519,135.829 78.400,135.984 78.400 C 136.140 78.400,136.267 78.220,136.267 78.000 C 136.267 77.503,135.971 77.502,135.533 77.999 M267.200 82.571 C 267.200 82.797,268.067 83.447,268.384 83.458 C 268.521 83.463,268.376 83.227,268.061 82.933 C 267.474 82.386,267.200 82.271,267.200 82.571 M270.133 86.408 C 270.133 86.560,270.313 86.752,270.532 86.836 C 270.751 86.920,270.853 87.127,270.759 87.295 C 270.641 87.506,270.694 87.503,270.930 87.284 C 271.207 87.028,271.193 86.888,270.855 86.550 C 270.371 86.067,270.133 86.020,270.133 86.408 M271.843 88.839 C 271.731 89.020,271.905 89.361,272.253 89.643 C 272.605 89.928,272.793 90.299,272.704 90.533 C 272.533 90.978,272.751 91.041,273.289 90.700 C 273.565 90.525,273.501 90.361,273.001 89.968 C 272.647 89.689,272.403 89.323,272.459 89.155 C 272.603 88.726,272.079 88.457,271.843 88.839 M167.216 90.676 C 149.694 93.088,142.177 114.352,154.400 126.928 C 157.520 130.138,160.392 131.779,165.200 133.100 C 166.995 133.594,173.068 133.590,174.667 133.095 C 177.713 132.151,178.244 131.952,179.804 131.170 C 189.717 126.201,194.050 113.901,189.587 103.396 C 185.962 94.864,176.378 89.414,167.216 90.676 M226.133 90.673 C 208.445 93.062,201.103 114.779,213.734 127.354 C 216.599 130.206,219.563 131.845,224.133 133.100 C 225.929 133.594,232.002 133.590,233.600 133.095 C 236.650 132.150,237.178 131.952,238.737 131.165 C 249.846 125.563,253.773 111.133,247.050 100.622 C 242.540 93.573,234.164 89.589,226.133 90.673 M125.846 91.000 C 125.650 91.642,125.709 91.941,126.009 91.826 C 126.206 91.751,126.301 91.519,126.221 91.311 C 126.092 90.975,125.902 90.817,125.846 91.000 M124.467 93.398 C 124.063 93.866,123.733 94.395,123.733 94.575 C 123.733 95.040,124.195 95.265,124.416 94.908 C 124.518 94.742,124.436 94.502,124.234 94.374 C 123.944 94.190,123.964 94.141,124.333 94.137 C 124.590 94.135,124.800 93.963,124.800 93.756 C 124.800 93.548,124.938 93.332,125.107 93.276 C 125.275 93.219,125.365 93.033,125.307 92.861 C 125.246 92.683,124.883 92.916,124.467 93.398 M275.322 94.418 C 275.190 94.631,275.227 94.681,275.425 94.559 C 275.619 94.439,275.733 94.567,275.733 94.902 C 275.733 95.195,275.866 95.517,276.029 95.618 C 276.231 95.743,276.263 95.601,276.132 95.167 C 275.870 94.302,275.567 94.022,275.322 94.418 M175.606 95.317 C 190.398 100.043,193.823 119.809,181.420 128.874 C 173.355 134.769,161.925 133.372,155.713 125.733 C 143.866 111.166,157.926 89.668,175.606 95.317 M233.978 95.094 C 242.897 97.397,249.017 106.696,247.738 116.000 C 245.214 134.358,220.828 138.831,212.560 122.453 C 204.923 107.325,217.774 90.911,233.978 95.094 M121.753 98.174 C 121.258 99.166,121.253 99.200,121.600 99.200 C 121.747 99.200,121.867 99.024,121.867 98.808 C 121.867 98.569,122.023 98.477,122.270 98.571 C 122.565 98.685,122.626 98.604,122.497 98.269 C 122.395 98.002,122.477 97.715,122.694 97.577 C 122.996 97.386,122.982 97.341,122.620 97.337 C 122.374 97.335,121.984 97.712,121.753 98.174 M277.141 97.792 C 276.916 97.871,276.976 98.078,277.338 98.467 C 277.967 99.142,278.210 99.015,277.778 98.239 C 277.607 97.930,277.320 97.729,277.141 97.792 M120.485 101.333 C 119.767 102.447,119.630 103.200,120.144 103.200 C 120.427 103.200,120.535 103.057,120.440 102.808 C 120.357 102.592,120.473 102.232,120.697 102.007 C 120.922 101.783,121.063 101.389,121.010 101.133 C 120.930 100.739,120.848 100.770,120.485 101.333 M278.820 101.245 C 278.726 101.489,278.773 101.813,278.925 101.965 C 279.076 102.116,279.200 102.456,279.200 102.720 C 279.200 102.984,279.320 103.200,279.467 103.200 C 279.890 103.200,279.776 101.940,279.338 101.772 C 279.113 101.686,279.010 101.443,279.100 101.210 C 279.186 100.985,279.197 100.800,279.124 100.800 C 279.050 100.800,278.914 101.000,278.820 101.245 M119.364 103.933 C 119.274 104.190,119.130 104.550,119.044 104.734 C 118.941 104.956,119.033 105.012,119.323 104.901 C 119.561 104.809,119.691 104.669,119.611 104.589 C 119.531 104.509,119.664 104.224,119.907 103.955 C 120.293 103.529,120.297 103.467,119.939 103.467 C 119.713 103.467,119.455 103.677,119.364 103.933 M167.201 104.998 C 164.392 105.990,162.133 109.348,162.133 112.533 C 162.133 119.450,169.927 123.104,174.756 118.452 C 180.801 112.630,174.975 102.256,167.201 104.998 M226.590 104.976 C 218.273 107.854,220.827 121.116,229.576 120.483 C 238.844 119.813,238.751 105.195,229.475 104.631 C 228.436 104.568,227.415 104.690,226.590 104.976 M280.905 107.088 C 280.994 107.320,281.067 107.560,281.067 107.622 C 281.067 107.683,281.187 107.733,281.333 107.733 C 281.480 107.733,281.600 107.493,281.600 107.200 C 281.600 106.888,281.422 106.667,281.171 106.667 C 280.890 106.667,280.799 106.812,280.905 107.088 M115.907 114.462 C 115.821 114.790,115.848 115.155,115.968 115.274 C 116.087 115.394,116.195 115.126,116.208 114.679 C 116.235 113.718,116.122 113.637,115.907 114.462 M283.413 114.720 C 283.589 114.896,283.733 115.361,283.733 115.754 C 283.733 116.147,283.913 116.617,284.133 116.800 C 284.606 117.193,284.728 116.568,284.268 116.108 C 284.122 115.962,283.976 115.518,283.943 115.122 C 283.908 114.689,283.726 114.400,283.489 114.400 C 283.181 114.400,283.164 114.471,283.413 114.720 M114.844 118.578 C 114.440 118.983,114.648 119.814,115.067 119.467 C 115.287 119.284,115.467 118.969,115.467 118.767 C 115.467 118.379,115.142 118.280,114.844 118.578 M284.411 119.715 C 284.327 119.851,284.368 120.031,284.502 120.114 C 284.637 120.197,284.747 120.698,284.747 121.226 C 284.747 121.754,284.879 122.319,285.040 122.480 C 285.253 122.693,285.333 122.429,285.333 121.512 C 285.333 120.638,285.211 120.203,284.935 120.097 C 284.716 120.013,284.603 119.837,284.684 119.705 C 284.765 119.574,284.771 119.467,284.698 119.467 C 284.625 119.467,284.496 119.578,284.411 119.715 M285.356 124.000 C 285.348 124.367,285.458 124.847,285.600 125.067 C 285.939 125.592,285.939 124.656,285.600 123.867 C 285.390 123.378,285.370 123.389,285.356 124.000 M285.333 126.082 C 285.333 126.239,285.455 126.444,285.604 126.536 C 285.753 126.628,285.795 126.834,285.696 126.993 C 285.582 127.179,285.644 127.204,285.871 127.064 C 286.136 126.900,286.176 126.973,286.030 127.356 C 285.880 127.750,285.908 127.795,286.152 127.552 C 286.396 127.310,286.339 127.073,285.901 126.516 C 285.589 126.119,285.333 125.924,285.333 126.082 M113.500 127.344 C 113.127 128.316,113.315 130.046,113.734 129.493 C 113.985 129.162,114.065 128.654,113.967 128.026 C 113.786 126.876,113.717 126.776,113.500 127.344 M286.154 136.617 C 286.121 140.586,286.200 142.676,286.386 142.791 C 286.732 143.005,286.776 131.519,286.431 130.975 C 286.301 130.770,286.183 133.185,286.154 136.617 M113.067 137.067 C 113.067 139.756,113.137 141.885,113.224 141.798 C 113.405 141.617,113.372 132.483,113.189 132.300 C 113.122 132.233,113.067 134.378,113.067 137.067 M113.425 145.859 C 113.521 146.340,113.600 146.898,113.600 147.100 C 113.600 147.302,113.693 147.467,113.807 147.467 C 114.111 147.467,113.859 145.360,113.530 145.157 C 113.344 145.042,113.309 145.276,113.425 145.859 M284.800 153.051 C 284.800 153.353,284.920 153.600,285.067 153.600 C 285.213 153.600,285.333 153.427,285.333 153.216 C 285.333 153.004,285.213 152.757,285.067 152.667 C 284.920 152.576,284.800 152.749,284.800 153.051 M118.400 168.101 C 118.400 168.156,118.580 168.351,118.800 168.533 C 119.128 168.805,119.200 168.787,119.200 168.433 C 119.200 168.195,119.020 168.000,118.800 168.000 C 118.580 168.000,118.400 168.045,118.400 168.101 M118.933 169.426 C 118.933 169.725,119.812 171.210,119.924 171.099 C 120.102 170.920,119.393 169.333,119.135 169.333 C 119.024 169.333,118.933 169.375,118.933 169.426 M169.200 172.591 C 167.213 173.738,166.818 176.205,168.373 177.760 C 168.872 178.259,169.430 178.667,169.614 178.667 C 169.806 178.667,169.722 178.469,169.416 178.200 C 168.076 177.025,168.007 175.386,169.256 174.403 C 170.198 173.663,171.614 173.708,177.279 174.659 C 188.502 176.542,201.427 177.040,212.417 176.011 C 217.721 175.514,219.960 175.217,225.467 174.278 C 229.850 173.531,231.385 173.817,231.969 175.492 C 232.299 176.439,232.144 176.959,231.244 177.933 C 230.359 178.892,230.836 178.876,231.995 177.908 C 233.678 176.503,233.136 173.278,231.094 172.544 C 229.910 172.119,229.053 172.199,225.385 173.077 C 219.003 174.605,217.494 174.856,209.333 175.749 C 205.956 176.118,194.109 176.108,190.933 175.733 C 189.540 175.568,187.440 175.327,186.267 175.198 C 183.197 174.859,180.059 174.270,175.629 173.203 C 171.555 172.220,170.084 172.080,169.200 172.591 M277.076 176.516 C 276.782 177.066,276.696 177.793,276.956 177.533 C 277.041 177.448,277.110 177.278,277.108 177.156 C 277.106 177.033,277.295 176.723,277.527 176.467 C 277.772 176.196,277.824 176.000,277.651 176.000 C 277.486 176.000,277.228 176.232,277.076 176.516 M125.600 182.883 C 125.600 183.026,125.790 183.216,126.022 183.305 C 126.282 183.405,126.404 183.345,126.339 183.150 C 126.206 182.752,125.600 182.532,125.600 182.883 M199.537 182.858 C 199.942 182.919,200.542 182.918,200.870 182.854 C 201.198 182.791,200.867 182.741,200.133 182.743 C 199.400 182.745,199.132 182.797,199.537 182.858 M272.951 183.721 C 272.570 183.859,272.524 183.963,272.774 184.117 C 272.961 184.233,273.245 184.195,273.405 184.035 C 273.799 183.641,273.582 183.492,272.951 183.721 M126.667 184.251 C 126.667 184.698,127.140 184.809,127.297 184.398 C 127.390 184.156,127.296 184.000,127.058 184.000 C 126.843 184.000,126.667 184.113,126.667 184.251 M128.437 187.067 C 128.521 187.287,128.825 187.467,129.111 187.467 C 129.397 187.467,129.556 187.345,129.464 187.196 C 129.372 187.047,129.185 186.994,129.048 187.078 C 128.912 187.162,128.800 187.104,128.800 186.949 C 128.800 186.794,128.684 186.667,128.542 186.667 C 128.400 186.667,128.352 186.847,128.437 187.067 M269.743 187.984 C 269.666 188.109,269.779 188.278,269.993 188.360 C 270.207 188.443,270.446 188.408,270.523 188.283 C 270.600 188.158,270.488 187.989,270.274 187.906 C 270.059 187.824,269.821 187.859,269.743 187.984 M133.850 193.067 C 133.837 193.140,133.786 193.410,133.737 193.667 C 133.687 193.923,133.749 194.133,133.875 194.133 C 134.256 194.133,134.378 193.729,134.120 193.321 C 133.985 193.108,133.864 192.993,133.850 193.067 M260.649 199.179 C 260.512 199.309,260.160 199.460,259.867 199.515 C 259.441 199.595,259.416 199.649,259.745 199.778 C 260.155 199.940,261.279 199.324,261.029 199.074 C 260.957 199.001,260.786 199.049,260.649 199.179 M259.200 200.194 C 258.434 200.484,257.551 201.538,257.895 201.751 C 258.086 201.869,258.146 201.837,258.044 201.670 C 257.949 201.517,258.290 201.193,258.802 200.950 C 259.485 200.626,260.207 199.850,259.667 200.021 C 259.630 200.033,259.420 200.110,259.200 200.194 M144.701 204.141 C 144.471 204.739,144.486 204.800,144.858 204.800 C 145.037 204.800,145.457 205.119,145.793 205.510 C 146.128 205.900,146.492 206.130,146.601 206.021 C 146.710 205.912,146.591 205.671,146.337 205.485 C 146.083 205.299,145.933 205.090,146.003 205.019 C 146.074 204.949,145.847 204.624,145.500 204.298 C 144.944 203.776,144.848 203.757,144.701 204.141 M147.626 206.329 C 147.305 206.650,147.480 206.933,148.000 206.933 C 148.293 206.933,148.533 206.826,148.533 206.695 C 148.533 206.395,147.840 206.116,147.626 206.329 M150.672 208.893 C 151.190 209.383,151.353 209.434,151.426 209.125 C 151.528 208.695,151.029 208.277,150.406 208.271 C 150.135 208.268,150.218 208.463,150.672 208.893 M155.637 211.652 C 155.337 211.952,155.454 212.267,155.867 212.267 C 156.087 212.267,156.267 212.154,156.267 212.016 C 156.267 211.679,155.850 211.439,155.637 211.652 M157.475 212.787 C 157.400 212.907,157.527 213.162,157.757 213.353 C 158.149 213.678,158.646 213.369,158.663 212.790 C 158.669 212.553,157.621 212.550,157.475 212.787 M160.642 214.460 C 160.680 214.647,160.925 214.842,161.187 214.892 C 161.483 214.950,161.594 214.873,161.480 214.688 C 161.379 214.525,161.195 214.454,161.071 214.531 C 160.947 214.607,160.784 214.546,160.709 214.395 C 160.635 214.244,160.604 214.273,160.642 214.460 M162.400 215.368 C 162.400 215.617,162.551 215.733,162.768 215.649 C 162.970 215.572,163.270 215.643,163.434 215.808 C 163.627 216.000,163.733 216.008,163.733 215.829 C 163.733 215.677,163.433 215.416,163.067 215.249 C 162.508 214.994,162.400 215.013,162.400 215.368 " stroke="none" fill="#595043" fill-rule="evenodd"></path><path id="path2" d="M191.200 49.067 C 191.200 49.239,194.222 49.333,199.733 49.333 C 205.244 49.333,208.267 49.239,208.267 49.067 C 208.267 48.894,205.244 48.800,199.733 48.800 C 194.222 48.800,191.200 48.894,191.200 49.067 M211.037 49.747 C 211.577 50.057,211.708 50.251,211.475 50.395 C 211.272 50.521,211.438 50.602,211.905 50.604 C 212.324 50.606,212.819 50.485,213.005 50.334 C 213.245 50.139,213.489 50.191,213.845 50.514 C 214.197 50.832,214.403 50.878,214.534 50.666 C 214.784 50.262,213.896 49.620,213.067 49.606 C 212.700 49.599,211.920 49.529,211.333 49.449 L 210.267 49.304 211.037 49.747 M186.133 49.867 C 186.133 50.136,186.666 50.253,187.549 50.176 C 187.814 50.153,187.957 50.254,187.866 50.400 C 187.776 50.547,187.829 50.667,187.984 50.667 C 188.360 50.667,188.342 50.316,187.947 49.920 C 187.560 49.534,186.133 49.492,186.133 49.867 M192.267 49.902 C 192.267 50.029,192.767 50.133,193.378 50.133 C 193.989 50.133,194.399 50.043,194.289 49.933 C 194.006 49.650,192.267 49.623,192.267 49.902 M205.723 49.884 C 205.644 50.011,206.122 50.103,206.785 50.090 C 207.448 50.077,207.932 49.973,207.862 49.860 C 207.688 49.578,205.900 49.598,205.723 49.884 M182.726 50.776 C 182.775 51.364,182.824 51.387,183.315 51.042 C 183.611 50.836,184.065 50.667,184.326 50.667 C 184.587 50.667,184.800 50.547,184.800 50.400 C 184.800 50.253,184.321 50.133,183.736 50.133 C 182.775 50.133,182.678 50.195,182.726 50.776 M214.933 50.367 C 214.933 50.651,216.492 50.991,216.832 50.780 C 216.966 50.698,217.006 50.518,216.922 50.382 C 216.727 50.067,214.933 50.053,214.933 50.367 M180.800 51.033 C 180.800 51.298,181.028 51.417,181.472 51.383 C 182.345 51.316,182.348 50.825,181.475 50.716 C 181.014 50.658,180.800 50.759,180.800 51.033 M217.867 50.904 C 217.867 51.169,219.189 51.567,219.392 51.364 C 219.462 51.293,219.441 51.107,219.344 50.951 C 219.132 50.608,217.867 50.568,217.867 50.904 M178.759 51.533 C 178.691 51.643,178.342 51.733,177.984 51.733 C 177.626 51.733,177.333 51.860,177.333 52.016 C 177.333 52.171,177.445 52.229,177.582 52.145 C 177.718 52.060,177.905 52.113,177.997 52.262 C 178.270 52.704,178.594 52.573,178.755 51.956 C 178.877 51.493,178.981 51.441,179.284 51.693 C 179.576 51.935,179.727 51.929,179.942 51.670 C 180.154 51.414,180.061 51.333,179.552 51.333 C 179.184 51.333,178.827 51.423,178.759 51.533 M219.600 51.615 L 218.800 52.005 219.664 51.876 C 220.644 51.730,221.402 51.939,221.183 52.295 C 221.102 52.426,221.162 52.533,221.318 52.533 C 221.473 52.533,221.600 52.406,221.600 52.251 C 221.600 52.096,221.720 52.043,221.867 52.133 C 222.013 52.224,222.133 52.171,222.133 52.016 C 222.133 51.860,221.833 51.733,221.467 51.733 C 221.100 51.733,220.800 51.613,220.800 51.467 C 220.800 51.115,220.563 51.144,219.600 51.615 M175.078 52.248 C 174.994 52.385,175.041 52.568,175.183 52.656 C 175.528 52.869,176.800 52.540,176.800 52.238 C 176.800 51.922,175.274 51.931,175.078 52.248 M222.543 52.252 C 222.447 52.407,222.406 52.542,222.451 52.552 C 223.545 52.805,224.567 52.766,224.472 52.477 C 224.331 52.049,222.780 51.868,222.543 52.252 M225.117 52.965 C 225.355 53.202,225.682 53.314,225.845 53.213 C 226.280 52.945,225.925 52.533,225.260 52.533 C 224.731 52.533,224.720 52.567,225.117 52.965 M169.753 54.273 C 169.470 54.486,169.290 54.712,169.353 54.774 C 169.585 55.004,170.952 54.590,170.861 54.317 C 170.712 53.868,170.309 53.853,169.753 54.273 M228.780 53.933 C 228.578 54.593,228.641 54.875,228.963 54.752 C 229.170 54.672,229.519 54.755,229.737 54.936 C 230.240 55.354,230.309 54.682,229.813 54.187 C 229.536 53.910,228.839 53.739,228.780 53.933 M166.400 55.733 C 166.400 55.880,166.640 56.000,166.933 56.000 C 167.227 56.000,167.467 55.880,167.467 55.733 C 167.467 55.587,167.227 55.467,166.933 55.467 C 166.640 55.467,166.400 55.587,166.400 55.733 M234.867 56.852 C 235.189 57.174,235.532 57.357,235.631 57.258 C 235.890 56.999,235.209 56.267,234.708 56.267 C 234.365 56.267,234.396 56.382,234.867 56.852 M162.200 57.667 C 162.261 57.850,162.471 58.000,162.667 58.000 C 162.862 58.000,163.072 57.850,163.133 57.667 C 163.199 57.468,163.010 57.333,162.667 57.333 C 162.323 57.333,162.134 57.468,162.200 57.667 M236.427 57.707 C 236.612 58.189,237.332 58.373,238.004 58.111 C 238.502 57.917,238.497 57.903,237.933 57.885 C 237.603 57.875,237.333 57.747,237.333 57.600 C 237.333 57.453,237.097 57.333,236.808 57.333 C 236.468 57.333,236.334 57.465,236.427 57.707 M159.867 58.933 C 159.776 59.080,159.956 59.200,160.267 59.200 C 160.577 59.200,160.757 59.080,160.667 58.933 C 160.576 58.787,160.396 58.667,160.267 58.667 C 160.137 58.667,159.957 58.787,159.867 58.933 M238.667 58.933 C 238.355 59.135,238.429 59.193,239.000 59.196 C 239.403 59.198,239.733 59.080,239.733 58.933 C 239.733 58.596,239.188 58.596,238.667 58.933 M158.933 59.467 C 158.933 59.613,158.693 59.733,158.400 59.733 C 158.104 59.733,157.867 59.911,157.867 60.133 C 157.867 60.637,158.140 60.637,159.103 60.135 C 159.523 59.916,159.710 59.736,159.518 59.735 C 159.326 59.734,159.243 59.613,159.333 59.467 C 159.424 59.320,159.371 59.200,159.216 59.200 C 159.060 59.200,158.933 59.320,158.933 59.467 M241.006 60.049 C 240.889 60.399,241.906 61.067,242.555 61.067 C 243.039 61.067,242.748 60.361,242.182 60.159 C 241.935 60.072,241.595 59.934,241.427 59.853 C 241.258 59.773,241.069 59.861,241.006 60.049 M195.333 61.338 C 180.293 62.195,163.559 69.007,155.279 77.642 L 154.425 78.533 155.146 78.589 C 155.902 78.646,161.710 78.720,162.400 78.681 C 162.620 78.668,163.191 78.734,163.669 78.826 C 164.147 78.919,164.687 78.874,164.869 78.728 C 165.090 78.549,165.766 78.553,166.907 78.740 C 168.141 78.942,168.834 78.937,169.409 78.720 C 169.965 78.510,170.360 78.503,170.719 78.695 C 171.004 78.847,171.376 78.871,171.550 78.749 C 171.724 78.627,172.587 78.571,173.467 78.626 C 174.961 78.719,176.716 78.733,180.267 78.682 C 182.346 78.652,182.344 78.652,182.933 78.672 C 183.782 78.700,185.292 78.692,185.800 78.657 C 186.190 78.630,188.169 78.647,190.533 78.698 C 191.164 78.712,193.771 78.701,194.533 78.682 C 195.048 78.669,199.152 78.696,201.067 78.724 C 201.580 78.732,202.270 78.725,202.600 78.707 C 202.930 78.690,203.470 78.689,203.800 78.706 C 204.387 78.735,210.555 78.713,212.667 78.674 C 213.253 78.664,214.753 78.670,216.000 78.688 C 217.247 78.706,218.537 78.711,218.867 78.699 C 219.197 78.686,219.767 78.676,220.133 78.676 C 220.500 78.676,221.070 78.686,221.400 78.699 C 221.730 78.711,223.020 78.713,224.267 78.702 C 228.095 78.670,229.973 78.667,231.000 78.690 C 236.021 78.804,245.866 78.756,246.005 78.617 C 246.429 78.193,241.847 74.370,237.564 71.574 C 229.543 66.337,220.439 63.253,208.133 61.602 C 205.529 61.253,199.143 61.121,195.333 61.338 M245.764 62.815 C 245.540 63.400,245.533 63.387,246.133 63.544 C 246.754 63.706,246.860 63.159,246.298 62.693 C 246.012 62.456,245.892 62.483,245.764 62.815 M247.104 63.867 C 247.015 64.097,247.099 64.267,247.300 64.267 C 247.493 64.267,247.857 64.495,248.109 64.773 C 248.362 65.052,248.800 65.341,249.084 65.415 C 249.823 65.608,249.744 64.881,249.000 64.646 C 248.670 64.542,248.206 64.234,247.969 63.962 C 247.446 63.362,247.303 63.346,247.104 63.867 M151.200 64.400 C 151.200 64.620,151.320 64.800,151.467 64.800 C 151.613 64.800,151.733 64.620,151.733 64.400 C 151.733 64.180,151.613 64.000,151.467 64.000 C 151.320 64.000,151.200 64.180,151.200 64.400 M149.493 65.617 C 149.100 66.085,148.842 66.531,148.921 66.610 C 148.999 66.688,149.304 66.475,149.598 66.135 C 149.893 65.796,150.133 65.621,150.133 65.746 C 150.133 65.871,150.277 65.829,150.453 65.653 C 150.679 65.428,150.690 65.250,150.491 65.051 C 150.291 64.851,149.997 65.019,149.493 65.617 M250.467 66.049 C 249.971 66.241,250.064 66.667,250.601 66.667 C 250.858 66.667,251.407 67.025,251.820 67.463 C 252.233 67.901,252.923 68.467,253.352 68.720 C 253.782 68.974,254.133 69.276,254.133 69.391 C 254.133 69.506,254.260 69.600,254.416 69.600 C 254.571 69.600,254.624 69.480,254.533 69.333 C 254.443 69.187,254.512 69.067,254.688 69.067 C 254.864 69.067,254.563 68.765,254.019 68.396 C 253.475 68.027,252.918 67.794,252.782 67.878 C 252.645 67.962,252.518 67.904,252.500 67.749 C 252.482 67.594,252.446 67.317,252.421 67.133 C 252.396 66.950,252.223 66.833,252.036 66.873 C 251.849 66.913,251.494 66.715,251.248 66.433 C 251.002 66.151,250.650 65.978,250.467 66.049 M147.731 66.803 C 147.457 67.133,147.496 67.200,147.967 67.200 C 148.279 67.200,148.533 67.087,148.533 66.949 C 148.533 66.487,148.064 66.402,147.731 66.803 M145.646 68.351 C 144.859 69.189,144.864 69.720,145.656 69.269 C 146.477 68.802,146.933 68.355,146.933 68.019 C 146.933 67.530,146.253 67.705,145.646 68.351 M255.200 69.988 C 255.200 70.490,256.443 71.733,256.945 71.733 C 257.547 71.733,257.411 71.380,256.454 70.452 C 255.483 69.511,255.200 69.406,255.200 69.988 M142.800 70.933 C 142.891 71.080,142.774 71.200,142.540 71.200 C 142.307 71.200,142.008 71.470,141.875 71.800 C 141.742 72.130,141.626 72.305,141.617 72.189 C 141.608 72.074,141.433 72.134,141.228 72.323 C 141.023 72.512,140.910 72.757,140.977 72.867 C 141.044 72.977,140.938 73.067,140.742 73.067 C 140.373 73.067,139.631 73.799,139.526 74.267 C 139.494 74.413,139.320 74.533,139.141 74.533 C 138.962 74.533,138.680 74.805,138.514 75.138 C 138.348 75.471,138.116 75.831,137.997 75.938 C 137.878 76.045,137.879 75.965,137.998 75.759 C 138.145 75.507,138.115 75.447,137.908 75.575 C 137.739 75.679,137.600 75.958,137.600 76.194 C 137.600 76.429,137.528 76.550,137.440 76.462 C 137.178 76.200,136.081 77.431,136.187 77.867 C 136.244 78.098,135.941 78.460,135.471 78.724 C 135.023 78.975,134.555 79.455,134.431 79.791 C 134.307 80.126,134.099 80.400,133.969 80.400 C 133.840 80.400,133.763 80.490,133.800 80.600 C 133.837 80.710,133.709 80.800,133.517 80.800 C 132.902 80.800,131.556 82.393,131.961 82.642 C 132.223 82.805,132.173 82.896,131.762 83.003 C 131.460 83.082,131.060 83.484,130.873 83.897 C 130.686 84.309,130.263 84.939,129.933 85.296 C 129.603 85.653,129.333 86.107,129.333 86.306 C 129.333 86.504,129.153 86.667,128.933 86.667 C 128.713 86.667,128.533 86.824,128.533 87.016 C 128.533 87.209,128.317 87.599,128.052 87.883 C 127.529 88.444,127.467 88.586,127.467 89.216 C 127.467 89.444,127.352 89.560,127.211 89.474 C 126.891 89.276,126.048 90.860,126.226 91.324 C 126.299 91.513,126.077 91.795,125.733 91.952 C 125.281 92.158,125.148 92.388,125.252 92.785 C 125.334 93.097,125.267 93.333,125.098 93.333 C 124.934 93.333,124.800 93.527,124.800 93.764 C 124.800 94.079,124.637 94.155,124.200 94.044 C 123.636 93.902,123.629 93.915,124.093 94.262 C 124.365 94.465,124.504 94.765,124.403 94.929 C 124.269 95.145,124.123 95.146,123.867 94.933 C 123.422 94.564,123.240 94.857,123.158 96.072 C 123.122 96.600,123.006 96.978,122.898 96.912 C 122.791 96.846,122.628 96.913,122.536 97.062 C 122.444 97.211,122.526 97.335,122.718 97.337 C 122.988 97.341,122.983 97.394,122.694 97.577 C 122.477 97.715,122.395 98.002,122.497 98.269 C 122.626 98.604,122.565 98.685,122.270 98.571 C 122.045 98.485,121.867 98.562,121.867 98.744 C 121.867 98.924,121.627 99.222,121.333 99.405 C 121.040 99.588,120.800 99.864,120.800 100.018 C 120.800 100.172,120.912 100.229,121.048 100.145 C 121.185 100.060,121.372 100.113,121.464 100.262 C 121.556 100.411,121.461 100.533,121.253 100.533 C 120.993 100.533,120.914 100.742,121.001 101.200 C 121.071 101.567,121.024 101.867,120.895 101.867 C 120.767 101.867,120.504 102.119,120.311 102.428 C 120.118 102.737,120.089 102.910,120.247 102.812 C 120.404 102.715,120.533 102.762,120.533 102.918 C 120.533 103.073,120.323 103.202,120.067 103.204 C 119.720 103.207,119.689 103.264,119.946 103.428 C 120.223 103.603,120.210 103.715,119.882 103.987 C 119.657 104.174,119.531 104.421,119.601 104.536 C 119.672 104.650,119.543 104.816,119.315 104.904 C 119.086 104.991,118.966 105.171,119.048 105.304 C 119.130 105.436,119.010 105.616,118.781 105.704 C 118.553 105.791,118.387 106.074,118.414 106.332 C 118.508 107.254,118.396 107.762,118.133 107.600 C 117.987 107.509,117.867 107.552,117.867 107.695 C 117.867 107.838,118.017 108.019,118.200 108.096 C 118.439 108.196,118.401 108.320,118.067 108.531 C 117.810 108.694,117.600 109.121,117.600 109.480 C 117.600 109.839,117.484 110.133,117.342 110.133 C 117.200 110.133,117.147 110.298,117.224 110.499 C 117.301 110.700,117.163 111.066,116.917 111.312 C 116.671 111.558,116.545 111.833,116.636 111.925 C 116.727 112.016,116.631 112.351,116.422 112.670 C 116.189 113.027,116.084 113.681,116.151 114.371 C 116.210 114.988,116.154 115.429,116.027 115.350 C 115.683 115.137,115.499 116.459,115.826 116.786 C 116.022 116.982,115.960 117.067,115.619 117.067 C 115.202 117.067,115.156 117.217,115.297 118.102 C 115.414 118.828,115.352 119.230,115.092 119.446 C 114.887 119.616,114.720 120.182,114.720 120.704 C 114.720 121.226,114.588 121.785,114.427 121.947 C 114.265 122.108,114.135 122.786,114.137 123.453 C 114.140 124.335,114.212 124.557,114.400 124.267 C 114.562 124.015,114.660 123.987,114.663 124.191 C 114.665 124.369,114.411 124.651,114.099 124.818 C 113.525 125.126,113.498 125.934,113.986 128.254 C 114.062 128.614,113.945 129.182,113.726 129.515 C 113.280 130.196,113.146 144.642,113.580 145.187 C 113.884 145.568,114.079 147.467,113.813 147.467 C 113.501 147.467,113.552 149.006,113.871 149.203 C 114.020 149.295,114.081 149.469,114.006 149.590 C 113.931 149.712,114.049 149.880,114.268 149.964 C 114.487 150.048,114.665 150.270,114.663 150.458 C 114.660 150.698,114.580 150.680,114.395 150.400 C 114.066 149.899,114.232 152.000,114.621 153.247 C 114.766 153.712,114.821 154.157,114.744 154.234 C 114.666 154.311,114.787 154.558,115.011 154.783 C 115.237 155.009,115.356 155.430,115.278 155.729 C 115.201 156.025,115.258 156.267,115.404 156.267 C 115.551 156.267,115.728 156.563,115.797 156.925 C 115.866 157.287,115.820 157.520,115.695 157.443 C 115.393 157.257,115.407 157.471,115.773 158.694 C 115.941 159.256,116.181 159.653,116.306 159.576 C 116.431 159.498,116.533 159.629,116.533 159.867 C 116.533 160.104,116.413 160.224,116.267 160.133 C 115.918 159.918,115.930 160.169,116.320 161.248 C 116.496 161.735,116.736 162.133,116.854 162.133 C 116.971 162.133,117.067 162.546,117.067 163.051 C 117.067 163.556,117.187 164.043,117.333 164.133 C 117.480 164.224,117.602 164.561,117.604 164.882 C 117.607 165.304,117.671 165.368,117.834 165.111 C 118.014 164.826,118.093 164.842,118.227 165.191 C 118.319 165.431,118.284 165.560,118.149 165.476 C 118.014 165.393,117.827 165.449,117.733 165.601 C 117.491 165.993,118.459 167.985,118.896 167.993 C 119.148 167.998,119.207 168.202,119.090 168.667 C 118.998 169.033,119.015 169.334,119.128 169.335 C 119.341 169.338,120.000 170.598,120.000 171.002 C 120.000 171.128,119.850 171.145,119.667 171.039 C 119.483 170.934,119.624 171.167,119.980 171.557 C 120.335 171.947,120.548 172.267,120.452 172.267 C 120.356 172.267,120.570 172.791,120.928 173.433 C 121.286 174.074,121.505 174.673,121.413 174.764 C 121.322 174.855,121.488 175.141,121.782 175.398 C 122.076 175.656,122.267 176.011,122.207 176.187 C 122.147 176.364,122.345 176.720,122.649 176.980 C 122.952 177.239,123.200 177.730,123.200 178.070 C 123.200 178.411,123.430 178.936,123.711 179.238 C 123.992 179.539,124.302 180.104,124.399 180.492 C 124.618 181.362,125.049 181.909,125.364 181.715 C 125.494 181.634,125.600 181.803,125.600 182.089 C 125.600 182.375,125.786 182.681,126.013 182.768 C 126.239 182.855,126.389 183.138,126.346 183.396 C 126.293 183.712,126.464 183.895,126.866 183.952 C 127.369 184.023,127.421 184.120,127.190 184.552 C 126.996 184.915,127.001 185.067,127.206 185.067 C 127.367 185.067,127.424 185.187,127.333 185.333 C 127.243 185.480,127.356 185.600,127.584 185.600 C 127.813 185.600,128.000 185.753,128.000 185.941 C 128.000 186.286,128.749 187.050,129.156 187.118 C 129.641 187.200,129.658 187.467,129.178 187.475 C 128.687 187.483,128.686 187.498,129.151 187.851 C 129.418 188.053,129.658 188.319,129.684 188.442 C 129.711 188.566,129.888 188.649,130.076 188.628 C 130.301 188.603,130.334 188.694,130.171 188.895 C 130.008 189.095,130.143 189.520,130.561 190.126 C 130.913 190.635,131.200 190.905,131.200 190.726 C 131.200 190.547,131.316 190.400,131.458 190.400 C 131.600 190.400,131.648 190.580,131.563 190.800 C 131.461 191.066,131.575 191.201,131.905 191.204 C 132.266 191.207,132.306 191.267,132.055 191.427 C 131.786 191.598,131.828 191.787,132.246 192.290 C 132.750 192.895,132.784 192.902,132.818 192.400 C 132.847 191.960,132.887 191.984,133.045 192.533 C 133.159 192.930,133.418 193.185,133.685 193.163 C 134.115 193.127,134.242 193.366,134.157 194.049 C 134.136 194.222,135.802 196.065,137.859 198.144 C 139.917 200.223,141.600 201.847,141.600 201.752 C 141.600 201.657,141.767 201.734,141.972 201.923 C 142.177 202.112,142.278 202.376,142.197 202.509 C 142.116 202.642,142.309 202.683,142.625 202.600 C 142.941 202.518,143.200 202.566,143.200 202.707 C 143.200 202.849,143.350 202.875,143.533 202.765 C 143.799 202.605,143.800 202.647,143.536 202.973 C 143.153 203.446,143.348 203.762,143.893 203.553 C 144.118 203.467,144.267 203.580,144.267 203.838 C 144.267 204.074,144.387 204.267,144.533 204.267 C 144.680 204.267,144.800 204.126,144.800 203.954 C 144.800 203.781,145.100 203.922,145.466 204.266 C 145.832 204.610,146.079 204.943,146.015 205.007 C 145.807 205.215,147.291 206.422,147.607 206.301 C 148.134 206.099,148.740 206.619,148.305 206.900 C 148.053 207.063,148.032 207.189,148.238 207.316 C 148.401 207.416,148.533 207.408,148.533 207.298 C 148.533 207.188,148.711 207.331,148.928 207.616 C 149.271 208.065,149.360 208.081,149.606 207.733 C 149.841 207.401,149.876 207.424,149.811 207.867 C 149.762 208.201,149.868 208.372,150.094 208.324 C 150.741 208.188,151.467 208.559,151.467 209.025 C 151.467 209.718,152.491 210.500,152.926 210.139 C 153.194 209.917,153.268 209.954,153.239 210.295 C 153.217 210.541,153.367 210.801,153.570 210.873 C 153.796 210.952,153.868 210.885,153.755 210.701 C 153.652 210.536,153.639 210.400,153.724 210.400 C 153.810 210.400,153.999 210.713,154.145 211.096 C 154.368 211.684,154.538 211.774,155.230 211.672 C 155.892 211.575,156.104 211.671,156.331 212.167 C 156.485 212.506,156.714 212.720,156.839 212.643 C 156.964 212.565,157.067 212.644,157.067 212.817 C 157.067 213.031,157.173 213.048,157.400 212.869 C 158.032 212.370,158.668 212.569,158.506 213.215 C 158.422 213.550,158.501 213.897,158.686 214.012 C 158.898 214.143,158.948 214.106,158.825 213.908 C 158.523 213.418,159.065 213.550,159.831 214.153 C 160.315 214.533,160.535 214.596,160.537 214.353 C 160.541 214.063,160.582 214.063,160.767 214.356 C 160.891 214.552,161.070 214.702,161.163 214.689 C 161.643 214.625,161.695 214.700,161.333 214.933 C 161.067 215.106,161.044 215.193,161.267 215.196 C 161.450 215.198,161.570 215.335,161.533 215.500 C 161.410 216.054,162.166 216.066,162.311 215.513 C 162.460 214.942,163.733 215.207,163.733 215.809 C 163.733 215.950,163.553 215.916,163.333 215.733 C 163.048 215.496,162.933 215.489,162.933 215.707 C 162.933 215.876,163.263 216.133,163.667 216.279 C 164.070 216.425,164.642 216.667,164.938 216.817 C 165.234 216.968,165.744 217.111,166.071 217.135 C 166.399 217.160,166.667 217.282,166.667 217.406 C 166.667 217.530,166.787 217.557,166.933 217.467 C 167.080 217.376,167.200 217.425,167.200 217.576 C 167.200 217.727,167.368 217.786,167.573 217.707 C 167.778 217.628,168.026 217.694,168.125 217.853 C 168.223 218.012,168.415 218.073,168.552 217.989 C 168.688 217.904,168.800 217.975,168.800 218.146 C 168.800 218.318,168.986 218.386,169.214 218.298 C 169.441 218.211,169.560 218.249,169.477 218.384 C 169.267 218.724,170.120 218.951,171.000 218.790 C 171.547 218.690,171.733 218.763,171.733 219.077 C 171.733 219.327,171.609 219.421,171.425 219.308 C 171.235 219.190,171.190 219.235,171.308 219.425 C 171.533 219.789,172.267 219.840,172.267 219.492 C 172.267 219.359,172.502 219.312,172.790 219.387 C 173.079 219.462,173.289 219.661,173.257 219.829 C 173.226 219.997,173.616 220.173,174.132 220.222 C 174.645 220.270,175.213 220.434,175.396 220.585 C 175.578 220.736,175.908 220.790,176.130 220.705 C 176.352 220.620,176.533 220.653,176.533 220.778 C 176.533 220.904,176.887 221.058,177.319 221.121 C 177.752 221.185,178.044 221.139,177.970 221.018 C 177.896 220.898,177.962 220.800,178.118 220.800 C 178.273 220.800,178.400 220.980,178.400 221.200 C 178.400 221.547,179.422 221.775,180.333 221.632 C 180.443 221.614,180.533 221.729,180.533 221.887 C 180.533 222.051,180.921 222.141,181.437 222.096 C 181.934 222.054,182.528 222.174,182.757 222.364 C 182.986 222.554,183.509 222.674,183.920 222.631 C 184.331 222.588,184.787 222.627,184.933 222.717 C 185.502 223.068,187.733 223.264,187.733 222.964 C 187.733 222.800,187.943 222.669,188.200 222.671 C 188.591 222.674,188.603 222.715,188.274 222.923 C 188.059 223.059,187.939 223.224,188.008 223.288 C 188.287 223.550,193.750 223.903,194.043 223.678 C 194.229 223.535,194.421 223.552,194.525 223.720 C 194.762 224.104,205.238 224.104,205.475 223.720 C 205.594 223.528,205.760 223.534,206.010 223.741 C 206.245 223.937,206.914 223.980,207.919 223.866 C 209.873 223.644,213.872 222.956,214.400 222.751 C 214.620 222.665,215.256 222.621,215.814 222.652 C 216.894 222.713,217.704 222.270,217.425 221.770 C 217.325 221.592,217.403 221.604,217.614 221.800 C 218.147 222.294,219.491 222.241,219.296 221.733 C 219.212 221.513,219.276 221.333,219.438 221.333 C 219.600 221.333,219.733 221.437,219.733 221.564 C 219.733 221.692,220.241 221.684,220.867 221.548 C 221.490 221.412,222.330 221.234,222.733 221.153 C 223.137 221.072,223.467 220.893,223.467 220.754 C 223.467 220.615,223.347 220.576,223.200 220.667 C 223.053 220.757,222.933 220.704,222.933 220.549 C 222.933 220.176,223.284 220.190,223.674 220.580 C 223.914 220.821,224.098 220.795,224.460 220.469 C 224.772 220.189,225.199 220.096,225.713 220.196 C 226.347 220.318,226.614 220.202,227.142 219.573 C 227.500 219.148,227.712 218.950,227.614 219.133 C 227.334 219.656,227.943 219.524,228.533 218.933 C 229.097 218.370,229.478 218.218,229.200 218.667 C 228.935 219.095,229.768 218.973,230.136 218.530 C 230.320 218.308,230.605 218.142,230.769 218.161 C 231.339 218.229,231.733 218.132,231.702 217.933 C 231.623 217.433,231.762 217.232,231.965 217.553 C 232.151 217.846,232.253 217.846,232.561 217.553 C 232.766 217.359,233.329 217.169,233.814 217.131 C 234.298 217.093,234.950 216.823,235.264 216.531 C 235.577 216.239,236.123 216.000,236.475 216.000 C 236.895 216.000,237.165 215.813,237.258 215.461 C 237.362 215.063,237.486 214.995,237.735 215.201 C 237.977 215.403,238.114 215.368,238.225 215.078 C 238.314 214.847,238.555 214.743,238.790 214.833 C 239.015 214.920,239.200 214.850,239.200 214.679 C 239.200 214.508,239.312 214.438,239.448 214.522 C 239.585 214.606,239.872 214.425,240.087 214.119 C 240.313 213.796,240.519 213.691,240.578 213.868 C 240.641 214.055,240.946 213.934,241.371 213.553 C 241.751 213.212,242.212 212.898,242.397 212.856 C 243.107 212.692,245.045 211.534,244.882 211.371 C 244.788 211.277,244.919 211.200,245.174 211.200 C 245.524 211.200,245.596 211.055,245.472 210.600 C 245.333 210.093,245.352 210.071,245.594 210.456 C 245.752 210.706,246.057 210.844,246.272 210.761 C 246.487 210.678,246.586 210.485,246.491 210.331 C 246.386 210.162,246.447 210.131,246.642 210.252 C 247.021 210.486,247.998 209.697,247.892 209.242 C 247.853 209.072,247.871 209.023,247.933 209.133 C 248.106 209.443,248.647 209.371,249.206 208.962 C 249.656 208.633,249.670 208.535,249.328 208.096 C 248.968 207.632,248.981 207.633,249.538 208.108 C 250.080 208.571,250.133 208.575,250.133 208.159 C 250.133 207.908,250.253 207.776,250.400 207.867 C 250.547 207.957,250.668 207.934,250.669 207.816 C 250.671 207.581,251.932 206.933,252.386 206.933 C 252.541 206.933,253.002 206.513,253.411 206.000 C 253.821 205.487,254.384 205.067,254.662 205.067 C 254.941 205.067,255.242 204.948,255.331 204.803 C 255.427 204.648,255.297 204.605,255.014 204.698 C 254.750 204.785,254.923 204.606,255.400 204.299 C 255.906 203.973,256.267 203.518,256.267 203.204 C 256.267 202.856,256.443 202.667,256.767 202.667 C 257.303 202.667,257.935 202.074,257.809 201.690 C 257.642 201.177,258.924 200.185,259.725 200.208 C 260.169 200.221,260.533 200.112,260.533 199.966 C 260.533 199.821,260.438 199.761,260.321 199.833 C 260.204 199.906,259.934 199.855,259.721 199.720 C 259.400 199.517,259.414 199.474,259.804 199.471 C 260.430 199.465,261.151 199.007,262.429 197.800 C 263.338 196.942,263.409 196.800,262.929 196.800 C 262.621 196.800,262.433 196.696,262.511 196.569 C 262.590 196.442,262.987 196.399,263.394 196.472 C 263.800 196.546,264.064 196.531,263.980 196.439 C 263.896 196.347,264.669 195.400,265.698 194.336 C 266.727 193.271,267.595 192.254,267.626 192.076 C 267.658 191.898,267.958 191.367,268.294 190.895 C 268.630 190.423,268.761 190.126,268.586 190.234 C 268.410 190.343,268.267 190.304,268.267 190.149 C 268.267 189.994,268.426 189.867,268.620 189.867 C 269.157 189.867,270.342 188.487,269.932 188.341 C 269.747 188.275,269.661 188.117,269.740 187.989 C 269.819 187.861,270.080 187.832,270.319 187.924 C 270.610 188.035,270.690 187.987,270.561 187.779 C 270.455 187.607,270.508 187.467,270.679 187.467 C 270.858 187.467,270.919 187.281,270.822 187.029 C 270.682 186.663,270.721 186.646,271.061 186.928 C 271.403 187.212,271.467 187.176,271.467 186.699 C 271.467 186.388,271.601 186.133,271.764 186.133 C 271.928 186.133,272.003 185.906,271.930 185.628 C 271.838 185.275,271.997 185.032,272.459 184.821 C 272.975 184.586,273.055 184.441,272.822 184.159 C 272.589 183.879,272.642 183.767,273.060 183.658 C 273.355 183.581,273.680 183.296,273.780 183.025 C 273.881 182.755,274.211 182.307,274.515 182.031 C 274.897 181.682,274.964 181.492,274.733 181.409 C 274.550 181.343,274.400 181.172,274.400 181.029 C 274.400 180.886,274.540 180.855,274.712 180.961 C 274.924 181.092,274.968 181.007,274.848 180.697 C 274.743 180.423,274.780 180.305,274.938 180.403 C 275.084 180.493,275.281 180.350,275.374 180.084 C 275.468 179.818,275.839 179.281,276.198 178.892 C 276.558 178.502,276.840 178.112,276.826 178.025 C 276.719 177.375,276.845 176.796,277.064 176.931 C 277.214 177.025,277.260 176.918,277.169 176.683 C 277.078 176.444,277.184 176.205,277.422 176.114 C 277.648 176.027,277.768 175.786,277.688 175.578 C 277.608 175.370,277.647 175.200,277.774 175.200 C 278.208 175.200,278.745 174.080,278.411 173.873 C 277.916 173.568,278.641 172.267,279.309 172.263 C 279.749 172.259,279.786 172.207,279.482 172.015 C 279.158 171.810,279.152 171.653,279.444 171.019 C 279.635 170.605,280.011 169.583,280.280 168.748 C 280.548 167.913,280.966 166.928,281.207 166.560 C 281.449 166.191,281.574 165.773,281.485 165.630 C 281.397 165.487,281.455 165.290,281.614 165.191 C 281.773 165.093,281.848 164.870,281.781 164.695 C 281.714 164.521,281.826 164.150,282.030 163.871 C 282.233 163.593,282.400 163.052,282.400 162.669 C 282.400 162.286,282.498 161.859,282.618 161.720 C 282.818 161.487,283.421 159.297,283.577 158.239 C 283.613 157.994,283.866 157.629,284.139 157.430 C 284.412 157.230,284.506 157.067,284.349 157.067 C 283.984 157.067,283.706 156.054,284.040 155.942 C 284.177 155.896,284.325 155.528,284.368 155.124 C 284.411 154.720,284.676 154.215,284.957 154.003 C 285.237 153.791,285.331 153.613,285.164 153.608 C 284.577 153.592,284.561 152.529,285.139 151.990 C 285.482 151.671,285.565 151.467,285.354 151.467 C 285.097 151.467,285.057 151.207,285.198 150.467 C 285.303 149.917,285.421 149.183,285.461 148.836 C 285.501 148.490,285.638 148.130,285.767 148.036 C 286.344 147.616,286.667 143.291,286.099 143.584 C 285.898 143.688,285.951 143.596,286.216 143.379 C 286.569 143.090,286.612 142.931,286.377 142.786 C 286.133 142.635,286.089 140.781,286.194 135.094 C 286.335 127.453,286.303 126.797,285.803 127.106 C 285.641 127.206,285.595 127.157,285.696 126.993 C 285.795 126.834,285.753 126.628,285.604 126.536 C 285.455 126.444,285.335 126.226,285.337 126.051 C 285.340 125.855,285.450 125.887,285.625 126.133 C 285.840 126.437,285.867 126.340,285.738 125.733 C 285.373 124.019,285.311 123.295,285.579 123.867 C 285.808 124.354,285.831 124.340,285.848 123.699 C 285.859 123.268,285.651 122.855,285.307 122.627 C 284.904 122.359,284.747 121.975,284.747 121.260 C 284.747 120.713,284.633 120.195,284.494 120.109 C 284.336 120.012,284.342 119.831,284.508 119.631 C 284.904 119.154,284.749 118.137,284.277 118.112 C 284.002 118.098,283.977 118.047,284.200 117.957 C 284.661 117.771,284.617 117.202,284.110 116.781 C 283.835 116.552,283.722 116.129,283.788 115.567 C 283.843 115.092,283.824 114.710,283.744 114.717 C 283.245 114.762,283.123 114.622,283.467 114.400 C 283.741 114.223,283.761 114.140,283.528 114.137 C 283.301 114.135,283.245 113.915,283.357 113.467 C 283.460 113.056,283.411 112.800,283.229 112.800 C 283.066 112.800,282.933 112.613,282.933 112.384 C 282.933 112.156,282.813 112.043,282.667 112.133 C 282.520 112.224,282.400 112.104,282.400 111.867 C 282.400 111.629,282.500 111.497,282.622 111.573 C 282.744 111.648,282.844 111.535,282.844 111.322 C 282.844 111.108,282.744 110.933,282.622 110.933 C 282.500 110.933,282.400 110.630,282.400 110.258 C 282.400 109.887,282.220 109.514,282.000 109.430 C 281.780 109.345,281.600 109.162,281.600 109.022 C 281.600 108.883,281.720 108.843,281.867 108.933 C 282.427 109.280,282.102 108.335,281.472 107.788 C 280.932 107.319,280.842 107.057,280.980 106.365 C 281.102 105.758,281.062 105.571,280.842 105.708 C 280.640 105.832,280.533 105.670,280.533 105.238 C 280.533 104.189,280.246 103.613,279.940 104.044 C 279.759 104.298,279.725 104.228,279.819 103.800 C 279.906 103.400,279.825 103.200,279.575 103.200 C 279.369 103.200,279.200 102.967,279.200 102.682 C 279.200 102.398,279.080 102.091,278.933 102.000 C 278.787 101.909,278.667 101.715,278.667 101.569 C 278.667 101.422,278.788 101.377,278.935 101.468 C 279.375 101.740,278.590 100.173,278.032 99.667 C 277.749 99.409,277.662 99.200,277.840 99.200 C 278.016 99.200,277.837 98.900,277.441 98.533 C 277.046 98.167,276.860 97.867,277.028 97.867 C 277.574 97.867,277.350 97.133,276.756 96.978 C 276.281 96.854,276.237 96.757,276.507 96.432 C 276.774 96.110,276.734 95.983,276.284 95.743 C 275.981 95.580,275.733 95.205,275.733 94.908 C 275.733 94.568,275.619 94.439,275.425 94.559 C 275.233 94.678,275.190 94.632,275.312 94.435 C 275.564 94.026,274.902 92.533,274.468 92.533 C 274.284 92.533,274.133 92.368,274.133 92.166 C 274.133 91.964,273.955 91.650,273.736 91.469 C 273.518 91.288,273.413 91.020,273.503 90.875 C 273.604 90.712,273.448 90.679,273.100 90.789 C 272.586 90.953,272.557 90.907,272.788 90.297 C 273.004 89.730,272.976 89.651,272.611 89.791 C 272.319 89.904,272.243 89.854,272.376 89.639 C 272.495 89.446,272.434 89.349,272.220 89.393 C 271.981 89.443,271.892 89.229,271.943 88.733 C 271.986 88.330,271.896 88.000,271.743 88.000 C 271.591 88.000,271.467 87.807,271.467 87.571 C 271.467 87.294,271.321 87.199,271.053 87.302 C 270.825 87.389,270.705 87.355,270.785 87.225 C 270.865 87.095,270.751 86.920,270.532 86.836 C 270.313 86.752,270.133 86.393,270.133 86.038 C 270.133 85.587,269.993 85.404,269.667 85.430 C 269.359 85.454,269.227 85.307,269.279 84.996 C 269.323 84.738,269.166 84.452,268.931 84.362 C 268.695 84.272,268.557 84.057,268.623 83.885 C 268.689 83.713,268.388 83.415,267.954 83.223 C 267.474 83.010,267.220 82.732,267.305 82.511 C 267.381 82.312,267.261 81.965,267.036 81.741 C 266.812 81.517,266.716 81.333,266.822 81.333 C 266.928 81.333,266.757 81.109,266.441 80.835 C 266.125 80.562,265.867 80.214,265.867 80.063 C 265.867 79.912,265.417 79.392,264.867 78.908 C 264.317 78.424,263.900 77.923,263.940 77.794 C 263.980 77.666,263.912 77.623,263.789 77.699 C 263.665 77.776,263.395 77.605,263.190 77.319 C 262.984 77.034,262.655 76.800,262.459 76.800 C 262.262 76.800,262.169 76.691,262.251 76.558 C 262.387 76.339,260.975 74.752,259.538 73.509 C 258.550 72.654,259.111 74.021,260.171 75.050 C 260.663 75.529,261.067 76.037,261.067 76.179 C 261.067 76.485,262.305 77.607,262.465 77.446 C 262.526 77.385,262.857 77.635,263.201 78.001 C 263.545 78.367,263.746 78.667,263.648 78.667 C 263.550 78.667,263.862 79.177,264.341 79.800 C 265.749 81.633,266.215 82.114,266.445 81.972 C 266.563 81.899,266.595 82.011,266.514 82.221 C 266.433 82.432,266.675 82.935,267.050 83.341 C 267.426 83.746,267.733 84.240,267.733 84.439 C 267.733 84.638,267.823 84.800,267.933 84.801 C 268.043 84.801,268.493 85.338,268.933 85.995 C 269.373 86.651,269.823 87.191,269.933 87.194 C 270.043 87.197,270.133 87.440,270.133 87.733 C 270.133 88.027,270.253 88.267,270.400 88.267 C 270.547 88.267,270.667 88.447,270.667 88.667 C 270.667 88.887,270.768 89.067,270.893 89.067 C 271.017 89.067,271.345 89.577,271.621 90.200 C 271.898 90.823,272.270 91.485,272.448 91.671 C 272.625 91.857,273.124 92.757,273.556 93.671 C 273.988 94.585,274.540 95.753,274.783 96.267 C 275.025 96.780,275.450 97.560,275.726 98.000 C 276.002 98.440,276.236 99.130,276.247 99.533 C 276.258 99.937,276.357 100.267,276.468 100.267 C 276.579 100.267,276.810 100.597,276.982 101.000 C 277.862 103.065,278.133 103.843,278.133 104.299 C 278.133 104.575,278.253 104.800,278.400 104.800 C 278.547 104.800,278.667 105.076,278.667 105.413 C 278.667 105.751,278.771 106.141,278.898 106.280 C 279.025 106.419,279.335 107.373,279.587 108.400 C 279.839 109.427,280.155 110.475,280.289 110.730 C 280.424 110.984,280.533 111.470,280.533 111.810 C 280.533 112.149,280.632 112.541,280.753 112.680 C 280.874 112.819,281.182 114.073,281.437 115.467 C 281.693 116.860,282.006 118.480,282.134 119.067 C 283.106 123.531,283.455 137.923,282.714 142.933 C 274.754 196.725,224.166 228.768,173.333 212.216 C 135.580 199.923,110.948 159.812,117.196 120.800 C 117.781 117.144,118.889 111.971,119.207 111.404 C 119.350 111.149,119.467 110.729,119.468 110.470 C 119.468 110.212,119.766 109.160,120.129 108.133 C 120.492 107.107,120.791 106.004,120.794 105.682 C 120.797 105.361,120.920 105.024,121.067 104.933 C 121.213 104.843,121.333 104.545,121.333 104.273 C 121.333 104.000,121.503 103.437,121.710 103.022 C 122.119 102.205,123.137 99.928,123.480 99.067 C 124.290 97.030,124.664 96.267,124.851 96.267 C 124.970 96.267,125.067 95.967,125.067 95.600 C 125.067 95.233,125.187 94.933,125.333 94.933 C 125.480 94.933,125.600 94.693,125.600 94.400 C 125.600 94.107,125.690 93.866,125.800 93.864 C 125.910 93.863,126.237 93.323,126.526 92.664 C 126.816 92.006,127.117 91.467,127.195 91.467 C 127.273 91.467,127.506 91.077,127.714 90.600 C 128.112 89.686,129.328 87.928,129.667 87.778 C 129.777 87.729,129.867 87.459,129.867 87.178 C 129.867 86.897,129.979 86.667,130.115 86.667 C 130.252 86.667,130.436 86.441,130.523 86.164 C 130.611 85.888,131.039 85.289,131.475 84.833 C 131.910 84.378,132.267 83.858,132.267 83.678 C 132.267 83.498,132.586 83.076,132.976 82.740 C 133.367 82.405,133.622 82.066,133.543 81.987 C 133.464 81.908,133.849 81.399,134.398 80.855 C 134.948 80.311,135.481 79.597,135.584 79.267 C 135.686 78.937,135.941 78.667,136.151 78.667 C 136.361 78.667,136.533 78.487,136.533 78.267 C 136.533 78.047,136.647 77.867,136.785 77.867 C 136.923 77.867,137.249 77.507,137.509 77.067 C 137.769 76.627,138.196 76.267,138.457 76.267 C 138.719 76.267,138.933 76.152,138.933 76.012 C 138.933 75.872,139.233 75.458,139.600 75.091 C 139.967 74.724,140.267 74.299,140.267 74.145 C 140.267 73.992,140.417 73.866,140.600 73.865 C 141.090 73.863,143.529 71.250,143.334 70.935 C 143.243 70.787,143.049 70.667,142.902 70.667 C 142.755 70.667,142.709 70.787,142.800 70.933 M257.333 72.203 C 257.333 72.456,258.411 73.145,258.566 72.990 C 258.628 72.927,258.604 72.679,258.511 72.438 C 258.346 72.008,257.333 71.805,257.333 72.203 M166.667 94.781 C 151.176 98.069,146.127 116.324,157.532 127.807 C 165.418 135.747,181.812 132.999,186.610 122.933 C 190.907 113.916,189.188 104.748,182.082 98.784 C 178.001 95.359,171.679 93.718,166.667 94.781 M225.067 94.902 C 210.837 98.401,205.552 114.323,214.795 125.852 C 223.503 136.714,241.306 133.949,246.381 120.947 C 252.049 106.421,239.682 91.308,225.067 94.902 M172.084 104.958 C 177.526 106.812,179.018 114.347,174.756 118.452 C 169.927 123.104,162.133 119.450,162.133 112.533 C 162.133 107.201,167.245 103.309,172.084 104.958 M232.201 105.300 C 239.199 108.870,237.287 119.926,229.576 120.483 C 222.293 121.010,218.555 111.366,224.138 106.452 C 226.340 104.513,229.714 104.031,232.201 105.300 M258.317 201.183 C 258.010 201.416,257.938 201.613,258.119 201.725 C 258.276 201.821,258.583 201.722,258.802 201.503 C 259.531 200.774,259.170 200.536,258.317 201.183 " stroke="none" fill="#e2dac4" fill-rule="evenodd"></path><path id="path3" d="M194.267 49.867 C 194.357 50.013,194.604 50.133,194.816 50.133 C 195.027 50.133,195.200 50.013,195.200 49.867 C 195.200 49.720,194.953 49.600,194.651 49.600 C 194.349 49.600,194.176 49.720,194.267 49.867 M219.867 52.267 C 219.957 52.413,220.257 52.533,220.533 52.533 C 220.809 52.533,221.109 52.413,221.200 52.267 C 221.296 52.111,221.020 52.000,220.533 52.000 C 220.047 52.000,219.770 52.111,219.867 52.267 M239.733 59.619 C 239.733 59.818,240.450 60.533,240.650 60.533 C 240.735 60.533,240.655 60.293,240.471 60.000 C 240.159 59.499,239.733 59.280,239.733 59.619 M192.267 61.105 C 165.357 63.882,140.948 83.626,136.523 106.196 C 136.066 108.522,135.747 108.388,141.945 108.476 C 148.084 108.564,147.637 108.337,147.681 111.382 C 147.700 112.641,147.779 113.735,147.857 113.813 C 147.936 113.891,148.000 113.229,148.000 112.341 C 148.000 96.266,164.945 85.559,179.354 92.529 C 185.472 95.488,190.412 101.894,191.338 108.070 C 191.542 109.432,191.648 109.551,192.104 108.932 C 192.353 108.594,193.539 108.519,199.524 108.465 L 206.648 108.400 206.724 110.667 L 206.800 112.933 206.997 111.067 C 208.001 101.536,213.614 94.257,222.185 91.371 C 235.575 86.863,250.461 97.332,250.707 111.430 L 250.747 113.733 250.929 111.266 C 251.159 108.169,250.528 108.461,257.061 108.428 C 263.544 108.396,262.923 108.814,262.246 104.933 C 257.457 77.468,225.803 57.643,192.267 61.105 M208.133 61.602 C 220.439 63.253,229.543 66.337,237.564 71.574 C 241.847 74.370,246.429 78.193,246.005 78.617 C 245.866 78.756,236.021 78.804,231.000 78.690 C 229.973 78.667,228.095 78.670,224.267 78.702 C 223.020 78.713,221.730 78.711,221.400 78.699 C 221.070 78.686,220.500 78.676,220.133 78.676 C 219.767 78.676,219.197 78.686,218.867 78.699 C 218.537 78.711,217.247 78.706,216.000 78.688 C 214.753 78.670,213.253 78.664,212.667 78.674 C 210.555 78.713,204.387 78.735,203.800 78.706 C 203.470 78.689,202.930 78.690,202.600 78.707 C 202.270 78.725,201.580 78.732,201.067 78.724 C 199.152 78.696,195.048 78.669,194.533 78.682 C 193.771 78.701,191.164 78.712,190.533 78.698 C 188.169 78.647,186.190 78.630,185.800 78.657 C 185.292 78.692,183.782 78.700,182.933 78.672 C 182.344 78.652,182.346 78.652,180.267 78.682 C 176.716 78.733,174.961 78.719,173.467 78.626 C 172.587 78.571,171.724 78.627,171.550 78.749 C 171.376 78.871,171.004 78.847,170.719 78.695 C 170.360 78.503,169.965 78.510,169.409 78.720 C 168.834 78.937,168.141 78.942,166.907 78.740 C 165.766 78.553,165.090 78.549,164.869 78.728 C 164.687 78.874,164.147 78.919,163.669 78.826 C 163.191 78.734,162.620 78.668,162.400 78.681 C 161.710 78.720,155.902 78.646,155.146 78.589 L 154.425 78.533 155.279 77.642 C 166.154 66.300,189.758 59.137,208.133 61.602 M246.533 64.142 C 247.393 64.846,247.733 64.957,247.733 64.533 C 247.733 64.387,247.546 64.267,247.318 64.267 C 247.068 64.267,246.979 64.142,247.095 63.955 C 247.224 63.745,247.142 63.698,246.844 63.813 C 246.600 63.907,246.400 63.867,246.400 63.725 C 246.400 63.583,246.250 63.471,246.067 63.476 C 245.883 63.482,246.093 63.781,246.533 64.142 M248.914 65.739 C 249.462 66.154,249.768 66.088,249.478 65.618 C 249.381 65.461,249.099 65.337,248.851 65.342 C 248.455 65.349,248.463 65.398,248.914 65.739 M250.533 66.985 C 250.827 67.152,251.127 67.364,251.200 67.458 C 251.424 67.744,254.686 70.400,254.814 70.400 C 255.228 70.400,254.288 69.406,252.933 68.411 C 252.347 67.980,251.673 67.411,251.435 67.147 C 251.198 66.883,250.778 66.670,250.502 66.675 C 250.028 66.682,250.030 66.700,250.533 66.985 M255.200 70.686 C 255.200 71.003,256.984 72.897,257.467 73.092 C 257.613 73.151,258.928 74.520,260.387 76.133 C 261.847 77.747,263.347 79.382,263.721 79.767 C 264.094 80.153,265.000 81.333,265.733 82.391 C 266.467 83.449,267.501 84.853,268.033 85.511 C 268.564 86.169,269.160 87.029,269.356 87.421 C 269.553 87.813,269.958 88.483,270.257 88.911 C 271.842 91.180,277.117 102.113,277.860 104.667 C 278.031 105.253,278.267 105.973,278.384 106.267 C 282.156 115.669,283.849 135.072,281.829 145.733 C 281.690 146.467,281.399 148.070,281.182 149.295 C 280.965 150.521,280.536 152.441,280.230 153.562 C 279.923 154.683,279.614 155.840,279.544 156.133 C 275.628 172.535,262.074 191.221,246.400 201.827 C 198.880 233.983,133.942 209.444,119.477 153.867 C 118.911 151.694,118.594 150.134,117.744 145.333 C 116.145 136.307,116.703 123.554,119.127 113.733 C 119.489 112.267,119.821 110.808,119.866 110.492 C 119.911 110.176,120.249 109.036,120.618 107.959 C 120.987 106.882,121.366 105.649,121.461 105.219 C 121.556 104.790,121.970 103.710,122.382 102.819 C 122.793 101.929,123.382 100.459,123.691 99.554 C 124.326 97.690,127.450 91.501,128.899 89.236 C 129.427 88.410,129.772 87.738,129.663 87.743 C 129.398 87.757,128.193 89.528,127.719 90.600 C 127.509 91.077,127.273 91.467,127.195 91.467 C 127.117 91.467,126.816 92.006,126.526 92.664 C 126.237 93.323,125.910 93.863,125.800 93.864 C 125.690 93.866,125.600 94.107,125.600 94.400 C 125.600 94.693,125.480 94.933,125.333 94.933 C 125.187 94.933,125.067 95.233,125.067 95.600 C 125.067 95.967,124.970 96.267,124.851 96.267 C 124.664 96.267,124.290 97.030,123.480 99.067 C 123.137 99.928,122.119 102.205,121.710 103.022 C 121.503 103.437,121.333 104.000,121.333 104.273 C 121.333 104.545,121.213 104.843,121.067 104.933 C 120.920 105.024,120.797 105.361,120.794 105.682 C 120.791 106.004,120.492 107.107,120.129 108.133 C 119.766 109.160,119.468 110.212,119.468 110.470 C 119.467 110.729,119.350 111.149,119.207 111.404 C 118.959 111.846,118.120 115.553,117.564 118.667 C 108.525 169.306,148.173 216.524,199.733 216.523 C 242.219 216.522,276.297 186.301,282.714 142.933 C 283.455 137.923,283.106 123.531,282.134 119.067 C 282.006 118.480,281.693 116.860,281.437 115.467 C 281.182 114.073,280.874 112.819,280.753 112.680 C 280.632 112.541,280.533 112.149,280.533 111.810 C 280.533 111.470,280.424 110.984,280.289 110.730 C 280.155 110.475,279.839 109.427,279.587 108.400 C 279.335 107.373,279.025 106.419,278.898 106.280 C 278.771 106.141,278.667 105.751,278.667 105.413 C 278.667 105.076,278.547 104.800,278.400 104.800 C 278.253 104.800,278.133 104.575,278.133 104.299 C 278.133 103.843,277.862 103.065,276.982 101.000 C 276.810 100.597,276.579 100.267,276.468 100.267 C 276.357 100.267,276.258 99.937,276.247 99.533 C 276.236 99.130,276.002 98.440,275.726 98.000 C 275.450 97.560,275.025 96.780,274.783 96.267 C 274.540 95.753,273.988 94.585,273.556 93.671 C 273.124 92.757,272.625 91.857,272.448 91.671 C 272.270 91.485,271.898 90.823,271.621 90.200 C 271.345 89.577,271.017 89.067,270.893 89.067 C 270.768 89.067,270.667 88.887,270.667 88.667 C 270.667 88.447,270.547 88.267,270.400 88.267 C 270.253 88.267,270.133 88.027,270.133 87.733 C 270.133 87.440,270.043 87.197,269.933 87.194 C 269.823 87.191,269.373 86.651,268.933 85.995 C 268.493 85.338,268.043 84.801,267.933 84.801 C 267.823 84.800,267.733 84.638,267.733 84.439 C 267.733 84.240,267.446 83.768,267.094 83.388 C 266.743 83.009,266.413 82.580,266.361 82.436 C 266.208 82.009,264.745 80.226,263.667 79.151 C 263.117 78.603,262.666 78.060,262.664 77.944 C 262.663 77.828,262.303 77.450,261.864 77.103 C 261.426 76.757,261.067 76.350,261.067 76.198 C 261.067 75.956,260.216 75.102,256.200 71.318 C 255.650 70.800,255.200 70.515,255.200 70.686 M142.133 72.608 C 141.913 72.787,141.558 73.173,141.344 73.467 C 141.129 73.760,141.339 73.648,141.810 73.217 C 142.578 72.515,142.800 72.250,142.600 72.275 C 142.563 72.280,142.353 72.430,142.133 72.608 M140.267 74.145 C 140.267 74.299,139.967 74.724,139.600 75.091 C 138.718 75.973,138.739 76.275,139.624 75.446 C 140.475 74.651,140.931 73.867,140.543 73.867 C 140.391 73.867,140.267 73.992,140.267 74.145 M136.200 78.630 C 135.797 79.041,135.467 79.466,135.467 79.573 C 135.467 79.681,135.048 80.211,134.536 80.751 C 134.024 81.291,133.604 81.855,133.602 82.003 C 133.601 82.152,133.300 82.499,132.933 82.774 C 132.567 83.049,132.267 83.439,132.267 83.640 C 132.267 83.841,131.907 84.382,131.467 84.842 C 131.027 85.302,130.667 85.773,130.667 85.887 C 130.667 86.002,130.477 86.285,130.245 86.517 C 130.013 86.748,129.872 87.084,129.932 87.263 C 129.992 87.441,130.362 87.038,130.756 86.366 C 131.149 85.695,131.710 84.929,132.002 84.665 C 132.294 84.400,132.533 84.069,132.533 83.929 C 132.533 83.788,132.841 83.297,133.217 82.837 C 137.015 78.189,137.279 77.843,137.000 77.874 C 136.963 77.878,136.603 78.218,136.200 78.630 M191.806 110.667 C 191.806 111.327,191.858 111.597,191.922 111.267 C 191.985 110.937,191.985 110.397,191.922 110.067 C 191.858 109.737,191.806 110.007,191.806 110.667 M284.400 155.200 C 284.300 155.515,284.278 155.834,284.351 155.907 C 284.425 155.980,284.567 155.782,284.667 155.467 C 284.767 155.151,284.789 154.833,284.715 154.760 C 284.642 154.686,284.500 154.885,284.400 155.200 M115.306 156.669 C 115.339 156.891,115.493 157.200,115.650 157.356 C 115.851 157.557,115.895 157.440,115.802 156.954 C 115.665 156.234,115.204 155.970,115.306 156.669 M282.513 162.368 C 282.621 162.542,282.447 163.130,282.128 163.675 L 281.546 164.667 282.240 164.020 C 282.972 163.338,283.140 162.559,282.625 162.241 C 282.432 162.121,282.390 162.168,282.513 162.368 M281.566 165.251 C 281.317 165.558,281.307 165.638,281.533 165.502 C 281.717 165.392,281.867 165.422,281.867 165.569 C 281.867 165.715,281.747 165.909,281.600 166.000 C 281.453 166.091,281.333 166.292,281.333 166.448 C 281.333 166.622,281.496 166.597,281.752 166.385 C 281.982 166.194,282.115 165.825,282.047 165.565 C 281.979 165.305,282.061 165.036,282.228 164.967 C 282.450 164.876,282.451 164.836,282.233 164.821 C 282.067 164.809,281.767 165.003,281.566 165.251 M279.743 170.382 C 279.323 171.167,279.414 171.692,279.867 171.094 C 280.077 170.816,280.193 170.496,280.123 170.383 C 280.054 170.271,280.147 170.118,280.332 170.044 C 280.582 169.943,280.585 169.903,280.343 169.888 C 280.165 169.876,279.895 170.099,279.743 170.382 " stroke="none" fill="#f0d182" fill-rule="evenodd"></path><path id="path4" d="M175.800 52.984 C 176.057 53.051,176.477 53.051,176.733 52.984 C 176.990 52.917,176.780 52.862,176.267 52.862 C 175.753 52.862,175.543 52.917,175.800 52.984 M167.600 90.378 C 166.999 90.473,167.989 90.547,169.867 90.546 C 172.096 90.545,172.803 90.483,172.000 90.359 C 170.578 90.139,169.069 90.145,167.600 90.378 M226.667 90.377 C 226.146 90.473,227.089 90.548,228.800 90.547 C 230.849 90.545,231.513 90.481,230.800 90.354 C 229.536 90.129,227.958 90.137,226.667 90.377 M176.267 91.422 C 176.487 91.558,176.967 91.749,177.333 91.847 C 177.797 91.971,177.878 91.950,177.600 91.778 C 177.380 91.642,176.900 91.451,176.533 91.353 C 176.070 91.229,175.989 91.250,176.267 91.422 M178.156 92.101 C 178.428 92.349,181.067 93.595,181.067 93.476 C 181.067 93.325,178.520 92.000,178.231 92.000 C 178.128 92.000,178.094 92.046,178.156 92.101 M237.089 92.101 C 237.361 92.349,240.000 93.595,240.000 93.476 C 240.000 93.325,237.453 92.000,237.164 92.000 C 237.062 92.000,237.028 92.046,237.089 92.101 M157.163 94.501 C 156.303 95.143,154.940 96.371,154.133 97.228 C 152.807 98.639,152.858 98.608,154.667 96.904 C 155.767 95.868,157.177 94.684,157.800 94.275 C 158.829 93.598,159.118 93.333,158.829 93.333 C 158.772 93.333,158.022 93.859,157.163 94.501 M181.480 93.822 C 181.619 93.944,182.472 94.613,183.375 95.308 C 185.078 96.620,186.576 98.255,187.858 100.200 C 188.725 101.517,189.118 101.753,188.304 100.468 C 186.784 98.067,182.291 93.600,181.396 93.600 C 181.303 93.600,181.341 93.700,181.480 93.822 M240.400 93.777 C 240.547 93.918,241.452 94.657,242.412 95.419 C 254.411 104.945,252.425 124.262,238.737 131.165 C 237.178 131.952,236.650 132.150,233.600 133.095 C 228.973 134.529,221.534 133.073,216.680 129.783 C 209.265 124.758,205.648 114.872,208.112 106.365 C 208.892 103.673,208.803 103.203,208.001 105.774 C 202.845 122.298,218.911 138.195,235.378 132.862 C 251.919 127.505,256.098 105.894,242.641 95.300 C 241.037 94.038,239.782 93.185,240.400 93.777 M215.556 94.888 C 212.831 97.042,209.643 101.103,208.927 103.333 C 208.833 103.627,209.165 103.131,209.665 102.232 C 211.349 99.204,213.831 96.343,216.400 94.468 C 216.840 94.146,217.121 93.880,217.024 93.875 C 216.927 93.870,216.266 94.326,215.556 94.888 M151.469 100.561 C 150.298 102.374,148.932 105.701,148.688 107.333 C 148.587 108.010,148.725 107.739,149.066 106.590 C 149.753 104.277,150.922 101.699,151.989 100.150 C 152.449 99.481,152.757 98.933,152.674 98.933 C 152.590 98.933,152.048 99.666,151.469 100.561 M189.584 103.389 C 194.050 113.902,189.721 126.199,179.804 131.170 C 178.244 131.952,177.713 132.151,174.667 133.095 C 170.042 134.528,162.647 133.082,157.733 129.785 C 151.853 125.839,148.468 119.269,148.432 111.733 C 148.422 109.514,148.352 108.756,148.223 109.467 C 146.926 116.647,151.222 125.906,157.867 130.247 C 172.019 139.492,190.914 129.964,191.669 113.200 C 191.842 109.345,190.280 102.483,189.056 101.727 C 188.923 101.645,189.160 102.392,189.584 103.389 M285.669 148.413 C 285.459 148.641,285.436 148.832,285.605 148.936 C 285.751 149.027,285.944 148.908,286.035 148.672 C 286.255 148.098,286.076 147.971,285.669 148.413 M285.012 152.227 C 284.584 152.662,284.587 152.691,285.079 152.728 C 285.430 152.754,285.600 152.598,285.600 152.250 C 285.600 151.636,285.594 151.636,285.012 152.227 M284.021 156.467 C 284.036 156.792,284.086 156.823,284.187 156.570 C 284.309 156.263,284.367 156.263,284.562 156.570 C 284.742 156.854,284.793 156.832,284.796 156.467 C 284.798 156.210,284.620 156.000,284.400 156.000 C 284.180 156.000,284.009 156.210,284.021 156.467 M283.467 159.006 C 283.467 159.277,283.587 159.424,283.733 159.333 C 283.880 159.243,284.000 159.296,284.000 159.451 C 284.000 159.606,283.790 159.735,283.533 159.737 C 283.142 159.741,283.130 159.781,283.459 159.990 C 283.801 160.206,283.798 160.258,283.437 160.397 C 282.999 160.565,282.854 161.333,283.260 161.333 C 283.391 161.333,283.423 161.455,283.331 161.604 C 283.239 161.753,283.060 161.811,282.933 161.733 C 282.807 161.655,282.633 161.705,282.547 161.844 C 282.462 161.983,282.513 162.172,282.662 162.264 C 283.063 162.512,282.991 163.353,282.536 163.731 C 282.318 163.912,282.205 164.167,282.285 164.297 C 282.366 164.427,282.274 164.535,282.082 164.537 C 281.800 164.541,281.801 164.584,282.089 164.767 C 282.375 164.949,282.362 165.024,282.022 165.155 C 281.790 165.244,281.602 165.470,281.604 165.658 C 281.607 165.897,281.686 165.880,281.867 165.600 C 282.096 165.245,282.126 165.245,282.129 165.601 C 282.131 165.821,281.773 166.342,281.333 166.757 C 280.552 167.494,280.224 168.223,280.845 167.839 C 281.058 167.707,281.100 167.794,280.979 168.111 C 280.880 168.367,280.800 168.634,280.800 168.704 C 280.800 168.774,280.689 168.763,280.553 168.679 C 280.416 168.594,280.224 168.782,280.124 169.096 C 280.010 169.456,280.077 169.751,280.305 169.896 C 280.605 170.086,280.603 170.126,280.289 170.129 C 280.081 170.131,279.987 170.209,280.080 170.302 C 280.331 170.553,279.747 171.507,279.453 171.325 C 279.314 171.239,279.200 171.352,279.200 171.576 C 279.200 171.849,279.353 171.929,279.667 171.817 C 280.421 171.548,280.800 171.166,280.800 170.675 C 280.800 170.423,281.040 169.999,281.333 169.733 C 281.689 169.411,281.867 168.912,281.867 168.231 C 281.867 167.434,282.014 167.116,282.544 166.769 C 283.120 166.391,283.212 166.150,283.160 165.143 C 283.119 164.352,283.225 163.879,283.482 163.714 C 283.787 163.518,283.796 163.421,283.527 163.247 C 283.267 163.079,283.314 162.913,283.727 162.539 C 284.297 162.023,284.441 161.206,284.010 160.939 C 283.860 160.847,283.973 160.390,284.282 159.840 C 284.868 158.796,284.787 158.414,283.995 158.474 C 283.673 158.498,283.467 158.706,283.467 159.006 M169.076 172.213 C 166.481 173.488,166.220 177.221,168.616 178.791 C 169.497 179.369,174.706 180.655,179.867 181.570 C 195.433 184.328,213.256 183.701,228.667 179.851 C 233.084 178.748,234.610 176.689,233.106 173.863 C 231.942 171.675,230.494 171.414,225.686 172.520 C 207.995 176.592,191.757 176.548,174.204 172.381 C 171.011 171.623,170.322 171.601,169.076 172.213 M175.629 173.203 C 180.059 174.270,183.197 174.859,186.267 175.198 C 187.440 175.327,189.540 175.568,190.933 175.733 C 194.109 176.108,205.956 176.118,209.333 175.749 C 217.494 174.856,219.003 174.605,225.385 173.077 C 229.053 172.199,229.910 172.119,231.094 172.544 C 233.136 173.278,233.678 176.503,231.995 177.908 C 230.836 178.876,230.359 178.892,231.244 177.933 C 232.144 176.959,232.299 176.439,231.969 175.492 C 231.385 173.817,229.850 173.531,225.467 174.278 C 219.960 175.217,217.721 175.514,212.417 176.011 C 201.427 177.040,188.502 176.542,177.279 174.659 C 171.614 173.708,170.198 173.663,169.256 174.403 C 168.007 175.386,168.076 177.025,169.416 178.200 C 169.722 178.469,169.806 178.667,169.614 178.667 C 168.161 178.667,166.943 175.610,167.775 174.055 C 168.879 171.993,170.074 171.863,175.629 173.203 M279.202 172.664 C 279.021 172.882,278.779 173.003,278.664 172.932 C 278.550 172.861,278.387 172.982,278.303 173.202 C 278.164 173.564,278.294 173.650,278.867 173.573 C 278.977 173.559,279.037 173.439,279.000 173.307 C 278.963 173.175,279.040 173.067,279.171 173.067 C 279.302 173.067,279.479 172.887,279.563 172.667 C 279.758 172.158,279.623 172.157,279.202 172.664 M200.870 182.854 C 200.542 182.918,199.942 182.919,199.537 182.858 C 199.132 182.797,199.400 182.745,200.133 182.743 C 200.867 182.741,201.198 182.791,200.870 182.854 " stroke="none" fill="#88550c" fill-rule="evenodd"></path></g></svg>